<?xml version="1.0" encoding="UTF-8"?>
<svg width="19px" height="28px" viewBox="0 0 19 28" version="1.1" xmlns="http://www.w3.org/2000/svg" xmlns:xlink="http://www.w3.org/1999/xlink">
    <!-- Generator: Sketch 54.1 (76490) - https://sketchapp.com -->
    <title>location-pin-hand-drawn-sign</title>
    <desc>Created with Sketch.</desc>
    <g id="v4" stroke="none" stroke-width="1" fill="none" fill-rule="evenodd">
        <g id="Kontaktai" transform="translate(-880.000000, -573.000000)" fill="#A0A0A0" fill-rule="nonzero">
            <g id="Group-8" transform="translate(875.000000, 422.000000)">
                <g id="Group-5" transform="translate(1.000000, 61.000000)">
                    <g id="location-pin-hand-drawn-sign" transform="translate(4.000000, 90.000000)">
                        <path d="M9.67021906,0 C9.27028466,0 8.85332268,0.0133727974 8.44997056,0.0389528732 L7.95794079,0.0389528732 C7.82464966,0.0389528732 7.69392183,0.0676001043 7.56868677,0.125078596 C4.48492584,0.186912448 1.84864226,1.87820326 0.677340419,4.55147453 C-0.47180727,7.17370834 0.0794833496,10.152407 0.593972436,12.1648289 C1.77656497,16.7916941 4.46649456,21.7625715 8.04973101,26.0057969 C7.58699599,25.9939577 7.12523745,25.9818118 6.66830035,25.9693591 C5.91335017,25.9491159 5.15839999,25.9291794 4.40314466,25.9110832 L4.36811302,25.9110832 C3.69061084,25.9110832 3.33034642,26.3777202 3.32509778,26.8387136 C3.31936089,27.3165764 3.68273788,27.8087322 4.38807007,27.8249268 C5.142532,27.8427163 5.89656672,27.8629595 6.65090659,27.8832027 C8.80462016,27.9404972 11.0316316,28 13.2249542,28 C13.8552796,28 14.485666,27.9956446 15.1166017,27.9844189 C15.8213847,27.9719662 16.1861043,27.4822028 16.181466,27.0056896 C16.177499,26.5409542 15.8157698,26.0705752 15.1057383,26.0705752 C15.1057383,26.0705752 15.1054331,26.0705752 15.105128,26.0705752 C14.4784644,26.081801 13.8512515,26.0861564 13.224588,26.0861564 C12.7160189,26.0861564 12.2056188,26.0823531 11.6943033,26.0768322 C15.5192215,21.9821798 18.2519947,16.100112 18.9044132,10.4585704 C19.1489634,8.34787676 19.0423427,5.31949024 17.1481928,2.87969083 C15.6654511,0.969037067 13.1493371,0 9.67021906,0 Z M16.8719677,11.0728603 C16.1142712,16.1642768 13.4453361,21.5264005 9.88010375,25.1460733 C7.05676097,21.8877728 4.73661659,17.9727943 3.16104717,13.8043462 C2.10906041,11.02078 1.74910114,8.69937277 2.06102922,6.70639655 C2.48824435,3.97981812 4.83786658,2.07517598 7.77533683,2.07517598 C7.83343809,2.07517598 7.89135626,2.07578941 7.9764331,2.07781373 C8.11417947,2.07781373 8.24496833,2.04996396 8.36580918,1.99481651 L8.69586339,1.99481651 C8.75829783,1.99481651 8.82213598,1.98782339 8.88939185,1.97346911 C9.15066442,1.96224332 9.41340173,1.95623169 9.67607801,1.95623169 C12.4693326,1.95623169 14.4487424,2.69461868 15.7283738,4.21427147 C16.9485613,5.66331836 17.3334211,7.97080068 16.8719677,11.0728603 Z" id="Shape"></path>
                        <path d="M9.52006856,3.00247588 C9.45763891,3.00247588 9.39539883,3.00307475 9.3543267,3.005051 C6.37621774,2.89192527 4.20634523,4.68900151 4.01191606,7.39264066 C3.7887364,10.4882374 6.73897948,12.7845281 9.63443866,12.9865854 C9.76214141,12.9956882 9.89110791,13 10.0195057,13 C10.0195057,13 10.0195057,13 10.0198217,13 C12.8764835,13 15.5939423,10.9021734 15.9542397,8.41867729 C16.1348308,7.17279706 15.7787669,6.02315454 14.9238978,5.09389462 C13.7553008,3.823401 11.634083,3.00247588 9.52006856,3.00247588 Z M13.8063566,8.24219156 C13.5651052,9.90506199 11.4756077,10.934572 9.66047207,10.934572 C7.54968025,10.9258885 6.29249378,9.24205776 6.29615867,7.61907179 C6.29874938,6.38001862 7.0511909,5.05592653 9.15458974,5.05592653 C9.19433493,5.05592653 9.23414331,5.05622596 9.28115511,5.05742369 C9.29221299,5.05802256 9.30346044,5.05832199 9.314076,5.05802256 C9.37277756,5.05652539 9.43230057,5.05556721 9.49213951,5.05556721 C10.6632009,5.05556721 12.3506338,5.4030291 13.2518828,6.38271352 C13.7242123,6.89588155 13.9103007,7.52187588 13.8063566,8.24219156 Z" id="Shape"></path>
                    </g>
                </g>
            </g>
        </g>
    </g>
</svg>