<?xml version="1.0" encoding="UTF-8"?>
<svg width="80px" height="65px" viewBox="0 0 80 65" version="1.1" xmlns="http://www.w3.org/2000/svg" xmlns:xlink="http://www.w3.org/1999/xlink">
    <!-- Generator: Sketch 54.1 (76490) - https://sketchapp.com -->
    <title>Group 6</title>
    <desc>Created with Sketch.</desc>
    <defs>
        <polygon id="path-1" points="0 0.00899717941 79.9175488 0.00899717941 79.9175488 69.9019608 0 69.9019608"></polygon>
    </defs>
    <g id="v4" stroke="none" stroke-width="1" fill="none" fill-rule="evenodd">
        <g id="Stovyklos-individualus_puslapis" transform="translate(-744.000000, -2287.000000)">
            <g id="Group-6" transform="translate(780.500000, 2317.500000) rotate(14.000000) translate(-780.500000, -2317.500000) translate(740.000000, 2282.000000)">
                <g id="Group-3" transform="translate(0.516587, 0.092012)">
                    <mask id="mask-2" fill="white">
                        <use xlink:href="#path-1"></use>
                    </mask>
                    <g id="Clip-2"></g>
                    <path d="M59.2152925,20.3978223 C60.8125714,29.7025799 56.6683537,35.9940252 53.9320272,42.7653744 C51.7788299,48.093248 53.249034,53.4146692 55.3559728,58.5215452 C56.7298503,61.8518359 59.4392381,61.5332443 62.2680816,60.953058 C65.4444082,60.3013566 65.5725714,58.3164098 65.0533878,55.6528762 C63.6724354,48.5677748 64.9404626,42.1886832 69.8849524,36.4811881 C75.7829116,29.6732748 77.5352925,21.4398992 76.6441361,12.6838721 C76.2974694,9.27749578 75.7502585,5.72405649 71.4727075,2.4150052 C73.7045442,14.152351 66.9584218,22.5604814 65.2596463,33.8606711 C62.7257687,29.0828721 63.7154286,24.5922088 59.2152925,20.3978223 M3.74944218,22.7481413 C2.61529252,27.33371 3.95542857,31.1353012 6.12440816,34.7164324 C10.1050884,41.2899053 15.6027755,46.387909 23.0003265,48.6228898 C31.2571973,51.1178521 37.3508027,55.427308 40.216381,63.7061198 C41.0974694,66.2516266 42.9630476,66.8581606 45.4471293,65.6542337 C47.6381497,64.5925305 50.5927075,64.3992247 49.8879456,60.6632337 C48.9317551,55.5921153 47.5638639,50.4973378 43.4835918,47.2235063 C36.9883537,42.0120463 28.954068,38.6962737 24.1801905,30.3717567 C22.3668571,36.0340844 27.5445442,39.1210625 26.3799184,44.6847209 C19.7826395,35.5641281 8.15053061,33.1621892 3.74944218,22.7481413 M55.049014,36.5229367 C57.0019392,33.0176222 57.5640093,30.330999 57.7917644,26.288246 C57.9267304,23.888189 56.4844579,21.0195675 59.2885396,19.5481312 C62.5639137,17.8293495 62.7024417,24.156534 65.0061151,25.5438191 C68.2942784,20.5487863 69.2675374,11.0984419 69.1703946,5.62592489 C69.1344762,3.59231554 68.3924354,0.844093062 71.2705306,0.135663575 C74.0751565,-0.554752715 74.5232736,1.7450975 75.4674913,3.82925135 C80.3031376,14.504625 79.3287808,25.8635584 72.7113659,35.285805 C67.2776244,43.0234144 64.9609886,49.3310546 67.9702403,58.751688 C68.5318729,60.5099912 68.2242721,62.6554396 66.206585,62.9113883 C62.2702585,63.4111873 58.3105306,66.5333853 54.3508027,63.0767333 C53.4852245,62.3209856 53.3782857,62.4685863 53.0680816,63.4746368 C51.5309388,68.4583778 46.326585,67.6284264 42.8678095,69.566055 C41.4193741,70.3774554 40.0425034,69.6507439 39.2599184,68.1206975 C38.436517,66.5110704 39.2985381,65.6408426 38.6139122,63.9761005 C36.1823476,58.0623946 31.3783811,53.1081106 24.9402859,51.4839654 C15.9579729,49.2177976 8.66862585,43.6824343 3.85039456,36.1373242 C2.28168707,33.6805391 1.58229151,30.6138119 1.07480852,27.7502512 C0.512631645,24.5777776 -0.124941876,22.224201 3.5667588,20.7610992 C7.20294928,19.3197745 6.54497982,23.7889475 8.04103424,26.0069905 C10.9346397,30.29682 17.7062983,36.0226354 22.7098357,38.2500883 C22.9974548,36.5735167 22.4172347,31.1030438 22.7151857,29.7613431 C23.2141108,27.5146382 24.2756388,27.1013797 25.9488361,30.0130652 C29.9706048,37.0121335 37.1325714,39.5369792 43.674068,43.4842891 C46.7312109,45.3288943 50.0789954,54.4181978 51.8019886,57.4930776 C51.437907,51.8936616 52.416361,41.2485781 55.049014,36.5229367 Z" id="Fill-1" fill="#F0764B" mask="url(#mask-2)"></path>
                </g>
                <path d="M54.1054797,13.4234315 C54.2719422,9.45412542 53.6529942,6.74066967 50.1627023,5.68193324 C46.2169427,4.48505327 43.8598976,6.81738575 42.0957739,9.72358722 C40.0190583,13.1441413 38.0797963,15.2987437 34.2622726,11.7020975 C32.0125877,9.58298659 29.275173,8.44507698 26.3973223,10.7208962 C23.3109868,13.16216 24.0912463,16.2422695 25.4115602,19.199797 C28.9544478,27.1373171 36.1698145,30.2209757 43.6392127,32.8888386 C45.0359802,33.3876296 46.1629915,32.673433 46.8258596,31.427138 C50.0057286,25.4520206 53.0982997,19.4362245 54.1054797,13.4234315 M55.5715762,14.8639842 C54.2002933,22.9814186 51.4567545,26.6687366 47.6094085,33.9103519 C46.943287,35.1640181 45.967166,35.1344266 44.6276031,34.6604796 C35.8037308,31.5372345 28.8105185,30.8806138 24.5117715,21.6124384 C22.7096921,17.7266736 21.1322657,13.2745442 24.7676024,9.83078419 C27.5212839,7.22243765 29.7753724,6.59079766 32.9668993,8.83330954 C34.568357,9.958634 36.5460228,10.9959439 37.6860874,10.8417373 C39.0278378,10.6602504 41.6010281,8.21476649 42.9062505,6.33288367 C45.531425,2.54813299 47.4092304,2.18534736 51.8516666,4.08250039 C54.527539,5.22514219 55.7675089,8.81897013 55.5715762,14.8639842 Z" id="Fill-4" fill="#F0764B"></path>
            </g>
        </g>
    </g>
</svg>