<?xml version="1.0" encoding="UTF-8"?>
<svg width="82px" height="58px" viewBox="0 0 82 58" version="1.1" xmlns="http://www.w3.org/2000/svg" xmlns:xlink="http://www.w3.org/1999/xlink">
    <!-- Generator: Sketch 54.1 (76490) - https://sketchapp.com -->
    <title>axe-hand-drawn-tool</title>
    <desc>Created with Sketch.</desc>
    <g id="v4" stroke="none" stroke-width="1" fill="none" fill-rule="evenodd">
        <g id="Stovyklos-individualus_puslapis" transform="translate(-154.000000, -2025.000000)" fill="#F0764B" fill-rule="nonzero">
            <g id="axe-hand-drawn-tool" transform="translate(154.000000, 2025.000000)">
                <path d="M79.7372182,13.2535371 C79.1511074,12.605104 78.2770085,12.869641 77.8488268,13.4448503 C77.6136224,13.326761 77.3416805,13.2577697 77.018644,13.3068678 C67.0226687,14.8310241 57.8589877,14.9220249 49.9798519,11.1389342 C50.9147577,10.2136896 51.3336495,8.4787502 51.2559518,7.30335943 C51.1157582,5.17690526 49.7129773,3.30906245 48.1201749,2.0079637 C45.9138142,0.205302806 40.4821553,-1.25790422 38.7571824,1.6511562 C38.4831292,1.28630678 38.2014751,0.948969203 37.9333336,0.565073117 C37.7141755,0.251438057 37.4029625,0.153665184 37.1170857,0.195144585 C36.9333983,0.139697631 36.7345091,0.113032302 36.5115506,0.149009333 C31.1466104,1.01245808 22.9820201,8.28151142 24.4510974,14.4103045 C24.1719769,14.6761113 24.1153927,15.2123807 24.5262614,15.4345917 C25.1630446,15.779548 25.7664684,16.1642906 26.3787599,16.5384517 C21.0429563,20.3384727 18.0059905,28.1425257 13.358487,32.7505485 C7.50117997,38.5585111 -2.54842354,44.8417938 0.595376542,54.2830133 C2.98626923,61.4640287 10.3916181,56.5796176 13.8643665,53.4322623 C22.7945322,45.3387001 28.240126,34.0304843 36.7209965,25.4345134 C39.1038661,28.249187 41.1780562,31.3499838 42.9127414,34.7013501 C44.7922651,38.3324907 45.0359149,44.8870825 47.7912266,47.8748691 C48.1822486,48.2989748 48.7181092,48.2380255 49.0939295,47.9544419 C57.3070808,49.4879099 67.4538064,40.1977939 72.6857316,35.1559305 C77.7774631,30.2482401 86.0125725,20.2013367 79.7372182,13.2535371 Z M74.369322,17.7324659 C73.9753441,17.4433799 73.5767213,17.1614892 73.1713421,16.8876405 C73.6197928,16.7991794 74.0695103,16.7170671 74.5154274,16.610829 C74.4833349,16.9904925 74.4221058,17.3599978 74.369322,17.7324659 Z M71.347558,17.2008523 C72.2254573,17.9212395 73.1177138,18.7017294 74.0834452,19.315032 C74.0171489,19.6146995 73.9630983,19.9185996 73.8841338,20.2140345 C73.2747982,19.7035839 72.6181684,19.2324965 72.0434589,18.7554833 C71.4581927,18.2704283 70.8606807,17.8065362 70.2505005,17.3608443 C70.6174532,17.3176719 70.9818722,17.2546063 71.347558,17.2008523 Z M68.3701323,17.5326875 C69.4101833,18.3313776 70.3999841,19.1927101 71.3686715,20.0773218 C72.0054546,20.6588799 72.6435046,21.3733414 73.3508068,21.9383925 C73.1755648,22.4348755 72.9880769,22.9271259 72.7807423,23.4109112 C71.8264121,22.4598478 70.5625581,21.7470793 69.5064608,20.9433101 C68.1611086,19.9194461 66.8938764,18.7893441 65.6435349,17.6482373 C66.5509932,17.6418884 67.4605627,17.5970229 68.3701323,17.5326875 Z M64.641066,17.6622049 C65.8643822,18.9569547 67.1409043,20.1856761 68.4330505,21.4127045 C69.5660009,22.4882061 70.7855166,23.8819987 72.2123669,24.6091579 C71.9932088,25.0510405 71.787141,25.4988488 71.5422244,25.9284568 C70.0452773,24.3293836 67.9149252,23.1658441 66.2494924,21.7910983 C64.4569563,20.3118074 62.6580861,18.8435213 60.8275457,17.4124819 C62.0884439,17.564432 63.3620102,17.6372326 64.641066,17.6622049 Z M59.2423442,17.174187 C59.2414996,17.2871972 59.2824598,17.3997842 59.3825378,17.4895151 C61.561451,19.4382004 63.6529542,21.4800028 65.84538,23.4142973 C67.2806757,24.6806887 68.9363963,26.4168979 70.7969179,27.1605643 C70.4911944,27.6350379 70.1723806,28.102316 69.8379428,28.5602825 C66.289608,23.9031616 61.1602945,20.1683225 56.2243805,16.5613077 C57.2162928,16.8131469 58.2259403,17.0069996 59.2423442,17.174187 Z M42.5364988,2.12943909 C43.9337902,2.12859257 45.3247475,2.89299866 46.3821116,3.74925201 C47.4449652,4.60931468 48.2890829,5.70090013 48.628588,7.03924569 C48.9423346,8.27516253 48.010807,8.96380523 47.6121841,9.85434257 C44.8408261,8.17823617 42.2392207,5.97390231 39.8445276,3.07838619 C40.6645759,2.55947042 41.441975,2.1302856 42.5364988,2.12943909 Z M37.1774704,2.56878212 C37.1821153,2.56793561 37.1842267,2.56497279 37.1888716,2.56370301 C40.7743661,8.7619106 46.2431848,12.995349 52.5134719,15.3782983 C57.7525756,20.3685241 63.6922253,24.7556056 68.9896024,29.6590633 C68.2219155,30.6135128 67.4090458,31.5387574 66.5286128,32.4119411 C66.5189006,32.3797734 66.5328355,32.3514151 66.5155225,32.3188241 C63.4582877,26.4896985 57.4840119,22.0793378 52.5544321,17.9254721 C46.6684107,12.9652976 40.5188928,8.27389275 34.3989338,3.6061904 C35.3228606,3.14272159 36.2590331,2.77871868 37.1774704,2.56878212 Z M33.7144342,3.96765375 C38.7124218,8.96592153 44.2792071,13.374166 49.6525927,17.9529839 C55.2480923,22.7209987 60.2832397,28.0405202 65.7592369,32.903345 C65.8170879,32.9541361 65.8804284,32.9558292 65.9429244,32.9769921 C65.1710148,33.7088073 64.3678573,34.4131106 63.532185,35.0814368 C58.4227181,29.6971567 52.3162718,25.1348459 46.9027705,20.0375354 C41.7755683,15.2102644 37.0524784,10.0405766 32.3196764,4.8404142 C32.7753057,4.52085351 33.2427586,4.2347303 33.7144342,3.96765375 Z M31.7762149,5.22854288 C39.6148127,16.6561178 50.9688082,28.3418807 62.4549743,35.9186435 C61.6007221,36.5564951 60.7228228,37.1651418 59.8246545,37.7373883 C50.6390154,26.8481991 40.2372387,16.6717783 30.1226056,6.64773094 C30.6466427,6.14024317 31.2010832,5.6649231 31.7762149,5.22854288 Z M29.3768768,7.42525808 C39.239837,17.5915206 48.2802152,28.8248195 58.6697461,38.4404218 C57.9117714,38.8911928 57.147885,39.3279963 56.3734418,39.7313623 C47.0518318,29.4093404 37.7631588,19.0085923 28.0416591,9.06242462 C28.4423933,8.49060146 28.8984449,7.94925295 29.3768768,7.42525808 Z M25.8673909,14.6460599 C25.9032839,14.0822786 26.0101182,13.5206137 26.1553791,12.9627581 C26.9116646,13.9142447 27.6704838,14.8644616 28.4445047,15.8028272 C27.6062988,15.3854937 26.7503575,14.9944022 25.8673909,14.6460599 Z M16.2404797,46.7849767 C13.9327742,49.6085388 11.3459482,52.2924253 8.28406853,54.2906319 C4.46590327,56.782782 2.13032796,52.7956805 2.73586312,49.2640058 C3.15433268,46.8239166 5.56296071,44.5586334 7.12704875,42.8528988 C11.9514834,37.5917871 17.1479379,33.3503067 21.3098309,27.5017113 C22.351571,26.0376577 27.2232999,20.5335952 27.7861858,17.4145982 C30.4587325,19.1973659 32.8884741,21.2552521 35.0682318,23.5573589 C27.4416135,30.1555464 22.5589056,39.0541476 16.2404797,46.7849767 Z M32.1824386,18.0101239 C30.2425303,15.975517 28.3414708,13.9248262 26.5164199,11.8339258 C26.802719,11.0923757 27.1988082,10.3766444 27.6388135,9.67657371 C36.5254855,20.0684334 45.006356,30.9986787 54.898875,40.4585216 C54.0999402,40.8394549 53.2980495,41.203881 52.494892,41.5323302 C51.9358065,41.0489682 51.3788324,40.5609503 50.8569067,40.041188 C50.852684,39.9679642 50.8357932,39.8934706 50.7906103,39.82067 C48.5572243,36.2492089 45.9294382,32.9338197 43.1395003,29.7310174 C40.295512,25.0171798 36.6204962,21.0055292 32.1824386,18.0101239 Z M48.9875174,42.8122659 C48.5200646,40.825064 47.7650458,38.8010386 46.9002369,36.8557394 C47.1573993,37.150751 47.4090722,37.4499953 47.6653901,37.7462767 C48.0564121,38.4074076 48.4791044,39.0511848 48.9583808,39.6534826 C49.5736282,40.4267771 50.261506,41.3122354 51.0258147,42.1049998 C50.5444269,42.2827687 50.0621946,42.4647702 49.5833404,42.6230691 C49.5791177,42.6239156 49.5757395,42.6184132 49.5715168,42.619683 C49.3764281,42.6831719 49.1817616,42.7479305 48.9875174,42.8122659 Z M68.491746,34.9358357 C63.5562544,39.5210025 56.4975892,45.3509746 49.5132436,46.4290157 C49.4971973,45.8559228 49.4283673,45.268439 49.3460247,44.6775692 C50.8319928,44.6881507 52.3086709,44.4303858 53.7587461,43.9927358 C53.8419333,43.9846939 53.9200532,43.9635309 53.9880387,43.9245911 C58.9910935,42.3428715 63.6533765,38.5297295 67.1721523,35.2219589 C72.340737,30.3629434 77.1900856,23.2746217 77.0857849,15.8993303 C77.284674,15.8375345 77.4873636,15.7918225 77.684986,15.7270638 C77.8640285,15.6682308 78.0059112,15.583579 78.1287918,15.4883457 C81.6142083,22.5381507 73.1637412,30.5948894 68.491746,34.9358357 Z" id="Shape"></path>
            </g>
        </g>
    </g>
</svg>