<?xml version="1.0" encoding="UTF-8"?>
<svg width="80px" height="65px" viewBox="0 0 80 65" version="1.1" xmlns="http://www.w3.org/2000/svg" xmlns:xlink="http://www.w3.org/1999/xlink">
    <!-- Generator: Sketch 54.1 (76490) - https://sketchapp.com -->
    <title>chatting-speech-bubbles-hand-drawn-bubbles-couple</title>
    <desc>Created with Sketch.</desc>
    <g id="v4" stroke="none" stroke-width="1" fill="none" fill-rule="evenodd">
        <g id="Stovyklos-individualus_puslapis" transform="translate(-741.000000, -2021.000000)" fill="#F0764B" fill-rule="nonzero">
            <g id="chatting-speech-bubbles-hand-drawn-bubbles-couple" transform="translate(742.000000, 2022.000000)">
                <path d="M77.9152859,52.3244222 C76.9501029,50.4958504 75.6626391,48.8357218 74.4921422,47.1395581 C73.6808409,45.9633892 70.5712676,42.3401858 71.2149994,40.7362049 C71.5115641,40.8237785 71.8579018,40.7688879 72.0881023,40.4579804 C86.7284397,20.696919 63.0157136,-11.9320248 40.9869768,4.45807889 C38.1494963,6.56948426 35.7935704,9.55159817 34.0668592,12.9376404 C26.0305803,6.63107914 10.1716318,5.11509092 3.59121555,14.4465054 C-0.33256246,20.010995 -1.01901622,27.3877149 1.42401258,33.7571281 C2.54100351,36.6680098 4.84051992,42.9314128 8.51833595,43.6831217 C6.7688121,49.9163557 4.65096743,55.9857558 1.92672071,61.8619909 C1.58038301,62.6090907 2.46302568,63.4006058 3.09348473,62.7716676 C7.61371018,58.2614141 12.4408696,54.0763146 16.7002012,49.3033401 C16.717207,49.2840655 16.7205252,49.2626958 16.7354571,49.2434212 C22.5074756,51.6724383 28.1181463,51.7252339 33.954455,49.3523645 C36.0818395,48.4875222 39.7808091,46.5365987 39.8674972,43.8951422 C46.1318545,49.1608757 54.55346,50.810529 62.5474319,46.0195369 C63.4429326,47.2137233 66.0821503,48.1883471 66.8474114,48.5943704 C70.1465373,50.3450058 73.5547491,52.1693874 77.0778538,53.4239117 C77.7273925,53.6547877 78.2002368,52.8636916 77.9152859,52.3244222 Z M29.9373525,49.1667419 C25.3735756,50.4966884 20.7517301,49.2492874 16.3061643,48.0199039 C16.2866698,48.0144568 16.2725674,48.0295412 16.253073,48.0270271 C16.0519068,47.990154 15.8366382,48.0387595 15.6528926,48.2453328 C12.2504876,52.056254 8.49137553,55.4976059 4.81065607,59.0235984 C6.96707488,53.992093 8.76595704,48.8139331 9.73487305,43.4019641 C9.85183979,43.1044651 9.76266302,42.7168783 9.39143878,42.5878223 C5.71196365,41.3043862 3.7388757,35.6611222 2.45182674,32.3035728 C0.162264936,26.3301267 1.60734343,18.7816116 5.86211244,14.1661859 C12.9336232,6.495319 25.7584874,9.1359375 33.5724466,13.9198063 C32.427251,16.3961718 31.6317112,19.0627691 31.2297935,21.7557642 C31.1356395,21.7079968 31.0277978,21.6753138 30.8963139,21.6769898 C23.2909869,21.7637255 15.7221601,21.0007032 8.12305472,21.0245869 C7.42954977,21.026682 7.45236243,22.0369218 8.12305472,22.0955836 C15.6657506,22.7555287 23.3216803,23.4632413 30.8963139,23.126774 C30.9680701,23.1234219 31.0244796,23.0987002 31.0850368,23.0802636 C30.7507276,26.4487073 31.0410706,29.816313 32.1244647,32.866726 C24.5863313,32.8172825 17.0498571,32.6220225 9.51172373,32.5897585 C8.90200346,32.5868254 8.91444673,33.4960831 9.51172373,33.5367274 C17.2477051,34.0609124 24.9928115,34.3684677 32.747043,34.3718198 C34.1630872,37.4901129 36.0880612,40.2522451 38.3672536,42.5157521 C38.3473444,42.5962026 38.3394636,42.6812622 38.3510773,42.7692549 C38.8770129,46.6928905 32.7370884,48.350924 29.9373525,49.1667419 Z M68.6823791,47.8820487 C67.2281755,47.1546425 65.7806084,46.4067047 64.3562687,45.6210558 C64.2695805,45.5732883 63.8319922,45.3549827 63.4445917,45.1798353 C63.4628418,44.7402909 63.02235,44.2982325 62.5146646,44.5751999 C49.999223,51.3916997 37.6235608,44.3547992 33.2808593,31.4605191 C29.7693683,21.0325482 36.1739197,8.96749437 44.9240277,3.60413086 C65.6735962,-9.11458289 82.571143,23.8076698 70.7989794,39.6957962 C70.796076,39.6991483 70.796076,39.7029194 70.7935873,39.7058525 C70.5360116,39.6287541 70.2315663,39.6953771 70.0034397,39.9987424 C68.919216,41.4414034 70.6670808,43.9093886 71.382154,45.1065081 C72.6393392,47.2116283 74.191015,49.1411821 75.5203711,51.203144 C73.1922351,50.2125978 70.9296338,49.005841 68.6823791,47.8820487 Z" id="Shape" stroke="#F0764B"></path>
                <path d="M67.0335855,31.8496416 C64.4614174,33.2891008 58.4506358,31.4346274 55.7338511,31.1592441 C51.1236765,30.692838 46.2338821,29.6363941 41.6011372,30.1270417 C40.8141056,30.2104324 40.7852659,31.5645617 41.6011372,31.5718342 C47.0317808,31.6203171 52.5042211,32.5676743 57.9093687,33.1169863 C59.8696333,33.3162513 66.4329671,35.1619979 67.8862379,32.8372396 C68.2870681,32.1958099 67.5389074,31.5669859 67.0335855,31.8496416 Z" id="Path"></path>
                <path d="M67.4726278,27.2398642 C67.2201497,27.1772742 66.9705783,27.1083902 66.7222527,27.0332122 C65.9897338,26.8220146 65.6994669,27.674148 66.234322,28.0080779 C64.7040883,27.0520941 58.6471036,27.3944161 55.2984456,27.4087523 C50.708575,27.4283335 46.1187044,27.4671463 41.5300796,27.5542129 C40.8233068,27.5675002 40.8233068,28.4643906 41.5300796,28.4776779 C46.7710781,28.5773324 52.014153,28.6091519 57.2563973,28.6315304 C59.2787143,28.640272 66.499258,29.6522022 67.7998528,28.2843132 C68.1465951,27.9196127 68.0461021,27.3895207 67.4726278,27.2398642 Z" id="Path"></path>
                <path d="M67.2741517,20.3421198 C62.2065572,20.4519903 57.1465269,19.4359197 52.0915394,19.1464712 C49.2608473,18.9844354 44.0726458,18.4549339 42.0597278,21.2866361 C41.9181092,21.4860647 42.0408173,21.8082897 42.2963192,21.733504 C50.6644268,19.2863483 58.7951025,22.1748322 67.2741517,21.991561 C68.2411088,21.9707871 68.2427897,20.3208844 67.2741517,20.3421198 Z" id="Path"></path>
                <path d="M30.6308737,27.3412922 C27.8446559,26.6047603 24.1995847,27.2708446 21.3324753,27.3957121 C17.3848864,27.5675447 13.4315194,27.7908152 9.49218464,28.0789424 C8.84546515,28.1262802 8.8264804,29.0048256 9.49218464,28.99998 C13.4381228,28.9727701 17.3894262,28.8367204 21.3324753,28.6984343 C24.2491101,28.5963039 27.8297982,29.0133986 30.6308737,28.2399655 C31.1186991,28.1050341 31.127366,27.4724963 30.6308737,27.3412922 Z" id="Path"></path>
            </g>
        </g>
    </g>
</svg>