<?xml version="1.0" encoding="UTF-8"?>
<svg width="26px" height="28px" viewBox="0 0 26 28" version="1.1" xmlns="http://www.w3.org/2000/svg" xmlns:xlink="http://www.w3.org/1999/xlink">
    <!-- Generator: Sketch 54.1 (76490) - https://sketchapp.com -->
    <title>company-details</title>
    <desc>Created with Sketch.</desc>
    <g id="v4" stroke="none" stroke-width="1" fill="none" fill-rule="evenodd">
        <g id="Kontaktai" transform="translate(-874.000000, -626.000000)">
            <g id="company-details" transform="translate(875.000000, 626.000000)">
                <g id="noun_hand-drawn-house_698184">
                    <g id="Group" opacity="0.2" transform="translate(3.260870, 0.000000)"></g>
                    <g id="Group" fill="#A0A0A0" fill-rule="nonzero" stroke="#A0A0A0" stroke-width="0.5">
                        <path d="M0.217701863,15.9758183 C0.177950311,17.4429043 0.367391304,18.9133488 0.388198758,20.3801295 C0.410869565,21.9781998 0.80310559,23.5771861 0.576708075,25.1746458 C0.413043478,26.3293845 1.91417769,26.6200808 2.07939509,25.4540451 C2.52597894,22.3015659 1.75270501,19.0070178 1.73282924,15.8227848 C1.71450626,12.8599123 2.30643172,10.1722728 1.73282924,7.22344524 C1.5073634,6.06412672 0.0416149068,6.49334392 0.266149068,7.64747191 C0.798447205,10.383488 0.292546584,13.2187347 0.217701863,15.9758183 Z" id="Path"></path>
                        <path d="M21.8336484,7.56741882 C21.8389279,10.5800593 22.1510217,13.8423704 22.1802142,16.8547056 C22.2075434,19.6923949 22.2369565,22.4432096 21.6170807,25.2512824 C22.2270186,25.3324988 22.8369565,25.4137152 23.447205,25.4946263 C23.447205,25.3929531 23.447205,25.2909746 23.447205,25.1893014 C23.447205,24.0079995 21.4870825,23.9287696 21.4870825,25.1100715 C21.4870825,25.2117447 21.5838509,25.3929531 21.5838509,25.4946263 C21.5838509,26.5116634 23.1872671,26.7653884 23.4139752,25.7379702 C24.0332298,22.933256 23.7285714,20.085491 23.6204969,17.246275 C23.4996894,14.0757816 23.5304348,10.8823889 23.5251553,7.70945286 C23.5229814,6.52815095 21.6596273,6.52784563 21.6614907,7.70945286 L21.8336484,7.56741882 Z" id="Path"></path>
                        <path d="M1.73282924,7.56741882 C5.41450626,6.02430695 8.38850032,3.2202343 12.1298047,1.71986791 C13.2270096,1.27989478 12.8217391,-0.108390327 11.7086957,0.337994626 C9.67763975,1.15260137 7.80496894,2.20383488 5.95465839,3.3558256 C4.28540373,4.39484612 2.67453416,5.61919883 0.849689441,6.38403762 C-0.252484472,6.84629946 0.697826087,8.42391304 1.79006211,7.96592574 L1.73282924,7.56741882 Z" id="Path"></path>
                        <path d="M16.6351607,4.81563016 C18.3705644,5.96090373 20.4534161,6.72020029 22.0897516,8.05172203 C23.007764,8.79885198 24.3338509,7.51038105 23.4071429,6.75653395 C21.7580745,5.41463117 19.742236,4.87664875 17.8649068,3.93288959 C15.9108696,2.95035418 14.6124224,1.08451392 12.3593168,0.643319492 C11.1863354,0.413409868 10.9518544,1.8330159 12.1298047,2.0638415 C13.9782519,2.42565146 15.1218066,3.81691252 16.6351607,4.81563016 Z" id="Path"></path>
                        <path d="M22.607764,26.3779311 C23.7854037,26.1452736 23.3535062,24.5343564 22.1802142,24.766098 C15.5404627,26.0777736 8.77132055,24.7751302 2.07939509,25.1100715 C0.88405347,25.1696099 0.817080745,26.5470811 2.01863354,26.4869321 C8.89440994,26.1431363 15.778882,27.7271617 22.607764,26.3779311 Z" id="Path"></path>
                        <path d="M8.66414619,16.510732 C8.45710685,16.7142819 8.45710685,16.8289397 8.66414619,16.8547056 C11.5328622,16.6852335 13.7277793,16.5705756 15.2488973,16.510732 C14.9383383,16.2054071 14.8663246,16.4720833 14.5557656,16.1667584 C14.5568908,19.7060147 14.4961383,22.5615751 14.5557656,25.7980187 C14.5775047,26.9780993 15.7049689,26.943215 15.6832298,25.7613024 C15.6236025,22.5248589 16.1226708,19.3052081 16.0714286,16.0672379 C16.0639752,15.583298 15.6534161,15.1311119 15.1397516,15.1512633 C12.8580745,15.2410289 10.5847826,15.4538403 8.30745342,15.6092506 C7.77888199,15.645279 7.40496894,15.9997612 7.3757764,16.5252252 C7.2189441,19.3467323 7.14751553,22.1728193 7.22049689,24.9979903 C7.25093168,26.1771549 8.69489153,26.2922894 8.66414619,25.1100715 C8.59116482,22.2849006 8.50731389,19.3322391 8.66414619,16.510732 Z" id="Path"></path>
                    </g>
                </g>
            </g>
        </g>
    </g>
</svg>