<?xml version="1.0" encoding="UTF-8"?>
<svg width="64px" height="71px" viewBox="0 0 64 71" version="1.1" xmlns="http://www.w3.org/2000/svg" xmlns:xlink="http://www.w3.org/1999/xlink">
    <!-- Generator: Sketch 55.2 (78181) - https://sketchapp.com -->
    <title>noun_Compassion_2051406</title>
    <desc>Created with Sketch.</desc>
    <g id="v5" stroke="none" stroke-width="1" fill="none" fill-rule="evenodd">
        <g id="Camping-event-individual-page-sirsiu-lizdas" transform="translate(-165.000000, -2156.000000)" stroke="#F07B52" stroke-width="2">
            <g id="noun_Compassion_2051406" transform="translate(166.000000, 2157.000000)">
                <g id="Group">
                    <path d="M61.0774917,51.3589425 C60.1678105,49.7710174 58.6616726,48.61362 56.8948167,48.14475 C55.0916194,47.6647848 53.1712955,47.9351201 51.57005,48.8943487 L43.2768611,54.4619587 C42.7537766,54.753529 42.1650654,54.906592 41.5664361,54.9066637 L40.4093611,54.9066637 C41.6417035,52.7723742 41.6428765,50.1415227 40.4124378,48.0061315 C39.1819991,45.8707403 36.9071081,44.555619 34.4455639,44.5566631 L13.8496806,44.5566631 C12.5581776,44.5610812 11.2939092,44.9289503 10.2010667,45.618315 C9.93424764,44.9754972 9.30744044,44.5566631 8.61240278,44.5566631 L1.72351389,44.5566631 C1.2666681,44.5566631 0.82845472,44.7381275 0.50541591,45.0616873 C0.1823771,45.3852472 0.00129135584,45.8241674 0.00129135584,46.28175 L0.00129135584,66.98175 C0.00129135584,67.4393256 0.182407335,67.8782325 0.505441181,68.2017873 C0.828475027,68.5253422 1.26667511,68.7070019 1.72351389,68.70675 L8.61240278,68.70675 C9.3074893,68.7068375 9.93431991,68.2879134 10.2010667,67.6450125 C11.293927,68.3343478 12.5581785,68.7022418 13.8496806,68.70675 L42.8782528,68.70675 C45.239927,68.8722234 47.5830588,68.1882863 49.4862472,66.7779412 L58.5564167,60.7857225 C61.845898,58.8755606 62.9732169,54.6603003 61.0774917,51.3589425 Z" id="Path" fill-rule="nonzero"></path>
                    <path d="M30.3620028,37.5338438 C30.7723742,37.6977183 31.2298647,37.6977183 31.6402361,37.5338438 C41.2855417,33.6698438 51.6676139,24.5020725 51.6676139,13.5070088 C51.6676139,7.8468525 48.8875167,3.17563875 44.4104278,1.31919375 C40.1436222,-0.45462375 35.2309833,0.653775 31.0011194,4.26031875 C26.7712556,0.653775 21.8519,-0.45462375 17.591725,1.319625 C13.1147222,3.17563875 10.334625,7.8468525 10.334625,13.50675 C10.334625,24.5020725 20.7166111,33.6694125 30.3620028,37.5338438 Z" id="Path" fill-rule="nonzero"></path>
                    <path d="M10,46 L10,69" id="Path-2"></path>
                </g>
                <path d="M40,55 L24,55" id="Path-3"></path>
            </g>
        </g>
    </g>
</svg>