<?xml version="1.0" encoding="UTF-8"?>
<svg width="70px" height="64px" viewBox="0 0 70 64" version="1.1" xmlns="http://www.w3.org/2000/svg" xmlns:xlink="http://www.w3.org/1999/xlink">
    <!-- Generator: Sketch 55.2 (78181) - https://sketchapp.com -->
    <title>challenges</title>
    <desc>Created with Sketch.</desc>
    <g id="v5" stroke="none" stroke-width="1" fill="none" fill-rule="evenodd">
        <g id="Camping-event-individual-page-w-komanda" transform="translate(-158.000000, -1954.000000)" fill="#F0764B" fill-rule="nonzero">
            <g id="challenges" transform="translate(158.000000, 1954.000000)">
                <path d="M69.6749436,60.6456291 L54.9615371,36.6519937 C54.5591736,35.9960169 53.8606771,35.6043787 53.0930009,35.6043787 C52.3254614,35.6043787 51.6269649,35.9961541 51.2248749,36.6519937 L49.3146394,39.7671292 C49.0174127,40.2517729 49.1680769,40.8864874 49.6511045,41.1847086 C50.1344055,41.4827926 50.7667301,41.3317616 51.0640935,40.8471179 L52.974329,37.7318452 C52.9844462,37.715384 53.0152079,37.6651775 53.0932743,37.6651775 C53.1713408,37.6651775 53.2022392,37.715384 53.2123564,37.7318452 L67.925763,61.7254806 C67.9375208,61.7445481 67.9686927,61.7954405 67.9287708,61.8671836 C67.8888489,61.9389268 67.8292395,61.9389268 67.8068176,61.9389268 L59.6583756,61.9389268 L36.8683045,24.775411 C36.6636364,24.441524 36.3819956,24.1766367 36.0537337,23.9965243 C36.0541439,23.9966614 36.054554,23.9969358 36.0548275,23.997073 L36.0548275,17.0038276 C36.9094569,17.2363414 37.7419378,17.335657 38.5563718,17.335657 C40.8986387,17.335657 43.0920188,16.5187724 45.2378208,15.7195836 C48.2111818,14.6121597 51.0196599,13.5661908 54.0572788,14.7884312 C54.4489782,14.9460467 54.8916738,14.8985837 55.2412638,14.6612688 C55.5914007,14.4236795 55.8003071,14.0287491 55.8003071,13.6048745 L55.8003071,1.96450928 C55.8003071,1.4514701 55.496928,0.990420715 55.0278457,0.790143388 C51.1719647,-0.859675393 47.7917285,0.399053894 44.5229181,1.61635595 C41.4606898,2.75683931 38.5684031,3.83408442 35.4190849,2.4218549 C35.1012137,2.27932878 34.7333033,2.30813579 34.4412719,2.49798772 C34.1492405,2.68797683 33.9730099,3.0133589 33.9730099,3.36260964 L33.9730099,3.40088181 C33.9553732,3.47756334 33.945256,3.55698839 33.945256,3.63901979 L33.945256,23.997073 C33.617541,24.1771854 33.3361736,24.4419356 33.1316423,24.775411 L22.3118512,42.4194321 L18.7752086,36.6521309 C18.3729818,35.9961541 17.6744853,35.6045159 16.9068091,35.6045159 C16.1392697,35.6045159 15.4407732,35.9961541 15.0385464,36.6521309 L0.325003154,60.6456291 C-0.0910322307,61.3239657 -0.108805678,62.1773391 0.278382035,62.8726856 C0.665569748,63.568032 1.39933968,64 2.1932659,64 L67.8066809,64 C68.6006071,64 69.334377,63.568032 69.7215647,62.8726856 C70.1088892,62.1773391 70.090979,61.3238285 69.6749436,60.6456291 Z M36.0270736,4.82559436 C39.3516652,5.74055996 42.3377411,4.62847209 45.2378208,3.54834628 C48.1068653,2.47974328 50.825109,1.4676569 53.7463802,2.50004537 L53.7463802,12.5118541 C50.411808,11.5944193 47.4227243,12.7077418 44.5230548,13.7875932 C41.6587954,14.8542758 38.9431494,15.8656763 36.0270736,14.8364429 L36.0270736,4.82559436 Z M12.753428,61.939064 L16.2768088,56.1934367 C16.5740355,55.708793 16.4233714,55.0740785 15.9403438,54.7758573 C15.4571794,54.4777733 14.8247182,54.6288044 14.5274914,55.1134481 L10.3418446,61.939064 L2.19340262,61.939064 C2.17098073,61.939064 2.11137132,61.939064 2.07144943,61.8673208 C2.03152753,61.7955776 2.0625627,61.7448224 2.07445724,61.7256177 L16.7880005,37.7321195 C16.7981177,37.7156584 16.8288794,37.6654519 16.9069459,37.6654519 C16.9850123,37.6654519 17.015774,37.7156584 17.0258912,37.7321195 L21.1061279,44.3857165 L17.0320436,51.0292995 C16.7348169,51.5139432 16.885481,52.1486577 17.3685086,52.4468789 C17.8518097,52.7451001 18.4842709,52.5939318 18.781361,52.1092881 L34.8810964,25.8552625 C34.8912136,25.8388013 34.9219753,25.7885948 35.0000417,25.7885948 C35.0779715,25.7885948 35.1087332,25.8388013 35.1189871,25.8552625 L57.2466555,61.939064 L12.753428,61.939064 L12.753428,61.939064 Z" id="Shape"></path>
            </g>
        </g>
    </g>
</svg>