<?xml version="1.0" encoding="UTF-8"?>
<svg width="81px" height="47px" viewBox="0 0 81 47" version="1.1" xmlns="http://www.w3.org/2000/svg" xmlns:xlink="http://www.w3.org/1999/xlink">
    <!-- Generator: Sketch 55.2 (78181) - https://sketchapp.com -->
    <title>group</title>
    <desc>Created with Sketch.</desc>
    <g id="v5" stroke="none" stroke-width="1" fill="none" fill-rule="evenodd">
        <g id="Camping-event-individual-page-w-komanda" transform="translate(-154.000000, -1739.000000)" fill="#F0764B" fill-rule="nonzero">
            <g id="group" transform="translate(154.000000, 1739.000000)">
                <g id="Group">
                    <path d="M26.7336,3.52861538 C29.736,3.52861538 32.1786,5.98165385 32.1786,8.99688462 C32.1786,9.58348077 32.0841,10.1474808 31.9131,10.6771346 L34.6905,10.6771346 C34.8039,10.1348269 34.8642,9.57263462 34.8642,8.99688462 C34.8642,4.48669231 31.2237,0.830634615 26.7327,0.830634615 C22.2417,0.830634615 18.6012,4.48669231 18.6012,8.99688462 C18.6012,9.57353846 18.6624,10.1348269 18.7749,10.6771346 L21.5523,10.6771346 C21.3813,10.1474808 21.2868,9.58257692 21.2868,8.99688462 C21.2877,5.98165385 23.7312,3.52861538 26.7336,3.52861538 Z" id="Path"></path>
                    <path d="M54.2664,0.830634615 C49.7754,0.830634615 46.1349,4.48669231 46.1349,8.99688462 C46.1349,9.57353846 46.1961,10.1348269 46.3086,10.6771346 L49.086,10.6771346 C48.915,10.1474808 48.8205,9.58257692 48.8205,8.99688462 C48.8205,5.98165385 51.2631,3.52861538 54.2655,3.52861538 C57.2679,3.52861538 59.7105,5.98165385 59.7105,8.99688462 C59.7105,9.58348077 59.616,10.1474808 59.445,10.6771346 L62.2224,10.6771346 C62.3358,10.1348269 62.3961007,9.57263462 62.3961007,8.99688462 C62.3979,4.48759615 58.7574,0.830634615 54.2664,0.830634615 Z" id="Path"></path>
                    <path d="M12.9672,16.7555 C12.8754,16.7555 12.7863,16.7663462 12.6954,16.7690577 C8.3313,16.9145769 4.8357,20.50375 4.8357,24.92175 C4.8357,29.4319423 8.4762,33.088 12.9672,33.088 C17.4582,33.088 21.0987,29.4319423 21.0987,24.92175 C21.0987,23.4584231 20.7108,22.0881923 20.0394,20.9005385 C18.6417,18.4276154 16.0011,16.7555 12.9672,16.7555 Z M12.9672,30.3909231 C9.9648,30.3909231 7.5222,27.9378846 7.5222,24.9226538 C7.5222,21.9074231 9.9648,19.4543846 12.9672,19.4543846 C15.9696,19.4543846 18.4122,21.9074231 18.4122,24.9226538 C18.4122,27.9378846 15.9696,30.3909231 12.9672,30.3909231 Z" id="Shape"></path>
                    <path d="M2.6865,46.1693654 C2.6865,42.2222692 5.8842,39.0109038 9.8145,39.0109038 L16.1199,39.0109038 C20.0493,39.0109038 23.247,42.2222692 23.247,46.1693654 L24.5898,46.1693654 L25.9326,46.1693654 C25.9326,40.7345385 21.5298,36.3138268 16.119,36.3138268 L9.8136,36.3138268 C4.4028,36.3129231 0,40.7345385 0,46.1693654 L1.3437,46.1693654 L2.6865,46.1693654 Z" id="Path"></path>
                    <path d="M48.6315,24.92175 C48.6315,23.4584231 48.2436,22.0881923 47.5722,20.9005385 C46.1745,18.4276154 43.5339,16.7555 40.5,16.7555 C37.4661,16.7555 34.8255,18.4276154 33.4278,20.9005385 C32.7564,22.0881923 32.3685,23.4584231 32.3685,24.92175 C32.3685,29.4319423 36.009,33.0880002 40.5,33.0880002 C44.991,33.0889038 48.6315,29.4319423 48.6315,24.92175 Z M35.055,24.92175 C35.055,21.9065192 37.4976,19.4534808 40.5,19.4534808 C43.5024,19.4534808 45.945,21.9065192 45.945,24.92175 C45.945,27.9369808 43.5024,30.3900192 40.5,30.3900192 C37.4976,30.3900192 35.055,27.9378846 35.055,24.92175 Z" id="Shape"></path>
                    <path d="M27.5337,46.1693654 L28.8774,46.1693654 L30.2202,46.1693654 C30.2202,42.2222692 33.4179,39.0109038 37.3482,39.0109038 L43.6527,39.0109038 C47.583,39.0109038 50.7807,42.2222692 50.7807,46.1693654 L52.1235,46.1693654 L53.4672,46.1693654 C53.4672,40.7345385 49.0644,36.3138268 43.6527,36.3138268 L37.3482,36.3138268 C31.9356,36.3129231 27.5337,40.7345385 27.5337,46.1693654 Z" id="Path"></path>
                    <path d="M59.9013,24.92175 C59.9013,29.4319423 63.5418,33.088 68.0328,33.088 C72.5238,33.088 76.1643,29.4319423 76.1643,24.92175 C76.1643,20.50375 72.6687,16.9145769 68.3046,16.7690577 C68.2137,16.7663462 68.1246,16.7555 68.0328,16.7555 C64.9989,16.7555 62.3583,18.4276154 60.9606,20.9005385 C60.2901,22.0890962 59.9013,23.4593269 59.9013,24.92175 Z M68.0328,19.4534808 C71.0352,19.4534808 73.4778,21.9065192 73.4778,24.92175 C73.4778,27.9369808 71.0352,30.3900192 68.0328,30.3900192 C65.0304,30.3900192 62.5878,27.9369808 62.5878,24.92175 C62.5878,21.9065192 65.0304,19.4534808 68.0328,19.4534808 Z" id="Shape"></path>
                    <path d="M71.1855,36.3129231 L64.8801,36.3129231 C59.4693,36.3129231 55.0665,40.7345385 55.0665,46.1684615 L56.4093,46.1684615 L57.7521,46.1684615 C57.7521,42.2213654 60.9498,39.01 64.8792,39.01 L71.1846,39.01 C75.1149,39.01 78.3126,42.2213654 78.3126,46.1684615 L79.6554,46.1684615 L81,46.1684615 C81,40.7345385 76.5972,36.3129231 71.1855,36.3129231 Z" id="Path"></path>
                </g>
            </g>
        </g>
    </g>
</svg>