<svg width="3733" height="5280" viewBox="0 0 3733 5280" fill="none" xmlns="http://www.w3.org/2000/svg">
<path d="M3241.64 2055.91C3228.16 2080.95 3226.29 2073.45 3201.23 2062.51C3150.34 2040.27 3061.44 2039.07 3019.09 2050.31C2991.43 2063.77 3032.48 1992.2 3093.57 1971.72C3116.3 1969.35 3177.02 2002.39 3197.88 2012.39C3216.59 2021.35 3236.26 2028.4 3256.74 2036.77C3255.03 2041.03 3244.45 2050.7 3241.64 2055.91V2055.91ZM2928.43 2495.27L2786.1 2637.73L2723.12 2574.69C2717.65 2577.88 2712.16 2581.03 2706.63 2584.12C2701.01 2587.26 2695.57 2590.51 2690.29 2593.85L2994.47 2898.3H2354.41L1984.85 2528.42C1965.22 2539.75 1945.99 2552.63 1928.06 2567.18C2053.68 2692.91 2179.29 2818.64 2304.9 2944.37L2306.64 2946.11V3586.74L1876.43 3156.15L1446.22 3586.74V3028.92C1326.03 3106.07 1185.73 3309.16 1185.73 3309.16C1185.73 3309.16 1110.51 3418.66 1108.88 3420.1L1027.63 3450.85C1024.99 3447.59 1024.3 3446.73 1021.66 3443.47C1021.66 3443.47 997.441 3392.38 1031.47 3353.59C1037.08 3347.2 1039.57 3339.6 1040.49 3336.01C1037.35 3340.24 1023.42 3349.55 998.078 3358.7C1016.18 3337.44 1025.67 3322.04 1028.57 3308C1024.05 3315.8 1012.28 3325.11 999.256 3322.41C1016.19 3311.29 1079.77 3259.91 1080.17 3259.33C1095.21 3238.05 1084.91 3239.59 1113.35 3191.96L1259.78 3092.02C1259.78 3092.02 1125.47 3172.4 1126.43 3170.9C1084.94 3203.21 1069.9 3178.93 896.084 3426.58L840.335 3534.9L737.977 3568.28C735.34 3565.01 734.65 3564.15 732.014 3560.89C732.014 3560.89 728.339 3462.71 783.08 3440.56C758.689 3425.71 699.403 3468 675.893 3454.33C702.304 3453.96 717.596 3436.63 740.723 3423.86C732.889 3419.31 692.116 3415.56 657.615 3447.32C673.427 3397 747.809 3375.55 747.809 3375.55C747.809 3375.55 741.474 3363.05 686.131 3385.28C717.201 3350.8 798.613 3342.17 795.33 3329.78C782.944 3333.06 764.37 3337.99 751.985 3341.28C777.511 3314.99 824.412 3321.3 837.521 3283.48C838.111 3282.3 839.062 3280.39 839.652 3279.21L1002.78 3048.36C1017.25 3024.78 1040.73 3008.55 1067.58 3001.94C1092.43 2995.82 1147.56 2973.85 1198.46 2929.05C1208.62 2920.12 1218.85 2909.78 1229.1 2898.29L1118.66 2898.29C1025.87 2961.42 905.745 3019.36 788.405 3132.62C793.352 3097.67 793.481 3079.17 842.967 3037.04C842.128 3036.84 811.663 3035.72 768.707 3058.25C806.825 2997 862.443 2965.94 855.915 2962.15C838.468 2963.67 824.585 2973.5 795.637 2995.45C813.432 2962.55 832.844 2941.96 866.284 2926.23C858.449 2921.68 833.952 2932.75 804.031 2954.95C819.279 2934.32 831.1 2916.98 849.353 2898.3L772.712 2898.3L758.393 2898.3L1188.6 2467.71L758.393 2037.12H1398.45L1400.19 2038.86L1582.16 2220.98C1602.23 2207.32 1621.42 2194.66 1639.69 2182.95L1447.96 1991.05L1446.22 1989.31V1348.68L1876.43 1779.27L2306.64 1348.68V1710.23C2342.12 1705.66 2396.07 1702.94 2397.36 1702.73C2397.39 1702.72 2397.43 1702.72 2397.43 1702.72C2584.53 1713.51 2732.84 1706.25 2813.47 1722.32C2807.83 1705.59 2805.21 1697.61 2795.25 1655.3C2869.48 1671.21 2909.64 1683.72 2951.79 1708.52C2960.33 1703.78 2968.23 1700.75 2978.99 1697.33L3140.62 1769.48L3167.53 1807.42C3167.53 1807.42 3188.73 1879.74 3230.5 1890.36C3278.2 1902.48 3323.49 1924.53 3369.21 1943.74C3385.21 1950.46 3386.18 1967.05 3378.43 1979.54C3375.85 1983.69 3373.25 1987.83 3370.61 1991.93C3369.02 1994.39 3365.63 1994.92 3363.33 1993.11C3354.9 1986.44 3353.1 1984.81 3349.54 1981.97C3355.42 1992.61 3363.72 1994.95 3364.93 1995.25C3364.96 1995.34 3364.96 1995.33 3364.99 1995.42C3345.91 2023.94 3347.66 2038.15 3311.94 2048.96C3308.14 2050.11 3303.63 2052.4 3300.19 2050.93C3297.4 2049.73 3294.66 2048.88 3291.95 2048.17L3272.82 2057.56C3272.82 2057.56 3279.89 2046.43 3277.68 2046.49C3257.26 2047.1 3240.28 2060.41 3230.62 2075.72C3257.63 2088.69 3286.65 2100.78 3306.95 2128.3C3307.14 2133.8 3277.92 2147.8 3255.3 2157.34C3127.46 2102.69 3001.77 2100.06 2926 2105.64L2719.44 2312.39C2728.46 2313.94 2743.98 2316.65 2763.63 2320.18L2786.1 2297.69L2790.29 2301.89L2818.71 2330.33C2913.78 2348.27 3040.17 2374.49 3060 2390.46C3077.08 2404.21 3114.93 2414.53 3119.83 2435.26C3120.92 2447.78 3127.62 2462.43 3120.23 2473.12C3112.18 2484.77 3104.33 2499.57 3089.1 2499.21C3073.87 2498.84 3062.27 2505.36 3045.62 2504.02C3036.84 2503.32 3029.21 2505.28 3023.16 2497.81C3019.54 2493.34 3017.81 2487.8 3013.79 2483.38C3008.36 2477.4 3000.35 2481.54 2998.61 2487.51C2994.67 2489.46 2990.56 2491.49 2986.03 2493.74C2980.54 2484.28 2974.72 2474.26 2968.82 2464.09C2968.32 2463.25 2967.82 2462.4 2967.32 2461.55C2966.87 2460.63 2966.53 2459.95 2966.23 2459.37C2965.92 2458.8 2965.65 2458.34 2965.34 2457.87C2965.51 2457.89 2962.04 2454.17 2962.34 2454.06C2961.82 2454.32 2961.24 2454.61 2960.58 2454.96C2957.31 2457.3 2953.6 2459.4 2949.65 2461.38L2951.77 2463.51L2953.87 2465.61C2956.68 2465.38 2959.65 2465.58 2962.83 2466.36C2963.48 2466.86 2964.36 2467.56 2965 2468.06C2972.28 2481.45 2979.35 2494.45 2985.5 2505.76C2987.23 2504.27 2993.99 2499.47 2999.71 2494.43C2999.99 2494.84 3000.26 2495.26 3000.63 2495.66C3011.7 2507.85 3018.86 2513.73 3039.01 2512.8C3051.13 2512.24 3060.68 2507.33 3073.03 2505.43C3089.78 2502.87 3100.73 2507.55 3112.21 2505C3128.03 2501.5 3125.62 2494.77 3135.52 2483.6C3147.05 2470.59 3130.63 2457.35 3128.37 2442.04C3138.23 2441.58 3151.32 2444.01 3157.47 2445.75C3193.85 2456.07 3204.9 2473.92 3227.88 2496.58C3248.41 2507.51 3214.83 2528.14 3207.36 2542.29C3207.35 2531.62 3218.98 2524.68 3215.35 2514.29C3214.56 2514.55 3213.73 2514.87 3212.88 2515.21C3200.92 2523.82 3193.34 2534.36 3185.64 2548.51C3182.3 2541.19 3189.74 2534.24 3182.68 2530.39C3182.43 2537.59 3178.7 2541.06 3174.31 2547.48C3173.87 2548.26 3173.42 2549.03 3172.96 2549.8C3170.23 2554.38 3167.28 2558.69 3163.56 2562.16C3160.34 2551.23 3174.98 2544.54 3168.3 2534.64C3167.59 2534.93 3166.86 2535.39 3166.12 2535.85C3161.68 2538.66 3157.05 2542.11 3153.27 2547.38C3153.4 2543.78 3153.4 2543.78 3153.52 2540.18C3146.2 2543.53 3142.35 2550.6 3133.08 2559.25C3132.46 2559.83 3131.84 2560.42 3131.23 2561.02C3126.93 2565.17 3122.88 2569.55 3119.89 2575.05C3120.14 2567.85 3120.39 2560.65 3120.52 2557.05C3117.05 2553.32 3116.67 2564.12 3111.82 2561.78C3111.09 2562.33 3110.38 2562.88 3109.67 2563.44C3104 2567.92 3098.75 2572.81 3094.03 2578.19C3084.21 2555.28 3065.37 2561.94 3046.83 2559.16C3043.1 2558.6 3041.96 2553.74 3045.04 2551.57C3045.1 2551.53 3045.15 2551.5 3045.2 2551.46C3048.19 2549.36 3047.25 2544.72 3043.68 2543.95C3008.65 2536.35 2966.03 2498.94 2928.43 2495.27H2928.43ZM2306.64 1718.68C2327.78 1722.86 2355.66 1728.52 2366.82 1736.91C2343.86 1734.62 2323.45 1736.35 2306.64 1739.55V1718.68ZM2278.68 1746.97C2272.83 1748.99 2268.06 1750.97 2264.49 1752.58C2262.16 1753.63 2262.64 1757.05 2265.16 1757.48C2265.36 1757.52 2265.57 1757.55 2265.78 1757.59C2273.28 1758.9 2273.55 1769.67 2266.1 1771.28C2257.7 1773.09 2250.6 1776.29 2244.53 1780.09C2239.4 1783.31 2242.54 1791.24 2248.5 1790.17C2248.74 1790.12 2248.97 1790.08 2249.21 1790.04C2255.11 1788.99 2258.24 1796.7 2253.25 1800.02C2249.02 1802.83 2244.83 1806.41 2240.4 1810.85C2254.09 1807.29 2267.03 1804.13 2278.68 1803.72V1813.16C2250.03 1816.62 2223.23 1821.64 2198.17 1827.92C2197.59 1828.07 2197 1828.22 2196.42 1828.36C2190.19 1827.4 2182.13 1834.92 2169.07 1836.01C2056.91 1870.3 1943.29 1909.01 1895.69 1963.61C1895.08 1964.29 1840.61 1986.24 1824.26 2009.07C1836.2 2001.66 1848.01 1998.17 1864.11 1999.19C1839.79 2004.85 1813.36 2019.36 1804.11 2043.21C1824.34 2026.59 1847.11 2020.32 1852.97 2023.51C1840.41 2028.51 1821.57 2037.46 1809.72 2057.88C1872.95 2037.72 1885.45 2050.51 1888.72 2050.62C1878.03 2054.29 1798.73 2083.59 1663.92 2167.63L1474.17 1977.72V1416.23L1876.43 1818.84L2278.68 1416.23V1746.97ZM1558.73 2237.11C1528.07 2258.45 1495.5 2282.03 1461.09 2308.09C1203.97 2502.79 948.289 2816.52 893.867 2860.15C892.908 2860.92 892.037 2861.62 891.256 2862.25C887.554 2865 884.047 2867.69 880.715 2870.32H825.883L1228.14 2467.71L825.883 2065.1H1386.88L1558.73 2237.11ZM1157.18 2870.32C1165.93 2863.48 1174.34 2856.49 1182.37 2849.28C1278.93 2762.54 1419.96 2573.22 1419.96 2573.22C1378.11 2669.21 1316.16 2788.56 1252.35 2870.32H1157.18ZM1474.17 3013.22C1476.86 3011.94 1479.53 3010.71 1482.17 3009.6C1548 2981.96 1773.92 2974.59 1858.93 2644.98C1872.13 2622.93 1888.55 2603.24 1906.99 2585.68L2278.68 2957.7V3519.19L1876.43 3116.58L1474.17 3519.19V3013.22ZM2010.52 2514.55C2103.77 2467.29 2197.25 2452.24 2197.25 2452.24L2167.22 2264.04L2185.06 2246.18C2190.91 2290.96 2206.52 2404.77 2228.74 2523.36C2228.96 2525.19 2229.31 2528.19 2229.52 2530.02C2229.6 2532.61 2229.53 2535.08 2229.38 2537.48C2230.47 2536.89 2231.62 2536.28 2232.71 2535.69C2227.47 2567.52 2200.15 2581.54 2179.34 2602.96C2203.77 2602.62 2219.08 2567.88 2243.81 2571.83C2244.07 2572.87 2244.3 2573.96 2244.52 2575.05C2244.75 2576.14 2244.97 2577.23 2245.2 2578.32C2245.42 2579.37 2245.64 2580.41 2245.86 2581.46C2242.68 2610.7 2204.11 2627.06 2175.48 2634.66C2202.94 2645.78 2225.5 2615.25 2255.34 2624.76C2234.61 2649.65 2205.98 2657.24 2183.07 2663.32C2220.47 2665.67 2262.07 2660.76 2297.77 2650.6C2298.94 2650.26 2300.11 2649.93 2301.3 2649.58C2373.45 2628.77 2503.22 2587.45 2595.51 2538.56L2606.91 2549.97C2587.25 2563.98 2569.73 2575.21 2563.13 2578.68C2508.06 2607.57 2458.47 2626.19 2426.4 2643.18L2426.33 2642.91C2426.33 2642.91 2418.36 2646.97 2407.75 2651.82C2385.94 2661.82 2361.27 2662.68 2339.15 2654.6C2339.2 2654.77 2354.18 2700.79 2371.82 2718.53C2359.09 2725.33 2341.84 2734.53 2326.69 2741.94C2332.84 2743.7 2352.45 2740.46 2370.6 2736.86C2375.45 2735.9 2377.68 2742.69 2373.19 2744.78C2371.13 2745.74 2365.11 2749.17 2352.68 2755.44C2384.71 2759.85 2421.22 2743.92 2421.66 2744.06C2413.55 2752.17 2404.44 2756.16 2384.93 2763.97C2410.02 2767.53 2528.34 2707.58 2584.61 2670.68C2614.34 2651.18 2639.27 2629.66 2666.73 2609.85L2926.98 2870.32H2365.98L2010.52 2514.55ZM2747.91 2559.94C2763.21 2550.73 2778.47 2541.48 2794 2532.69C2819.35 2518.34 2833.71 2520 2858.12 2526.07L2786.1 2598.16L2747.91 2559.94ZM2661.83 2330.48L2461.47 2410.66L2831.44 2098.58L2823.26 2065.1H2835.26L2853.85 2115.12C2853.85 2115.12 2863.91 2112.85 2881.78 2110.33L2661.83 2330.48ZM1876.43 3548.2L1706.56 3378.19L1876.43 3208.17L2046.3 3378.19L1876.43 3548.2ZM1876.43 1387.22L2046.29 1557.23L1876.43 1727.25L1872.23 1723.05C1818.41 1669.17 1764.59 1615.3 1710.76 1561.43L1706.57 1557.23L1876.43 1387.22ZM796.893 2467.71L966.762 2297.69L1136.63 2467.71L966.759 2637.72L962.565 2633.53C908.74 2579.65 854.918 2525.78 801.088 2471.91L796.893 2467.71ZM1746.1 3378.19L1876.43 3508.63L2006.76 3378.19L1876.43 3247.74L1746.1 3378.19ZM2006.76 1557.23L1876.43 1426.78L1746.1 1557.23L1876.43 1687.68L2006.76 1557.23ZM966.762 2337.26L836.428 2467.71L966.759 2598.16L1097.09 2467.71L966.762 2337.26ZM276.551 3770.73C282.07 3752.83 287.446 3735.81 292.675 3719.69C297.901 3703.56 301.234 3693.88 302.642 3690.63C304.049 3687.38 305.21 3685.12 305.21 3685.12C305.099 3685.01 279.591 3715 268.579 3730.75C256.116 3748.57 231.033 3779.33 232.435 3785.96C233.156 3789.37 247.219 3796.33 253.195 3798.93C259.168 3801.53 265.547 3804 266.269 3803.58C267.523 3802.85 271.033 3788.63 276.551 3770.73V3770.73ZM249.459 3871.06C242.794 3868.2 240.536 3864.27 242.687 3859.27C249.179 3844.17 252.426 3836.63 258.92 3821.53C256.699 3818.34 251.935 3814.38 244.643 3809.64C237.348 3804.89 227.956 3797.71 224.756 3797.88C222.583 3797.99 217.127 3804.37 212.892 3810.12C208.655 3815.88 204.338 3821.65 199.944 3827.44C195.549 3833.23 189.6 3839.88 187.052 3840.05C182.176 3840.39 174.081 3830.41 175.463 3827.92C182.249 3815.68 203.497 3794.2 215.451 3776.89C232.578 3752.1 249.835 3727.26 267.416 3702.74C280.147 3685 291.791 3670.47 302.337 3659.19C312.876 3647.9 320.254 3643.17 324.541 3645.02C328.826 3646.88 333.17 3650.09 333.322 3651.84C334.343 3663.47 320.964 3690.69 315.408 3710.3C309.569 3730.9 304.431 3752.28 296.384 3771.87C292.749 3780.72 287.377 3796.09 280.817 3817.76C274.256 3839.44 268.802 3855.49 264.398 3865.88C261.636 3872.4 256.653 3874.13 249.459 3871.06V3871.06ZM310.777 3891.4C314.181 3882.35 315.885 3877.83 319.293 3868.78C319.329 3868.68 321.695 3865.05 323.845 3859C331.042 3838.77 338.103 3813.51 345.721 3791.13C354.527 3765.25 375.595 3719.88 372.851 3713.59C372.799 3713.47 372.034 3713.26 371.636 3713.09C355.006 3706.06 347.754 3699.41 350.059 3693.92C350.814 3692.13 352.55 3691.1 355.263 3690.85C357.977 3690.6 360.392 3690.92 362.51 3691.8C378.879 3699.91 387.083 3703.92 403.535 3711.84C405.563 3712.59 406.577 3712.97 408.604 3713.72C415.086 3716.33 417.4 3719.96 415.538 3724.63C414.585 3727.01 412.747 3728.51 410.021 3729.13C407.295 3729.75 404.607 3729.53 401.963 3728.46C396.55 3725.35 393.846 3723.79 388.444 3720.65C387.714 3721.75 387.347 3722.3 386.616 3723.4C375.484 3751.13 366.862 3779.81 358.197 3808.37C349.518 3836.97 341.059 3865.85 329.951 3893.56C329.036 3895.84 327.04 3897.39 323.99 3898.2C320.939 3899.01 318.027 3898.85 315.263 3897.72C313.466 3895.2 312.57 3893.93 310.777 3891.4V3891.4ZM360.963 3902.82C366.049 3905.83 368.593 3907.33 373.691 3910.32C377.846 3911.95 382.102 3911.73 386.454 3909.68C390.804 3907.63 394.662 3904.45 398.036 3900.14C404.516 3891.87 409.141 3884.11 411.922 3876.88C414.702 3869.65 416.134 3861.98 416.244 3853.89C416.353 3845.79 415.679 3837.96 414.231 3830.41C412.781 3822.85 411.439 3815.17 410.161 3807.42C407.13 3789.05 408.457 3772.66 414.124 3758.36C417.6 3749.58 422.266 3742.43 428.098 3736.91C438.952 3726.65 449.24 3723.41 458.987 3727.19C462.643 3728.61 465.697 3731.06 468.156 3734.53C470.614 3738.01 471.354 3741.04 470.364 3743.63C468.64 3748.13 465.226 3749.4 460.122 3747.44C457.877 3746.57 455.791 3744.24 454.208 3743.17C449.868 3740.24 440.288 3746.06 432.627 3758.7C430.955 3761.47 429.343 3764.83 427.793 3768.79C426.239 3772.76 425.248 3778.02 424.827 3784.57C424.407 3791.13 424.736 3797.24 425.821 3802.88C426.905 3808.53 428.024 3814.75 429.178 3821.52C430.333 3828.29 431.407 3834.84 432.335 3841.12C434.478 3855.62 432.397 3870.71 426.592 3886.04C422.121 3897.85 414.738 3908.18 404.518 3916.65C399.484 3920.82 393.55 3923.63 386.734 3924.89C379.913 3926.16 372.951 3925.45 365.857 3922.78C365.745 3923.07 365.688 3923.21 365.578 3923.5C357.045 3918.83 353.629 3913.11 355.309 3906.38C357.573 3904.96 358.703 3904.25 360.963 3902.82V3902.82ZM499.692 3907.69C500.243 3907.38 501.591 3899.41 504.176 3892.21C506.761 3885.02 509.521 3875.92 512.466 3864.94C515.412 3853.95 518.597 3841.08 522.035 3826.34C525.473 3811.61 529.734 3794.35 529.734 3794.35C529.374 3794.2 471.183 3876.59 472.641 3892.44C472.828 3894.48 498.145 3908.57 499.692 3907.69ZM518.855 3907.84C517.666 3915.64 517.074 3919.55 515.899 3927.36C515.044 3929.78 513.995 3936.05 512.781 3946.17C511.562 3956.3 510.455 3962.81 509.433 3965.72C509.393 3965.84 509.372 3965.89 509.333 3966.01C507.801 3970.36 504.251 3973.08 500.869 3972.49C496.819 3971.77 492.858 3968.88 490.752 3966.61C488.647 3964.33 488.287 3961.26 489.667 3957.4C492.671 3948.99 495.417 3936.19 497.972 3919.01C485.688 3912.63 479.559 3909.42 467.332 3902.95C462.906 3908.75 458.717 3915.35 454.775 3922.75C450.829 3930.15 447.695 3935.46 445.432 3938.66C440.79 3945.22 435.837 3947.57 430.581 3945.61C428.004 3944.64 425.893 3943 424.256 3940.69C422.616 3938.37 422.232 3936.06 423.098 3933.76C423.808 3932.84 424.165 3932.38 424.875 3931.47C457.127 3887.26 486.382 3841.68 512.779 3793.73C513.479 3792.46 515.221 3788.59 518.046 3782.22C524.282 3768.18 529.674 3759.66 533.975 3756.75C538.204 3758.3 540.32 3759.06 544.551 3760.6C547.412 3761.63 549.693 3763.17 551.392 3765.19C553.089 3767.22 553.473 3769.5 552.593 3772C544.714 3794.38 539.66 3818.04 535.067 3841.41C530.686 3863.7 526.133 3886.27 518.855 3907.84V3907.84ZM614.048 3858.79C611.417 3865.83 610.101 3869.35 607.468 3876.38C604.605 3884.95 602.937 3902.19 602.676 3928.15C602.413 3954.12 603.503 3972.04 606.251 3981.02C606.579 3982.09 607.456 3984.38 608.784 3987.83C610.111 3991.28 610.963 3994.2 611.329 3996.59C611.695 3998.97 611.516 4001.28 610.792 4003.53C610.065 4005.78 608.506 4007.35 606.119 4008.24C603.73 4009.14 601.28 4009.18 598.783 4008.36C593.566 4006.66 589.746 3999.93 587.388 3988.18C585.026 3976.43 584.006 3962.59 584.59 3946.95C585.453 3923.9 589.797 3877.73 589.797 3877.73C588.823 3877.23 566.297 3907.63 560.388 3925.59L541.509 3980.77C539.916 3985.43 536.843 3986.98 532.301 3985.42C528.947 3984.26 526.563 3982.48 525.153 3980.1C523.741 3977.71 523.542 3975.06 524.551 3972.15C535.015 3942.01 545.476 3911.86 555.94 3881.72C559.674 3870.96 566.282 3855.26 575.714 3834.58C585.143 3813.91 590.728 3794.95 595.361 3787.56C597.194 3784.64 601.863 3783.46 605.408 3784.68C608.951 3785.89 611.368 3787.72 612.66 3790.17C613.95 3792.61 614.17 3795.1 613.312 3797.63C613.194 3797.98 613.133 3798.15 613.015 3798.5C602.197 3814.23 596.286 3833.42 590.318 3851.41C588.867 3855.66 588.142 3857.79 586.692 3862.04C587.171 3861.67 593.667 3855.74 605.871 3844.18C620.042 3830.76 642.642 3803.92 656.576 3803.98C658.829 3803.99 662.256 3806.6 664.341 3808.79C666.426 3810.98 667.048 3813.39 666.192 3816.03C666.126 3816.22 662.295 3819.4 654.675 3825.54C631.151 3844.5 617.472 3855.5 614.048 3858.79V3858.79ZM676.331 3881.18C672.193 3892.07 670.12 3897.52 665.972 3908.41C657.818 3933.86 649.29 3962.52 649.68 3986.87C649.892 4000 654.521 4011.9 658.47 4014.13C661.367 4015.76 666.59 4015.03 670.752 4013.09C674.917 4011.16 678.7 4008 682.11 4003.62C685.516 3999.24 688.763 3994.49 691.671 3989.4C694.515 3984.42 697.189 3978.84 699.691 3972.86C704.021 3962.51 707.306 3953.51 709.595 3945.95C711.883 3938.39 714.668 3926.58 717.973 3910.54C721.276 3894.49 724.105 3882.64 726.431 3874.99C727.075 3872.86 727.396 3871.8 728.042 3869.68C730.068 3862.26 729.496 3854.92 726.356 3847.69C723.218 3840.45 717.87 3835.66 710.294 3833.3C703.026 3831.03 696.972 3833.38 692.16 3840.35C688.142 3846.16 684.631 3853.84 681.63 3863.33C679.509 3870.47 678.449 3874.04 676.331 3881.18V3881.18ZM644.066 3916.11C645.662 3911.58 646.462 3909.31 648.059 3904.78C648.371 3903.81 648.371 3903.27 648.053 3903.16C648.751 3900.99 649.099 3899.91 649.797 3897.74C657.372 3875.47 664.378 3852.13 677.141 3832.5C683.746 3822.34 689.265 3816.34 693.101 3814.65C696.936 3812.96 700.319 3812.62 703.188 3813.49C726.294 3820.45 741.67 3840.65 743.472 3864.55C744.603 3879.54 742.607 3897.28 736.69 3917.14C736.427 3918.02 736.296 3918.46 736.03 3919.35C732.208 3933.11 730.297 3939.99 726.479 3953.76C718.007 3983.35 697.4 4040.04 655.903 4027.03C643.627 4023.18 636.038 4014.08 633.453 3999.81C630.978 3986.14 630.991 3973.33 633.17 3961.59C636.461 3943.86 640.044 3928.61 644.066 3916.11ZM846.875 4072.03C850.993 4056.44 853.052 4048.64 857.171 4033.05C859.515 4024.01 862.138 4010.54 865.069 3992.64C868.002 3974.75 870.272 3962.78 871.853 3956.72C873.432 3950.66 875.53 3943.5 878.142 3935.22C880.753 3926.94 883.688 3916.54 883.688 3916.54C883.648 3916.52 874.802 3932.26 861.651 3955.79C847.263 3981.53 819.892 4042.85 799.113 4044.48C796.123 4044.71 791.655 4041.15 789.854 4038.1C788.056 4035.05 787.824 4031.47 788.802 4027.59C793.745 4007.93 792.896 3985.49 792.908 3964.9C792.921 3940.09 791.713 3890.42 791.713 3890.42C790.776 3890.28 758.042 3984.91 744.048 4033.01C743.206 4036.67 742.783 4038.5 741.945 4042.17C741.01 4045.42 739.527 4047.7 737.499 4048.98C735.471 4050.26 732.81 4050.43 729.524 4049.47C726.239 4048.52 723.765 4047.02 722.104 4044.98C720.441 4042.95 719.898 4040.94 720.479 4038.97C729.574 4008.19 741.255 3978.06 752.61 3947.99C763.966 3917.93 784.74 3879.59 784.506 3856.94C784.487 3855.28 783.782 3852.43 784.454 3850.11C785.125 3847.8 786.935 3846.43 789.878 3846C792.819 3845.57 797.229 3845.46 798.814 3846.66C809.802 3855 807.759 3894.84 808.925 3915.37C810.639 3945.59 811.277 4006.96 811.277 4006.96C811.388 4006.99 817.138 3997.31 823.466 3986.11C829.797 3974.91 836.433 3963.28 843.315 3951.22C850.246 3939.08 857.52 3926.86 865.024 3914.65C882.243 3886.62 893.801 3873.22 900.076 3874.85C902.9 3875.58 905.375 3877.02 907.505 3879.16C909.634 3881.29 910.367 3883.66 909.711 3886.24C904.133 3908.18 899.468 3930.45 894.928 3952.67C890.54 3974.14 886.096 3995.62 880.783 4016.89C877.176 4029.69 875.369 4036.09 871.756 4048.89C871.742 4048.95 871.736 4048.98 871.716 4049.04C871.133 4051.33 869.936 4058.75 868.142 4071.32C867.799 4073.77 867.626 4075 867.284 4077.45C867.719 4079.89 867.626 4082.33 867.008 4084.76C866.389 4087.2 864.677 4089.55 861.872 4091.79C859.068 4094.04 855.945 4094.73 852.522 4093.85C845.45 4092.03 843.571 4084.75 846.871 4072.03H846.875ZM937.337 4080.58C934.095 4094.26 928.768 4100.22 921.367 4098.44C917.277 4097.46 912.851 4092.01 913.552 4089.43C914.297 4086.7 922.614 4068.56 929.882 4038.44C931.206 4032.95 932.484 4025.03 933.727 4014.67C934.972 4004.31 936.01 3996.96 936.835 3992.62C937.604 3989.45 937.988 3987.86 938.757 3984.69C938.543 3983.69 937.098 3974.7 934.379 3957.96C930.892 3936.51 926.018 3913.42 927.931 3891.49C928.097 3890.84 928.178 3890.51 928.343 3889.85C931.747 3888.55 933.449 3887.9 936.85 3886.59C943.43 3888.34 947.353 3906.06 948.956 3939.81C949.657 3954.55 950.003 3962.08 950.003 3962.08C950.036 3962.09 954.871 3952.53 960.617 3940.41C968.081 3924.67 979.697 3896.52 992.667 3895.5C994.088 3895.38 996.332 3896.99 997.682 3898.57C999.032 3900.14 999.489 3901.89 999.048 3903.78C996.684 3913.98 990.18 3928.09 979.403 3946.06C968.628 3964.02 961.858 3978.05 959.233 3988.18C951.934 4018.98 944.635 4049.78 937.337 4080.58V4080.58ZM1025.52 3949.43C1021.44 3967.75 1019.4 3976.92 1015.32 3995.25C1027.01 3997.53 1035.66 3985.81 1041.25 3960.15C1046.84 3934.49 1040.13 3916.21 1036.67 3917.22C1034.26 3917.92 1029.26 3932.6 1025.52 3949.43ZM993.884 4081.45C993.882 4082.08 993.88 4082.39 993.878 4083.02C992.648 4088.55 992.03 4091.32 990.796 4096.84C998.769 4096.94 1005.38 4094.11 1010.61 4088.38C1015.85 4082.65 1019.07 4076.94 1020.3 4071.28C1021.53 4065.61 1022.42 4061.11 1022.98 4057.76C1023.53 4054.42 1023.89 4050.24 1024.07 4045.24C1024.24 4040.24 1024.09 4035.77 1023.56 4031.9C1022.27 4022.4 1012.96 4012.84 1011.79 4013.38C1008.68 4014.83 1003.93 4041.8 999.958 4059.62C997.532 4068.35 996.317 4072.72 993.884 4081.45ZM1013.14 3930.08C1013.88 3923.55 1014.26 3920.29 1015.01 3913.77C1015.16 3913.11 1015.23 3912.78 1015.38 3912.12C1016.36 3907.82 1017.84 3904.58 1019.83 3902.4C1021.81 3900.22 1025.72 3899.79 1031.55 3901.1C1037.39 3902.41 1042.77 3905.12 1047.71 3909.25C1052.65 3913.38 1056.21 3918.36 1058.38 3924.18C1062.66 3935.6 1063.48 3947.73 1060.74 3960.58C1058.01 3973.42 1054.82 3983.37 1051.19 3990.4C1047.55 3997.44 1036.62 4006.79 1036.36 4009.01C1035.92 4012.81 1045.76 4032.57 1043.17 4050.3C1042.58 4054.33 1041.64 4059.21 1040.5 4064.84C1039.36 4070.47 1037.67 4075.88 1035.42 4081.07C1033.16 4086.25 1030.25 4091.1 1026.66 4095.4C1023.03 4099.74 1018.83 4103.36 1014.29 4106.12C1004.38 4112.15 992.295 4113.6 978.343 4110.45C973.579 4109.38 970.879 4106.71 970.507 4102.68C970.225 4099.64 970.584 4095.96 971.41 4091.83C977.478 4070.28 983.536 4048.72 989.581 4027.15C997.445 3994.8 1005.3 3962.44 1013.14 3930.08V3930.08ZM1115.63 3903.77C1112.32 3903.1 1109.82 3901.41 1108.13 3898.71C1106.44 3896 1105.91 3893.17 1106.51 3890.2C1107.12 3887.24 1108.88 3884.8 1111.77 3882.88C1114.67 3880.96 1117.68 3880.31 1120.81 3880.95C1123.95 3881.58 1126.42 3883.33 1128.24 3886.21C1130.05 3889.08 1130.65 3892.1 1130.02 3895.28C1129.4 3898.45 1127.67 3900.82 1124.84 3902.4C1122.01 3903.98 1118.94 3904.44 1115.63 3903.77V3903.77ZM1083.69 3967.29C1085.14 3956.71 1085.87 3951.43 1087.33 3940.85C1090.35 3926.29 1096.4 3919.95 1105.47 3921.81C1111.28 3922.99 1118.93 3925.87 1128.47 3930.43C1138.01 3934.98 1142.41 3939.25 1141.63 3943.28C1140.81 3947.51 1134.79 3951.93 1130.19 3951.08C1122.92 3949.75 1107.52 3939.74 1106.68 3940.27C1105.8 3940.83 1105.37 3949.21 1104.47 3953.64C1100.31 3971.26 1098.22 3980.07 1094.04 3997.69C1094 3997.9 1094 3999.57 1094.04 4002.72C1098.79 4003.49 1101.17 4003.88 1105.92 4004.64C1116.59 4006.77 1121.38 4010.62 1120.28 4016.26C1119.84 4018.48 1118.49 4020.23 1116.22 4021.51C1113.95 4022.78 1111.32 4023.13 1108.34 4022.54C1105.37 4021.95 1102.19 4021.11 1098.81 4020.01C1095.43 4019.33 1093.75 4018.99 1090.37 4018.31C1089.43 4026.28 1088.18 4034.14 1086.61 4041.89C1082.35 4060.44 1078.08 4078.99 1073.8 4097.55C1071.45 4109.11 1070.5 4114.94 1070.95 4115.03C1081.04 4116.76 1086.09 4117.61 1096.19 4119.29C1104.83 4120.99 1108.67 4124.33 1107.7 4129.37C1107.09 4132.49 1105.16 4134.47 1101.88 4135.3C1098.6 4136.12 1095.07 4136.16 1091.29 4135.42C1079.74 4133.14 1073.97 4131.99 1062.43 4129.63C1059.43 4129.02 1056.9 4127.53 1054.84 4125.16C1052.78 4122.8 1051.97 4120.3 1052.4 4117.66C1053.07 4114.41 1053.41 4112.78 1054.08 4109.53C1057.54 4088.49 1059.27 4077.97 1062.75 4056.94C1069.74 4027.06 1076.72 3997.18 1083.69 3967.29H1083.69ZM1263.55 4019.21C1263.34 4021.36 1263.24 4022.44 1263.03 4024.59C1257.88 4054.07 1246.6 4162.99 1196.74 4155.43C1185.43 4153.71 1177.65 4147.86 1173.68 4138.46C1169.6 4128.79 1167.66 4119.51 1167.98 4110.71C1168.48 4097.14 1170.13 4081.76 1172.95 4064.61C1177.01 4039.84 1181.47 4015.11 1185.9 3990.39C1188.51 3972.54 1189.83 3963.61 1192.46 3945.75C1195.26 3941.78 1197.95 3940.02 1200.55 3940.48C1203.14 3940.95 1205.11 3943.25 1206.45 3947.4C1207.8 3951.54 1208.1 3955.74 1207.36 3959.98L1192.48 4044.41C1191.19 4051.79 1190.04 4062.89 1189.07 4077.72C1188.11 4092.55 1186.99 4103.66 1185.7 4111.04C1183.05 4126.2 1192.24 4138.3 1203.4 4137.52C1236.03 4135.23 1249.56 4007.05 1255.1 3974.35C1256.24 3967.36 1256.81 3963.87 1257.96 3956.88C1258.23 3954.81 1258.37 3953.77 1258.64 3951.69C1259.04 3949.26 1259.92 3947.53 1261.29 3946.51C1262.65 3945.48 1264.79 3945.21 1267.7 3945.68C1270.62 3946.15 1272.75 3946.98 1274.09 3948.11C1275.31 3949.15 1276.2 3950.56 1276.53 3952.24C1277.03 3954.83 1276.92 3958.33 1276.37 3962.5C1273.49 3974.89 1272.04 3981.08 1269.15 3993.46C1266.91 4003.76 1265.8 4008.91 1263.55 4019.21V4019.21ZM1365.22 3885.19C1364.02 3886.95 1363.42 3887.82 1362.21 3889.58C1361.9 3891.84 1361.74 3892.97 1361.43 3895.22C1358.65 3901.8 1357.26 3905.08 1354.48 3911.65C1349.83 3922.6 1347.24 3929.8 1346.75 3933.25C1345.8 3939.96 1342.57 3942.92 1337.06 3942.13C1332.83 3941.52 1328.08 3932.22 1322.97 3914.24C1317.85 3896.26 1315.81 3884.37 1316.68 3878.59C1316.93 3876.97 1317.92 3875.69 1319.66 3874.76C1321.4 3873.83 1323.25 3873.51 1325.23 3873.81C1329.7 3874.48 1333.35 3885.96 1336.32 3908.27C1337.18 3914.25 1337.62 3917.23 1338.5 3923.21C1339.24 3921.04 1340.22 3917.6 1341.44 3912.9C1342.65 3908.21 1343.75 3903.95 1344.85 3900.33C1345.95 3896.7 1347.29 3892.88 1348.71 3889.07C1351.73 3880.94 1355.35 3877.12 1359.42 3877.69C1361.29 3877.95 1362.8 3878.76 1363.93 3880.11C1365.07 3881.46 1365.5 3883.15 1365.22 3885.19ZM1301.82 4165.32C1293.75 4163.77 1289.72 4162.99 1281.66 4161.41C1280.21 4161.19 1278.11 4161.45 1275.38 4162.17C1272.64 4162.9 1270.29 4163.11 1268.33 4162.81C1266.37 4162.51 1264.55 4161.53 1262.86 4159.87C1261.17 4158.21 1260.57 4155.61 1261.14 4152.2C1266.56 4119.61 1284.21 4088.12 1298.74 4058.61C1312.01 4031.65 1325.74 4004.66 1337.91 3977.08C1327.11 3976.28 1321.71 3975.87 1310.9 3974.99C1308.55 3974.64 1306.68 3973.45 1305.3 3971.43C1303.91 3969.4 1303.39 3967.27 1303.73 3965.04C1304.62 3959.16 1317.02 3958.09 1340.95 3961.5C1351.69 3963.03 1356.66 3966.66 1355.86 3972.45C1354.85 3979.77 1351.11 3989.38 1344.57 4001.26C1338.03 4013.14 1333.95 4021.57 1332.35 4026.5C1324.64 4050.3 1314.48 4073.48 1304.4 4096.32C1291.03 4126.62 1283.16 4143.84 1281.64 4147.86C1283.98 4148.22 1285.15 4148.39 1287.49 4148.74C1293.29 4149.23 1296.19 4149.47 1301.99 4149.95C1302 4149.89 1302.01 4149.85 1302.01 4149.79C1311.26 4151.14 1315.53 4154.33 1314.81 4159.41C1314.45 4161.95 1312.94 4163.68 1310.31 4164.6C1307.66 4165.52 1304.83 4165.76 1301.81 4165.32H1301.82ZM1475.11 3898.91C1473.96 3900.7 1473.38 3901.59 1472.23 3903.39C1471.98 3905.65 1471.85 3906.78 1471.6 3909.05C1469.02 3915.7 1467.72 3919.02 1465.12 3925.67C1460.78 3936.75 1458.4 3944.01 1458.01 3947.48C1457.25 3954.2 1454.1 3957.26 1448.58 3956.62C1444.34 3956.13 1439.34 3946.97 1433.72 3929.14C1428.11 3911.32 1425.74 3899.49 1426.45 3893.68C1426.65 3892.06 1427.61 3890.75 1429.32 3889.77C1431.02 3888.79 1432.87 3888.42 1434.85 3888.66C1439.34 3889.21 1443.3 3900.59 1446.89 3922.8C1447.92 3928.75 1448.44 3931.72 1449.49 3937.67C1450.17 3935.48 1451.05 3932.02 1452.13 3927.29C1453.21 3922.56 1454.19 3918.27 1455.19 3914.62C1456.19 3910.96 1457.42 3907.11 1458.73 3903.26C1461.52 3895.04 1465.03 3891.12 1469.1 3891.58C1470.98 3891.79 1472.51 3892.55 1473.68 3893.87C1474.86 3895.18 1475.34 3896.87 1475.11 3898.91V3898.91ZM1419.64 4180.72C1411.54 4179.4 1407.49 4178.73 1399.4 4177.38C1397.95 4177.2 1395.86 4177.52 1393.15 4178.32C1390.43 4179.12 1388.09 4179.4 1386.13 4179.16C1384.16 4178.92 1382.32 4177.99 1380.58 4176.37C1378.85 4174.76 1378.17 4172.18 1378.64 4168.76C1383.15 4136.03 1399.89 4104.05 1413.57 4074.14C1426.07 4046.82 1439.03 4019.45 1450.41 3991.53C1439.6 3991.04 1434.19 3990.78 1423.38 3990.21C1421.02 3989.93 1419.12 3988.79 1417.68 3986.81C1416.24 3984.83 1415.66 3982.71 1415.94 3980.47C1416.66 3974.56 1429.01 3973.14 1453.01 3975.88C1463.78 3977.1 1468.85 3980.59 1468.21 3986.4C1467.4 3993.75 1463.93 4003.46 1457.74 4015.52C1451.54 4027.58 1447.7 4036.12 1446.24 4041.09C1439.21 4065.1 1429.71 4088.55 1420.28 4111.68C1407.78 4142.34 1400.4 4159.78 1399 4163.84C1401.35 4164.13 1402.52 4164.27 1404.87 4164.55C1410.68 4164.88 1413.58 4165.04 1419.39 4165.35C1419.39 4165.29 1419.39 4165.26 1419.41 4165.19C1428.68 4166.28 1433.03 4169.34 1432.45 4174.44C1432.16 4176.99 1430.71 4178.76 1428.1 4179.75C1425.49 4180.75 1422.67 4181.07 1419.64 4180.72H1419.64ZM1494.58 4050.48C1492.75 4061.99 1491.84 4067.74 1490 4079.25C1487.2 4105.83 1484.68 4135.59 1489.95 4159.38C1492.79 4172.19 1499.67 4182.89 1503.94 4184.25C1507.07 4185.26 1512 4183.48 1515.65 4180.73C1519.29 4177.98 1522.33 4174.11 1524.76 4169.13C1527.18 4164.15 1529.38 4158.83 1531.18 4153.25C1532.93 4147.8 1534.41 4141.79 1535.63 4135.42C1537.76 4124.41 1539.14 4114.92 1539.84 4107.05C1540.54 4099.18 1540.87 4087.06 1540.85 4070.68C1540.84 4054.29 1541.2 4042.12 1541.92 4034.15C1542.12 4031.94 1542.21 4030.84 1542.41 4028.63C1542.89 4020.95 1540.86 4013.89 1536.36 4007.45C1531.86 4001 1525.72 3997.41 1517.9 3996.65C1510.39 3995.92 1505 3999.46 1501.73 4007.27C1499 4013.79 1497.14 4022.02 1496.13 4031.92C1495.51 4039.34 1495.2 4043.05 1494.58 4050.48H1494.58ZM1470.31 4091.28C1470.95 4086.52 1471.27 4084.14 1471.91 4079.38C1472.02 4078.36 1471.91 4077.83 1471.58 4077.79C1471.82 4075.53 1471.94 4074.4 1472.18 4072.13C1475.06 4048.78 1477.16 4024.52 1485.6 4002.67C1489.96 3991.37 1494.11 3984.37 1497.49 3981.93C1500.87 3979.49 1504.08 3978.46 1507.03 3978.72C1530.96 3980.82 1549.85 3997.55 1556.35 4020.44C1560.45 4034.88 1562.09 4052.65 1560.34 4073.3C1560.26 4074.22 1560.22 4074.68 1560.14 4075.6C1559.2 4089.86 1558.73 4096.99 1557.79 4111.24C1555.53 4141.68 1547.13 4201.64 1504.04 4197.41C1491.36 4196.16 1482.19 4188.8 1476.82 4175.37C1471.68 4162.5 1469.12 4149.96 1468.87 4138.02C1468.51 4120 1468.93 4104.34 1470.31 4091.28ZM1597.24 4177.67C1597.02 4180.68 1596.91 4182.18 1596.68 4185.19C1623.65 4187.16 1633.11 4152.63 1636.3 4132.41C1637.62 4124.06 1638.68 4115.78 1639.22 4107.92C1641.19 4079.3 1616 4000.84 1607.33 4006.03C1605.1 4007.37 1603.4 4025.55 1602.35 4040C1600.7 4062.6 1600.21 4085.4 1599.8 4108.1C1599.39 4131.3 1598.85 4154.52 1597.24 4177.67V4177.67ZM1574.64 4158.18C1577.6 4125.22 1580.55 4092.26 1583.5 4059.3C1584.03 4052.55 1584.2 4042.19 1584.01 4028.23C1583.82 4014.27 1583.89 4005.4 1584.19 4001.61C1584.49 3997.83 1585.96 3994.99 1588.59 3993.09C1591.22 3991.19 1593.92 3990.35 1596.7 3990.56C1621.27 3992.44 1639.45 4011.28 1649.34 4032.38C1656.3 4047.23 1659.86 4062.85 1658.88 4078.93C1658.24 4085.25 1657.91 4088.4 1657.27 4094.72C1656.85 4101.66 1656.63 4105.13 1656.21 4112.08C1654.93 4133.17 1653.05 4147.2 1650.56 4154.13C1648.06 4161.07 1645.55 4166.83 1643.02 4171.4C1640.48 4175.97 1637.53 4180.03 1634.15 4183.48C1626.39 4191.4 1616.64 4197.54 1605.13 4201.86C1595.13 4201.14 1590.13 4200.76 1580.14 4199.99C1574.29 4199.53 1572.45 4185.59 1574.64 4158.18V4158.18ZM1745.1 3919.36C1744.08 3921.23 1743.57 3922.16 1742.54 3924.03C1742.45 3926.3 1742.4 3927.44 1742.3 3929.72C1740.18 3936.53 1739.12 3939.94 1736.99 3946.75C1733.42 3958.1 1731.55 3965.51 1731.4 3969C1731.1 3975.76 1728.18 3979.02 1722.63 3978.77C1718.37 3978.57 1712.76 3969.78 1705.94 3952.38C1699.13 3934.98 1695.95 3923.35 1696.26 3917.51C1696.35 3915.87 1697.21 3914.5 1698.84 3913.4C1700.48 3912.31 1702.29 3911.82 1704.28 3911.92C1708.79 3912.15 1713.52 3923.23 1718.62 3945.14C1720.06 3951.01 1720.78 3953.94 1722.23 3959.8C1722.76 3957.56 1723.4 3954.05 1724.16 3949.26C1724.91 3944.47 1725.59 3940.12 1726.33 3936.41C1727.08 3932.69 1728.03 3928.76 1729.07 3924.83C1731.29 3916.44 1734.52 3912.29 1738.61 3912.46C1740.5 3912.54 1742.07 3913.2 1743.33 3914.43C1744.59 3915.66 1745.18 3917.31 1745.1 3919.36ZM1709.19 4204.32C1701.03 4203.57 1696.95 4203.19 1688.79 4202.39C1687.33 4202.32 1685.27 4202.78 1682.63 4203.76C1679.98 4204.75 1677.66 4205.19 1675.69 4205.08C1673.72 4204.98 1671.81 4204.18 1669.98 4202.69C1668.14 4201.2 1667.29 4198.67 1667.52 4195.22C1669.76 4162.26 1684.24 4129.21 1695.82 4098.42C1706.4 4070.3 1717.43 4042.1 1726.85 4013.47C1716.05 4013.73 1710.64 4013.84 1699.83 4014.02C1697.46 4013.9 1695.49 4012.89 1693.92 4011.01C1692.35 4009.13 1691.63 4007.06 1691.75 4004.81C1692.07 3998.87 1704.27 3996.6 1728.36 3997.67C1739.18 3998.15 1744.47 4001.28 1744.24 4007.12C1743.94 4014.5 1741.15 4024.43 1735.8 4036.89C1730.46 4049.35 1727.22 4058.13 1726.11 4063.2C1720.74 4087.64 1712.89 4111.68 1705.09 4135.41C1694.74 4166.85 1688.58 4184.76 1687.47 4188.92C1689.82 4189.04 1691 4189.1 1693.36 4189.22C1699.17 4189.15 1702.07 4189.1 1707.88 4189.01C1707.88 4188.95 1707.88 4188.92 1707.89 4188.86C1717.2 4189.3 1721.75 4192.05 1721.52 4197.18C1721.41 4199.74 1720.08 4201.61 1717.55 4202.78C1715.02 4203.95 1712.23 4204.47 1709.19 4204.32V4204.32ZM1792.59 4104.4C1792.53 4126.73 1792.47 4149.05 1792.42 4171.37C1792.31 4175.13 1792.26 4177.01 1792.16 4180.76C1792 4184.26 1791.92 4186.02 1791.75 4189.52C1793.57 4189.58 1794.48 4189.6 1796.3 4189.65C1800.27 4189.63 1802.26 4189.61 1806.24 4189.59C1815.66 4189.81 1820.32 4192.52 1820.21 4197.75C1820.16 4200.42 1818.95 4202.68 1816.61 4204.52C1814.26 4206.37 1811.56 4207.26 1808.52 4207.19C1802.44 4207.05 1799.39 4206.97 1793.31 4206.81C1782.83 4206.53 1775.8 4205.72 1773.22 4205.61C1771.63 4205.53 1770 4205.81 1768.99 4205.78C1760.76 4205.51 1756.74 4203 1756.9 4198.28C1756.97 4196.33 1757.71 4194.51 1759.12 4192.81C1760.53 4191.12 1761.91 4190.24 1763.26 4190.19C1767.16 4190.32 1769.12 4190.38 1773.02 4190.51C1773.35 4188.86 1773.51 4188.03 1773.83 4186.38C1773.75 4164.05 1773.69 4141.72 1773.63 4119.39C1774.98 4096.02 1776.33 4072.66 1777.67 4049.3C1778.05 4037.3 1777.87 4026 1777.14 4015.4C1774.62 4015.32 1773.36 4015.28 1770.84 4015.19C1767.81 4015.21 1766.29 4015.23 1763.25 4015.24C1760.03 4015.13 1757.52 4014.44 1755.74 4013.19C1753.95 4011.95 1753.12 4009.68 1753.25 4006.4C1753.43 4001.58 1758.93 3999.39 1769.75 3999.76C1785.44 4000.3 1793.28 4000.52 1808.97 4000.91C1817.87 4001.12 1822.27 4003.42 1822.18 4007.83C1822.14 4009.78 1821.13 4011.55 1819.16 4013.15C1817.19 4014.75 1814.97 4015.52 1812.49 4015.46C1805.72 4015.3 1802.33 4015.22 1795.56 4015.03C1796.18 4023.67 1796.34 4033.43 1796.05 4044.3C1794.91 4064.33 1793.75 4084.37 1792.59 4104.4V4104.4ZM1917.96 4070.26C1918.1 4072.41 1918.17 4073.49 1918.3 4075.65C1917.95 4105.5 1924.31 4214.88 1874 4215.44C1862.6 4215.57 1854.01 4211.03 1848.61 4202.39C1843.04 4193.51 1839.66 4184.66 1838.57 4175.92C1836.89 4162.45 1836.05 4147.01 1836.08 4129.62C1836.12 4104.52 1836.56 4079.4 1836.96 4054.29C1836.68 4036.24 1836.55 4027.22 1836.28 4009.18C1838.4 4004.8 1840.76 4002.63 1843.39 4002.68C1846.02 4002.72 1848.32 4004.68 1850.31 4008.55C1852.29 4012.42 1853.26 4016.52 1853.21 4020.83C1852.83 4049.4 1852.45 4077.97 1852.07 4106.55C1851.97 4114.04 1852.62 4125.18 1854.04 4139.97C1855.46 4154.77 1856.14 4165.91 1856.05 4173.4C1855.86 4188.79 1866.86 4199.25 1877.69 4196.69C1909.46 4189.17 1902.25 4060.51 1902.47 4027.33C1902.48 4020.25 1902.48 4016.71 1902.49 4009.64C1902.42 4007.54 1902.4 4006.5 1902.34 4004.4C1902.34 4001.94 1902.93 4000.09 1904.11 3998.86C1905.28 3997.63 1907.35 3997.02 1910.29 3997.01C1913.23 3997.01 1915.46 3997.49 1916.96 3998.39C1918.34 3999.21 1919.43 4000.46 1920.02 4002.07C1920.93 4004.55 1921.38 4008.02 1921.51 4012.23C1920.65 4024.91 1920.22 4031.25 1919.35 4043.94C1918.8 4054.47 1918.52 4059.73 1917.96 4070.26H1917.96ZM1942.05 4197.41C1947.79 4198.29 1950.66 4198.72 1956.41 4199.57C1960.79 4199.52 1964.59 4197.72 1967.8 4194.19C1971.01 4190.65 1973.35 4186.25 1974.83 4181C1977.69 4170.89 1979.04 4161.97 1978.9 4154.22C1978.77 4146.47 1977.24 4138.83 1974.35 4131.28C1971.46 4123.74 1967.96 4116.74 1963.85 4110.28C1959.74 4103.82 1955.69 4097.2 1951.66 4090.5C1942.12 4074.61 1937.29 4058.93 1937.17 4043.54C1937.1 4034.1 1938.71 4025.71 1941.99 4018.41C1948.09 4004.82 1956.26 3997.95 1966.55 3997.8C1970.4 3997.74 1974.09 3998.86 1977.61 4001.16C1981.13 4003.45 1982.93 4005.98 1982.98 4008.76C1983.07 4013.58 1980.43 4016.04 1975.05 4016.13C1972.68 4016.17 1969.92 4014.79 1968.08 4014.4C1963.07 4013.32 1956.47 4022.31 1954.15 4036.91C1953.65 4040.09 1953.42 4043.82 1953.47 4048.07C1953.52 4052.33 1954.55 4057.58 1956.59 4063.81C1958.63 4070.05 1961.18 4075.58 1964.26 4080.41C1967.33 4085.24 1970.64 4090.58 1974.19 4096.42C1977.75 4102.26 1981.14 4107.93 1984.31 4113.41C1991.62 4126.04 1995.3 4140.82 1995.66 4157.2C1995.94 4169.83 1993.03 4182.18 1986.84 4193.87C1983.79 4199.62 1979.41 4204.45 1973.67 4208.18C1967.92 4211.92 1961.31 4213.88 1953.87 4214.07C1953.87 4214.38 1953.87 4214.53 1953.87 4214.84C1944.38 4213.71 1939.16 4209.7 1938.2 4202.83C1939.74 4200.66 1940.51 4199.58 1942.04 4197.41H1942.05ZM2056.37 4213.52C2053.16 4220.31 2048.75 4226.42 2043.14 4231.83C2037.53 4237.25 2032.47 4240.02 2027.98 4240.15C2023.49 4240.28 2021.22 4239.03 2021.15 4236.41C2021.08 4233.8 2022.82 4231.39 2025.2 4229.14C2030.14 4224.47 2033.58 4213.59 2035.5 4198.97C2037.14 4186.51 2041.42 4180.15 2048.36 4179.92C2056.31 4179.65 2060.49 4185.04 2060.9 4196.11C2061.07 4200.93 2059.57 4206.74 2056.37 4213.52V4213.52ZM2253.52 4193.25C2252.26 4177.17 2251.63 4169.13 2250.37 4153.04C2249.6 4143.74 2247.64 4130.16 2244.51 4112.3C2241.38 4094.43 2239.58 4082.38 2239.07 4076.14C2238.56 4069.91 2238.18 4062.45 2237.91 4053.77C2237.63 4045.09 2236.97 4034.31 2236.97 4034.31C2236.93 4034.31 2233.8 4052.08 2229.21 4078.63C2224.17 4107.69 2218.71 4174.58 2199.74 4183C2197.03 4184.2 2191.67 4182.32 2188.98 4180.03C2186.3 4177.75 2184.91 4174.45 2184.55 4170.46C2182.73 4150.27 2174.58 4129.38 2167.83 4109.93C2159.71 4086.51 2142.29 4040.02 2142.29 4040.02C2141.38 4040.2 2141.78 4140.34 2144.45 4190.36C2144.87 4194.09 2145.08 4195.96 2145.49 4199.7C2145.68 4203.08 2145.04 4205.71 2143.57 4207.6C2142.09 4209.47 2139.66 4210.51 2136.27 4210.7C2132.89 4210.88 2130.08 4210.28 2127.86 4208.91C2125.64 4207.54 2124.48 4205.82 2124.38 4203.78C2122.79 4171.71 2123.84 4139.41 2124.6 4107.28C2125.36 4075.15 2132.26 4032.18 2124.58 4010.8C2124.02 4009.24 2122.43 4006.78 2122.3 4004.37C2122.17 4001.97 2123.41 4000.08 2126.02 3998.7C2128.63 3997.32 2132.73 3995.76 2134.59 3996.37C2147.64 4000.62 2158.76 4038.9 2166.58 4057.88C2178.09 4085.85 2198.82 4143.56 2198.82 4143.56C2198.93 4143.56 2201.14 4132.52 2203.39 4119.86C2205.65 4107.2 2208.05 4094.03 2210.53 4080.37C2213.04 4066.62 2215.84 4052.69 2218.86 4038.68C2225.8 4006.54 2232.23 3990.08 2238.64 3989.54C2241.53 3989.3 2244.32 3989.84 2247.02 3991.15C2249.72 3992.47 2251.18 3994.46 2251.41 3997.11C2253.39 4019.67 2256.33 4042.23 2259.37 4064.7C2262.31 4086.42 2265.19 4108.17 2267.2 4129.99C2268.02 4143.27 2268.43 4149.91 2269.25 4163.18C2269.25 4163.24 2269.25 4163.27 2269.26 4163.34C2269.47 4165.69 2270.78 4173.09 2273.22 4185.55C2273.71 4187.97 2273.95 4189.19 2274.43 4191.62C2275.64 4193.78 2276.36 4196.11 2276.58 4198.62C2276.8 4201.12 2275.96 4203.9 2274.07 4206.95C2272.18 4209.99 2269.48 4211.67 2265.98 4211.97C2258.75 4212.59 2254.6 4206.33 2253.52 4193.25H2253.52ZM2321.24 4085.01C2324.04 4107.16 2326.85 4129.3 2329.66 4151.45C2330.04 4155.18 2330.23 4157.05 2330.61 4160.79C2330.9 4164.29 2331.04 4166.04 2331.33 4169.53C2333.14 4169.35 2334.05 4169.26 2335.86 4169.07C2339.8 4168.54 2341.77 4168.27 2345.72 4167.74C2355.1 4166.75 2360.08 4168.83 2360.64 4174.03C2360.93 4176.69 2360.03 4179.08 2357.93 4181.21C2355.84 4183.35 2353.27 4184.58 2350.24 4184.9C2344.18 4185.54 2341.15 4185.86 2335.09 4186.48C2324.65 4187.54 2317.57 4187.65 2314.99 4187.87C2313.41 4188 2311.82 4188.48 2310.81 4188.58C2302.61 4189.37 2298.29 4187.4 2297.85 4182.7C2297.67 4180.76 2298.17 4178.86 2299.35 4176.99C2300.53 4175.13 2301.79 4174.08 2303.13 4173.86C2307.02 4173.48 2308.97 4173.3 2312.86 4172.92C2312.96 4171.24 2313.02 4170.4 2313.13 4168.72C2310.19 4146.58 2307.26 4124.45 2304.33 4102.31C2302.68 4078.96 2301.03 4055.62 2299.36 4032.28C2298.2 4020.33 2296.57 4009.15 2294.48 3998.73C2291.97 3998.98 2290.71 3999.1 2288.2 3999.34C2285.19 3999.75 2283.68 3999.95 2280.67 4000.35C2277.45 4000.66 2274.88 4000.3 2272.95 3999.29C2271.02 3998.28 2269.91 3996.15 2269.61 3992.88C2269.17 3988.07 2274.35 3985.19 2285.14 3984.17C2300.78 3982.68 2308.6 3981.9 2324.23 3980.26C2333.08 3979.33 2337.75 3981.04 2338.22 3985.43C2338.43 3987.37 2337.66 3989.26 2335.91 3991.1C2334.16 3992.93 2332.05 3993.98 2329.59 3994.24C2322.84 3994.96 2319.46 3995.31 2312.71 3995.99C2314.44 4004.48 2315.86 4014.14 2316.96 4024.96C2318.4 4044.97 2319.82 4064.99 2321.24 4085.01V4085.01ZM2362.18 4057.73C2360.65 4038.18 2359.11 4018.63 2357.57 3999.09C2356.48 3989.4 2359.63 3981.26 2366.96 3974.62C2367.06 3975.42 2367.1 3975.81 2367.19 3976.61C2367.99 3976 2368.76 3975.65 2369.51 3975.57C2374.62 3974.97 2382.02 3982.66 2391.76 3998.57C2402.17 4015.58 2411.41 4033.34 2419.69 4051.48C2428.59 4071 2437.55 4090.52 2446.51 4110.02C2455.54 4129.69 2463.17 4144.53 2463.17 4144.53C2464.86 4144.03 2455.41 4038.07 2448.51 3985.15C2447.86 3981.82 2447.54 3980.16 2446.89 3976.83C2446.05 3970.62 2448.35 3967.16 2453.78 3966.41C2456.86 3965.98 2459.35 3966.88 2461.23 3969.1C2463.12 3971.33 2464.29 3974.06 2464.74 3977.31C2466.07 3986.76 2466.73 3991.49 2468.05 4000.94C2472.3 4033.71 2475.52 4066.8 2478.24 4099.52C2480.11 4122.11 2487.01 4160.52 2479.06 4170.02C2476.76 4172.78 2468.81 4174.05 2466.4 4174.38C2463.99 4174.7 2462.04 4174.21 2460.56 4172.9C2459.08 4171.6 2457.74 4169.47 2456.56 4166.52C2455.37 4163.58 2454.44 4161.63 2453.74 4160.69C2453.74 4160.13 2453.74 4159.85 2453.73 4159.29C2446.44 4134.42 2432.04 4111.29 2419.88 4088.69C2405.24 4061.48 2390.7 4033.95 2374.83 4007.33C2380.96 4059.87 2387.08 4112.4 2393.21 4164.94C2393.48 4165.32 2394.01 4165.99 2394.8 4166.92C2396.51 4168.98 2397.48 4171 2397.71 4172.94C2397.94 4174.87 2397.13 4176.93 2395.28 4179.11C2393.44 4181.29 2391.11 4182.54 2388.3 4182.86C2380.78 4183.73 2376.31 4177.77 2374.88 4165.03C2370.64 4129.26 2366.41 4093.49 2362.18 4057.73H2362.18ZM2544.93 4157.03C2543.2 4147.51 2542.33 4142.76 2540.6 4133.24C2540.59 4133.14 2540.73 4128.82 2539.47 4122.52C2535.24 4101.43 2528.36 4076.17 2523.4 4053.04C2517.66 4026.32 2512.42 3976.56 2506.84 3972.59C2506.74 3972.51 2505.98 3972.72 2505.56 3972.78C2487.98 3975.27 2478.5 3973.29 2477.65 3967.4C2477.38 3965.47 2478.32 3963.7 2480.47 3962.09C2482.63 3960.48 2484.83 3959.52 2487.06 3959.19C2504.96 3957.75 2513.91 3956.98 2531.81 3955.34C2533.91 3954.94 2534.95 3954.74 2537.05 3954.35C2543.84 3953.27 2547.65 3955.19 2548.45 3960.16C2548.86 3962.69 2548.07 3964.92 2546.09 3966.85C2544.1 3968.78 2541.72 3969.97 2538.95 3970.41C2532.8 3970.52 2529.72 3970.56 2523.57 3970.64C2523.51 3971.96 2523.49 3972.62 2523.43 3973.94C2528.15 4003.45 2535.46 4032.48 2542.68 4061.44C2549.91 4090.44 2557.47 4119.57 2562.19 4149.04C2562.58 4151.47 2561.69 4153.82 2559.53 4156.09C2557.36 4158.35 2554.83 4159.7 2551.92 4160.15C2549.12 4158.9 2547.72 4158.28 2544.93 4157.03V4157.03ZM2613.05 4044.8C2617.43 4066.69 2621.81 4088.58 2626.2 4110.47C2626.84 4114.16 2627.17 4116.01 2627.81 4119.71C2628.35 4123.18 2628.62 4124.92 2629.16 4128.38C2630.95 4128.07 2631.85 4127.91 2633.65 4127.59C2637.56 4126.78 2639.51 4126.37 2643.41 4125.55C2652.73 4123.89 2657.85 4125.61 2658.79 4130.76C2659.26 4133.38 2658.53 4135.84 2656.59 4138.12C2654.65 4140.4 2652.17 4141.81 2649.16 4142.35C2643.15 4143.42 2640.14 4143.96 2634.13 4145.01C2623.77 4146.83 2616.69 4147.44 2614.13 4147.84C2612.56 4148.1 2611.01 4148.69 2610 4148.86C2601.87 4150.24 2597.41 4148.58 2596.63 4143.92C2596.32 4142.01 2596.68 4140.07 2597.73 4138.13C2598.78 4136.18 2599.96 4135.05 2601.27 4134.72C2605.14 4134.08 2607.07 4133.75 2610.94 4133.09C2610.92 4131.41 2610.92 4130.56 2610.9 4128.88C2606.39 4107.01 2601.88 4085.14 2597.38 4063.27C2594.06 4040.11 2590.74 4016.94 2587.41 3993.78C2585.4 3981.94 2582.97 3970.91 2580.14 3960.67C2577.65 3961.09 2576.4 3961.3 2573.91 3961.72C2570.93 3962.35 2569.44 3962.66 2566.46 3963.28C2563.26 3963.81 2560.66 3963.64 2558.66 3962.78C2556.66 3961.91 2555.39 3959.86 2554.87 3956.62C2554.09 3951.86 2559.06 3948.61 2569.77 3946.81C2585.3 3944.2 2593.06 3942.86 2608.56 3940.1C2617.35 3938.54 2622.14 3939.91 2622.92 3944.24C2623.27 3946.16 2622.64 3948.11 2621.02 3950.06C2619.4 3952.03 2617.36 3953.23 2614.92 3953.66C2608.22 3954.86 2604.87 3955.45 2598.18 3956.62C2600.5 3964.97 2602.61 3974.5 2604.48 3985.21C2607.35 4005.07 2610.2 4024.93 2613.05 4044.8H2613.05ZM2674.2 4126.83C2680.02 4126.68 2682.94 4126.61 2688.77 4126.44C2693.1 4125.62 2696.54 4123.19 2699.1 4119.14C2701.65 4115.1 2703.2 4110.36 2703.76 4104.92C2704.82 4094.47 2704.6 4085.45 2703.12 4077.84C2701.64 4070.24 2698.8 4062.98 2694.63 4056.05C2690.45 4049.13 2685.77 4042.85 2680.58 4037.21C2675.4 4031.57 2670.23 4025.76 2665.09 4019.87C2652.89 4005.89 2645.38 3991.3 2642.58 3976.16C2640.87 3966.88 2641 3958.34 2642.97 3950.58C2646.63 3936.12 2653.52 3927.93 2663.66 3925.98C2667.46 3925.24 2671.3 3925.7 2675.19 3927.34C2679.07 3928.99 2681.29 3931.17 2681.82 3933.88C2682.75 3938.62 2680.57 3941.51 2675.26 3942.54C2672.93 3942.99 2669.96 3942.12 2668.07 3942.05C2662.92 3941.87 2657.97 3951.88 2658.22 3966.66C2658.28 3969.89 2658.7 3973.59 2659.49 3977.77C2660.28 3981.96 2662.21 3986.94 2665.32 3992.73C2668.41 3998.51 2671.9 4003.51 2675.78 4007.73C2679.66 4011.95 2683.87 4016.62 2688.4 4021.75C2692.93 4026.88 2697.28 4031.87 2701.36 4036.7C2710.79 4047.86 2717 4061.77 2720.21 4077.84C2722.69 4090.22 2721.96 4102.9 2717.87 4115.49C2715.86 4121.69 2712.37 4127.21 2707.34 4131.89C2702.31 4136.58 2696.12 4139.67 2688.78 4141.16C2688.84 4141.47 2688.87 4141.62 2688.93 4141.92C2679.34 4142.47 2673.48 4139.43 2671.34 4132.84C2672.49 4130.43 2673.06 4129.23 2674.2 4126.83V4126.83ZM2798.35 4008.05C2803.73 4029.71 2809.11 4051.38 2814.5 4073.04L2816.54 4082.2C2817.24 4085.64 2817.58 4087.36 2818.28 4090.8C2820.06 4090.41 2820.96 4090.21 2822.74 4089.81C2826.62 4088.81 2828.55 4088.31 2832.42 4087.31C2841.67 4085.22 2846.88 4086.7 2848.05 4091.8C2848.65 4094.4 2848.02 4096.89 2846.18 4099.25C2844.34 4101.62 2841.93 4103.14 2838.94 4103.82C2832.97 4105.18 2829.99 4105.85 2824.01 4107.18C2813.73 4109.48 2806.67 4110.42 2804.12 4110.94C2802.56 4111.26 2801.04 4111.93 2800.04 4112.15C2791.96 4113.9 2787.42 4112.46 2786.43 4107.84C2786.03 4105.94 2786.3 4103.99 2787.26 4102C2788.22 4100.01 2789.35 4098.82 2790.66 4098.43C2794.5 4097.6 2796.42 4097.19 2800.25 4096.35C2800.17 4094.67 2800.12 4093.83 2800.03 4092.15C2794.52 4070.51 2789.01 4048.87 2783.51 4027.23C2779.13 4004.24 2774.75 3981.25 2770.37 3958.27C2767.81 3946.53 2764.88 3935.63 2761.58 3925.53C2759.1 3926.07 2757.87 3926.33 2755.39 3926.87C2752.43 3927.63 2750.96 3928.01 2748 3928.77C2744.83 3929.45 2742.22 3929.4 2740.17 3928.63C2738.13 3927.86 2736.77 3925.87 2736.09 3922.65C2735.1 3917.93 2739.93 3914.46 2750.57 3912.16C2765.99 3908.84 2773.7 3907.14 2789.09 3903.66C2797.82 3901.69 2802.68 3902.83 2803.66 3907.13C2804.1 3909.03 2803.55 3911 2802.02 3913.03C2800.48 3915.07 2798.5 3916.36 2796.07 3916.91C2789.43 3918.42 2786.1 3919.17 2779.45 3920.65C2782.16 3928.87 2784.7 3938.29 2787.06 3948.91C2790.84 3968.62 2794.6 3988.33 2798.35 4008.05V4008.05ZM2837.29 3903.06C2837.27 3904.9 2837.25 3905.82 2837.22 3907.66C2839.21 3916.05 2842.3 3928.1 2846.49 3943.82C2850.67 3959.54 2855.11 3978.1 2855.33 3978.18C2856.18 3978.47 2862.48 3966.95 2863.09 3955.67C2863.7 3944.39 2863.3 3935.95 2861.95 3930.37C2860.6 3924.79 2859.44 3920.71 2858.48 3918.14C2857.53 3915.58 2856.11 3912.82 2854.3 3909.89C2850.59 3903.86 2844.94 3901.55 2837.29 3903.06V3903.06ZM2857.48 3993.65C2860.51 4006.98 2862.02 4013.64 2865.05 4026.97C2870.81 4048.5 2876.28 4069.51 2886.68 4089.37C2885.95 4093.02 2885.58 4094.85 2884.84 4098.51C2881.06 4099.41 2879.17 4099.86 2875.39 4100.75C2873.18 4099.38 2872.07 4098.69 2869.86 4097.31C2867.92 4088.07 2865.67 4077.65 2862.93 4066.29C2857.08 4042.01 2849.85 4017.75 2842.9 3993.62C2834.94 3966.01 2827.06 3938.29 2820.5 3910.34C2818.23 3900.67 2820.68 3894.97 2827.82 3893.28C2839.05 3890.63 2849.15 3891.14 2858.18 3894.86C2867.2 3898.57 2873.02 3905.58 2875.58 3915.94C2877.7 3924.54 2878.76 3928.84 2880.89 3937.45C2882.34 3943.33 2882.49 3948.97 2881.33 3954.38C2880.18 3959.79 2878.7 3965.54 2876.89 3971.63C2875.08 3977.73 2873.86 3981.34 2873.91 3981.79C2874.27 3985.17 2880.7 3995.93 2887.34 4009.56C2898.07 4031.59 2909.11 4054.85 2926.02 4072.77C2929.23 4076.17 2931.25 4078.99 2931.81 4081.23C2932.38 4083.47 2932.16 4085.53 2931.17 4087.42C2930.18 4089.31 2928.52 4090.54 2926.2 4091.12C2921.46 4092.3 2915.69 4088.52 2908.93 4079.78C2902.18 4071.03 2896.03 4060.97 2890.53 4049.65C2881.27 4030.59 2872.54 4010.85 2861.52 3992.69C2859.9 3993.07 2859.09 3993.27 2857.48 3993.65V3993.65ZM2958.28 3899.97C2963.8 3919.68 2969.33 3939.39 2974.87 3959.1C2974.92 3959.28 2974.94 3959.36 2974.99 3959.54C2992.1 3946.09 2985.82 3920.98 2980.45 3902.87C2977.68 3893.52 2974.76 3887.05 2971.3 3884.31C2967.61 3881.4 2958.41 3882.93 2957.22 3882.24C2957.14 3882.2 2955.94 3882.11 2953.64 3882.73C2955.49 3889.63 2956.42 3893.08 2958.28 3899.97ZM2951.21 3938.5C2948.33 3926.85 2946.89 3921.02 2944.01 3909.36C2940.72 3896.97 2935.5 3886.87 2934.01 3881.76C2932.37 3876.16 2935.52 3869.9 2939.8 3868.76C2945.44 3867.25 2948.26 3866.49 2953.9 3864.97C2966.21 3861.63 2976.24 3864.08 2983.91 3872.37C2990.69 3879.71 2995.66 3889.01 2998.78 3900.18C3002.73 3914.31 3004.78 3923.08 3004.93 3926.5C3005.09 3929.92 3005.14 3933.18 3005.08 3936.29C3005.03 3939.39 3004.64 3942.01 3003.91 3944.12C3003.18 3946.24 3002.14 3948.63 3000.81 3951.29C2999.47 3953.95 2997.78 3956.37 2995.73 3958.52C2991.19 3963.28 2985.34 3967.86 2978.23 3972.22C2981.73 3985.24 2983.48 3991.74 2986.99 4004.76C2993.03 4023.75 2999.08 4042.73 3005.14 4061.71C3005.81 4064.19 3005.22 4066.61 3003.38 4068.96C3001.54 4071.32 2999.13 4072.89 2996.17 4073.69C2992.93 4072.96 2991.32 4072.59 2988.09 4071.86C2982.37 4061.38 2977.06 4046.81 2972.14 4028.16C2966.93 4006.3 2964.32 3995.37 2959.09 3973.51C2957.1 3971.17 2955.8 3968.86 2955.2 3966.58C2955.09 3966.16 2955.03 3965.95 2954.93 3965.53C2956.02 3961 2954.78 3951.99 2951.21 3938.5V3938.5ZM3039.22 3910.75C3041.82 3922.11 3043.11 3927.79 3045.7 3939.15C3053.02 3964.85 3061.8 3993.43 3075.61 4013.48C3083.06 4024.29 3093.5 4031.63 3098.01 4031.29C3101.32 4031.04 3105.26 4027.54 3107.65 4023.61C3110.04 4019.69 3111.43 4014.96 3111.84 4009.42C3112.25 4003.89 3112.32 3998.13 3111.92 3992.29C3111.52 3986.56 3110.66 3980.43 3109.42 3974.07C3107.29 3963.06 3105.04 3953.74 3102.75 3946.18C3100.46 3938.62 3096.24 3927.25 3090.09 3912.06C3083.95 3896.88 3079.74 3885.45 3077.43 3877.79C3076.79 3875.66 3076.47 3874.6 3075.83 3872.48C3073.4 3865.18 3068.86 3859.39 3062.24 3855.11C3055.62 3850.83 3048.52 3849.82 3040.91 3852.06C3033.62 3854.2 3029.89 3859.51 3029.76 3867.98C3029.64 3875.05 3030.97 3883.39 3033.74 3892.95C3035.93 3900.07 3037.03 3903.63 3039.22 3910.75V3910.75ZM3031.78 3957.71C3030.59 3953.05 3030 3950.73 3028.82 3946.07C3028.54 3945.09 3028.24 3944.64 3027.92 3944.73C3027.3 3942.54 3026.99 3941.44 3026.37 3939.25C3020.32 3916.51 3013.22 3893.2 3012.94 3869.78C3012.8 3857.66 3014.06 3849.61 3016.31 3846.08C3018.56 3842.55 3021.18 3840.38 3024.04 3839.51C3047.12 3832.49 3071.09 3840.77 3085.82 3859.64C3095.07 3871.48 3103.25 3887.35 3109.33 3907.16L3110.01 3909.37C3114.45 3922.94 3116.68 3929.73 3121.13 3943.3C3130.48 3972.62 3144.75 4031.23 3103.02 4043.45C3090.69 4047.06 3079.35 4043.69 3069.3 4033.25C3059.68 4023.25 3052.6 4012.58 3047.91 4001.6C3040.83 3985.02 3035.36 3970.35 3031.78 3957.71V3957.71ZM3120.78 3865.57C3116.91 3855.62 3114.97 3850.65 3111.1 3840.7C3106.66 3826.5 3108.89 3818.02 3117.78 3815.2C3123.47 3813.39 3131.61 3812.17 3142.23 3811.48C3152.85 3810.79 3158.8 3812.36 3160.08 3816.26C3161.42 3820.35 3158.29 3827.15 3153.81 3828.67C3146.74 3831.07 3128.32 3829.85 3127.84 3830.73C3127.34 3831.65 3131.05 3839.18 3132.42 3843.48C3137.34 3860.91 3139.8 3869.63 3144.71 3887.05C3144.77 3887.25 3145.59 3888.71 3147.15 3891.45C3151.72 3889.8 3153.99 3888.97 3158.55 3887.31C3168.98 3883.95 3175.08 3884.97 3176.86 3890.43C3177.56 3892.58 3177.22 3894.77 3175.84 3897C3174.46 3899.23 3172.32 3900.82 3169.41 3901.76C3166.5 3902.7 3163.29 3903.52 3159.78 3904.21C3156.48 3905.27 3154.83 3905.8 3151.53 3906.85C3154.59 3914.27 3157.32 3921.75 3159.71 3929.28C3165 3947.57 3170.29 3965.86 3175.56 3984.15C3179.14 3995.4 3181.14 4000.95 3181.58 4000.81C3191.3 3997.39 3196.16 3995.66 3205.87 3992.18C3214.31 3989.44 3219.33 3990.48 3220.92 3995.35C3221.92 3998.37 3221.17 4001.05 3218.69 4003.37C3216.2 4005.7 3213.12 4007.46 3209.42 4008.66C3198.14 4012.33 3192.5 4014.14 3181.2 4017.72C3178.26 4018.65 3175.31 4018.59 3172.35 4017.53C3169.38 4016.48 3167.45 4014.69 3166.54 4012.18C3165.55 4009.01 3165.05 4007.42 3164.06 4004.25C3156.85 3984.19 3153.24 3974.16 3146.05 3954.09C3137.64 3924.58 3129.22 3895.07 3120.78 3865.57V3865.57ZM3200.8 3821.01C3209.19 3844.82 3217.58 3868.62 3225.98 3892.42C3225.64 3895.57 3226.15 3899.19 3227.53 3903.27C3228.34 3905.67 3228.74 3906.86 3229.55 3909.25C3235.46 3928.44 3238.41 3938.03 3244.31 3957.22C3248.93 3970.93 3254.97 3976.53 3262.41 3973.99C3267.85 3971.94 3270.56 3970.91 3276 3968.84C3287.85 3964.76 3294.78 3965.58 3296.81 3971.39C3297.55 3973.52 3297.14 3975.65 3295.58 3977.77C3294.02 3979.89 3291.65 3982.19 3289.5 3982.74C3282.53 3984.52 3266.55 3984.39 3258.61 3989.42C3255.87 3991.16 3252.53 3994.57 3249.22 3995.68C3245.91 3996.79 3243 3996.63 3240.47 3995.2C3237.95 3993.77 3236.28 3991.83 3235.48 3989.4C3228.13 3967.15 3221.7 3944.49 3215.35 3921.9C3209 3899.3 3202.5 3876.71 3195.15 3854.41C3194.86 3853.54 3194.71 3853.1 3194.42 3852.22C3189.01 3840.18 3185.28 3831.04 3183.2 3824.81C3176.91 3805.93 3177.43 3795.27 3184.73 3792.81C3186.89 3792.09 3189.02 3792.18 3191.11 3793.1C3193.19 3794.02 3194.58 3795.49 3195.27 3797.54C3197.49 3806.93 3198.59 3811.62 3200.8 3821.01V3821.01ZM3368.85 3881.38C3374.18 3893.64 3376.85 3899.77 3382.19 3912.03C3385.84 3921.73 3384.89 3930.62 3379.29 3938.68C3373.69 3946.74 3365.82 3952.65 3355.71 3956.35C3340.43 3961.94 3327.47 3960.73 3316.96 3953.01C3309.49 3947.51 3303.92 3941.78 3300.36 3935.79C3296.8 3929.82 3294.15 3925.17 3292.39 3921.88C3290.63 3918.59 3288.63 3913.96 3286.31 3908.2C3283.08 3900.16 3280.45 3893.57 3278.67 3888.53C3276.88 3883.43 3275.98 3880.87 3274.18 3875.76C3267.87 3858.11 3260.74 3839.63 3258.15 3821.77C3257.03 3814.09 3256.88 3806.14 3256.89 3798.95C3256.9 3791.76 3257.95 3785.83 3259.97 3781.19C3264.87 3769.92 3272.41 3762.33 3282.73 3758.55C3293.05 3754.77 3299.13 3755.35 3300.98 3760.35C3301.84 3762.66 3301.52 3764.95 3300.02 3767.19C3298.52 3769.45 3296.48 3771.04 3293.92 3771.98C3291.17 3772.67 3289.79 3773.01 3287.04 3773.69C3279.75 3776.35 3276.69 3785.11 3277.86 3799.94C3279.82 3824.85 3286.4 3849.39 3294.83 3872.83C3301.52 3891.43 3306.74 3904.06 3310.58 3910.59C3314.42 3917.11 3318.08 3922.47 3321.29 3926.61C3324.53 3930.8 3327.73 3934.1 3330.91 3936.22C3338.4 3941.23 3348.34 3942.96 3354.07 3939.41C3367.43 3931.14 3359.1 3902.34 3352.51 3886.5C3350.5 3881.08 3349.5 3878.36 3347.48 3872.94C3345.61 3872.76 3342.94 3873.31 3339.47 3874.6C3336.96 3875.59 3335.7 3876.09 3333.2 3877.07C3325.71 3879.83 3321.14 3878.92 3319.49 3874.39C3318.47 3871.59 3318.78 3869.08 3320.41 3866.85C3322.03 3864.61 3324.37 3862.94 3327.42 3861.82C3327.44 3861.88 3327.45 3861.9 3327.47 3861.96C3329.24 3861.31 3330.12 3860.99 3331.88 3860.34C3351.2 3853.21 3361.97 3852.55 3364.25 3858.6C3366.09 3867.71 3367.01 3872.26 3368.85 3881.38H3368.85ZM3408.81 3821.48C3417.48 3842.05 3426.16 3862.61 3434.84 3883.18C3436.21 3886.67 3436.9 3888.42 3438.27 3891.92C3439.49 3895.21 3440.1 3896.85 3441.31 3900.14C3443.04 3899.47 3443.9 3899.13 3445.62 3898.45C3449.34 3896.85 3451.19 3896.05 3454.91 3894.44C3463.82 3890.9 3469.25 3891.53 3471.19 3896.39C3472.18 3898.87 3471.94 3901.42 3470.47 3904.06C3468.99 3906.69 3466.81 3908.58 3463.93 3909.73C3458.18 3912.02 3455.3 3913.16 3449.54 3915.43C3439.61 3919.34 3432.72 3921.39 3430.25 3922.31C3428.74 3922.88 3427.32 3923.78 3426.36 3924.15C3418.55 3927.17 3413.81 3926.46 3412.12 3922.05C3411.42 3920.24 3411.4 3918.27 3412.05 3916.14C3412.71 3914.03 3413.66 3912.67 3414.9 3912.08C3418.6 3910.65 3420.46 3909.94 3424.16 3908.5C3423.81 3906.85 3423.64 3906.03 3423.3 3904.38C3414.49 3883.86 3405.7 3863.34 3396.91 3842.81C3389.04 3820.77 3381.17 3798.74 3373.29 3776.7C3368.95 3765.51 3364.36 3755.19 3359.53 3745.73C3357.14 3746.65 3355.94 3747.12 3353.56 3748.04C3350.72 3749.26 3349.3 3749.87 3346.47 3751.09C3343.4 3752.27 3340.79 3752.63 3338.64 3752.2C3336.48 3751.76 3334.82 3750 3333.65 3746.93C3331.94 3742.42 3336.23 3738.22 3346.5 3734.27C3361.39 3728.53 3368.82 3725.62 3383.67 3719.73C3392.08 3716.39 3397.11 3716.74 3398.75 3720.84C3399.47 3722.65 3399.22 3724.68 3398 3726.94C3396.78 3729.19 3395 3730.79 3392.66 3731.72C3386.25 3734.27 3383.04 3735.54 3376.63 3738.06C3380.59 3745.76 3384.56 3754.68 3388.53 3764.8C3395.3 3783.69 3402.06 3802.58 3408.81 3821.48H3408.81ZM3513.01 3740.06C3513.99 3741.99 3514.47 3742.95 3515.45 3744.88C3526.98 3772.95 3575.32 3870.78 3528.54 3891.22C3517.88 3895.88 3508.07 3895.14 3499.62 3889.35C3490.93 3883.39 3484.3 3876.6 3479.86 3868.99C3473.01 3857.27 3466.19 3843.39 3459.42 3827.38C3449.64 3804.26 3440.22 3780.97 3430.77 3757.71C3423.46 3741.21 3419.8 3732.96 3412.49 3716.46C3412.76 3711.59 3414.14 3708.66 3416.62 3707.65C3419.1 3706.64 3422.02 3707.52 3425.4 3710.29C3428.77 3713.07 3431.28 3716.45 3432.92 3720.44C3443.74 3746.88 3454.56 3773.32 3465.38 3799.77C3468.22 3806.7 3473.18 3816.69 3480.3 3829.74C3487.42 3842.79 3492.41 3852.77 3495.26 3859.7C3501.1 3873.93 3515.41 3879.22 3524.67 3872.5C3551.4 3853.06 3494.43 3737.32 3481.68 3706.76C3478.92 3700.24 3477.54 3696.98 3474.77 3690.46C3473.9 3688.56 3473.46 3687.61 3472.58 3685.71C3471.62 3683.44 3471.45 3681.51 3472.08 3679.9C3472.7 3678.3 3474.4 3676.91 3477.16 3675.73C3479.92 3674.55 3482.2 3674.1 3483.96 3674.33C3485.57 3674.54 3487.09 3675.25 3488.28 3676.49C3490.1 3678.41 3491.88 3681.42 3493.65 3685.24C3497.8 3697.26 3499.88 3703.26 3504.02 3715.28C3507.62 3725.19 3509.42 3730.15 3513.01 3740.06V3740.06ZM3585.37 3847.42C3591.11 3845.93 3593.97 3845.18 3599.71 3843.66C3603.81 3841.86 3606.68 3838.68 3608.31 3834.14C3609.94 3829.6 3610.42 3824.61 3609.76 3819.18C3608.5 3808.74 3606.27 3799.98 3603.12 3792.91C3599.96 3785.83 3595.54 3779.41 3589.87 3773.62C3584.2 3767.84 3578.17 3762.8 3571.78 3758.51C3565.39 3754.21 3558.99 3749.75 3552.59 3745.19C3537.41 3734.4 3526.73 3721.9 3520.6 3707.78C3516.85 3699.13 3515.08 3690.76 3515.3 3682.73C3515.72 3667.78 3520.71 3658.19 3530.32 3653.93C3533.92 3652.33 3537.82 3651.88 3542.03 3652.58C3546.24 3653.28 3548.92 3654.89 3550.05 3657.41C3552.03 3661.82 3550.5 3665.14 3545.49 3667.38C3543.28 3668.37 3540.14 3668.21 3538.26 3668.58C3533.09 3669.6 3530.43 3680.52 3533.97 3694.88C3534.74 3698.01 3535.98 3701.53 3537.69 3705.43C3539.41 3709.33 3542.43 3713.74 3546.78 3718.66C3551.13 3723.58 3555.7 3727.65 3560.48 3730.86C3565.26 3734.08 3570.46 3737.66 3576.08 3741.61C3581.71 3745.56 3587.12 3749.41 3592.24 3753.18C3604.05 3761.88 3613.29 3774 3620.04 3788.93C3625.25 3800.43 3627.34 3812.97 3626.09 3826.2C3625.47 3832.72 3623.24 3838.93 3619.3 3844.66C3615.36 3850.4 3609.92 3854.86 3603 3858.02C3603.12 3858.3 3603.18 3858.44 3603.3 3858.72C3593.94 3861.49 3587.46 3859.88 3583.88 3853.95C3584.48 3851.34 3584.78 3850.03 3585.37 3847.42V3847.42ZM946.778 858.413C961.202 857.781 980.463 892.243 990.528 907.582C1024.36 959.155 1053.27 1014.25 1081.52 1068.82C1097.33 1099.36 1128.65 1160.92 1128.65 1160.92C1129.08 1160.77 1118.49 1091.75 1114.04 1057.16C1104.23 980.986 1068.71 876.455 1073.63 829.182C1074.32 822.557 1086.05 813.659 1095.71 810.965C1102.2 811.836 1105.44 812.283 1111.91 813.191C1112.51 819.82 1114.94 838.464 1119.34 869.073C1123.29 896.526 1127.22 924.001 1130.99 951.483C1134.15 974.454 1137.31 997.433 1140.46 1020.4C1143.6 1043.25 1146.72 1066.12 1149.81 1088.96C1152.74 1110.61 1155.63 1132.3 1158.32 1153.99C1160.7 1173.27 1162.71 1190.99 1164.27 1207.09C1167.55 1241.01 1167.41 1258.57 1163.61 1259.72C1158.08 1261.39 1151.1 1260.94 1148.09 1257.99C1106.99 1217.68 1073.48 1124.61 1036.89 1057.86C1003.23 996.462 944.681 922.733 931.452 875.462C929.939 870.053 939.187 858.745 946.778 858.413ZM1316.08 1201.75C1308.62 1165.45 1301.19 1129.14 1293.8 1092.82C1291.25 1081.88 1285.53 1066.16 1276.48 1045.7C1267.43 1025.25 1261.28 1008.54 1258.19 995.516C1255.1 982.502 1248.78 967.266 1239.06 949.878C1229.35 932.495 1219.13 917.113 1209.2 903.865C1188.01 875.62 1167.02 845.441 1157.86 810.584C1157.15 807.885 1158.54 805.047 1161.99 802.137C1165.44 799.232 1169.32 797.237 1173.6 796.161C1177.88 795.088 1183.52 798.221 1190.45 805.573C1197.37 812.929 1204.44 822.769 1211.64 835.084C1218.83 847.403 1225.7 859.812 1232.24 872.295C1238.78 884.781 1244.91 896.949 1250.63 908.773C1256.35 920.599 1262.38 931.544 1262.38 931.544C1262.53 931.505 1261.71 920.031 1260.08 907.448C1258.45 894.867 1256.81 881.835 1255.5 868.616C1254.18 855.186 1253.77 841.143 1253.21 827.69C1252.45 809.702 1254.11 782.41 1270.7 776.398C1280.98 772.673 1289.69 774.499 1290.49 778.502C1296.89 810.281 1294.97 843.792 1294.09 876.157C1293.21 908.853 1292.24 942.204 1298.95 974.498C1299.91 982.452 1300.39 986.427 1301.36 994.376C1302.11 997.776 1302.49 999.475 1303.24 1002.87C1315.37 1052.22 1327.45 1101.58 1339.47 1150.95C1342.77 1161.95 1344.41 1167.45 1347.68 1178.46C1348.79 1183.5 1349.35 1186.03 1350.45 1191.07C1351.54 1196 1350.41 1200.42 1347.11 1204.31C1343.81 1208.21 1339.85 1210.68 1335.21 1211.74C1330.57 1212.79 1326.45 1212.35 1322.84 1210.41C1319.23 1208.46 1316.97 1205.58 1316.08 1201.75V1201.75ZM1390.93 774.635C1396.42 813.376 1401.96 852.112 1407.53 890.841C1409.58 902.451 1412.75 916.714 1412.75 916.714C1413.85 916.975 1425.43 900.738 1431.39 891.008C1432.28 870.709 1432.76 860.557 1433.79 840.248C1434.03 837.556 1433.88 834.545 1433.34 831.221C1431.86 822.174 1427.86 811.484 1421.22 799.366C1412.08 782.713 1401.85 774.434 1390.93 774.635V774.635ZM1425.42 1168.61C1405.43 1058.03 1385.54 947.435 1365.75 836.821C1361.41 813.647 1357.07 790.47 1352.74 767.296C1351.91 762.882 1352.46 759.543 1354.4 757.276C1356.33 755.017 1362.14 752.973 1371.84 751.227C1381.53 749.482 1391.69 749.652 1402.25 751.749C1412.81 753.845 1422.3 757.453 1429.83 762.69C1437.43 767.979 1444.35 774.79 1450.3 782.184C1461.76 796.422 1469 813.131 1471.55 831.467C1474.72 854.172 1470.6 876.453 1464.85 897.524C1464.11 900.233 1462.2 906.178 1459.65 915.11C1457.09 924.045 1455.28 929.603 1455.24 930.885C1454.12 960.936 1479.35 1003.46 1496.69 1036.6C1506.95 1056.21 1517.94 1075.92 1528.53 1095.58C1542 1120.58 1550.2 1136.51 1553.53 1143.23C1553.61 1143.79 1553.65 1144.07 1553.72 1144.62C1555.47 1157.42 1554.92 1165.1 1552.08 1167.66C1549.24 1170.22 1546.07 1171.76 1542.55 1172.26C1535.11 1173.32 1527.16 1169.29 1518.54 1160.19C1518.43 1159.41 1518.37 1159.02 1518.25 1158.25C1506.71 1105.16 1480.18 1055.36 1454.59 1008.36C1442.63 986.384 1430.09 964.374 1418.82 941.865C1431.85 1016.24 1444.88 1090.61 1457.91 1164.98C1458.91 1170.69 1458.6 1175.31 1457.01 1178.82C1455.41 1182.33 1451.79 1184.59 1446.15 1185.61C1440.49 1186.64 1435.98 1185.91 1432.59 1183.4C1429.2 1180.89 1427.08 1177.44 1426.25 1173.02C1425.91 1171.26 1425.75 1170.38 1425.42 1168.61V1168.61ZM1549.49 849.653C1546.03 819.912 1542.56 790.172 1539.11 760.432C1535.31 757.699 1533.12 754.016 1532.53 749.373C1531.95 744.733 1533.43 740.397 1537 736.369C1540.56 732.348 1545.11 730 1550.62 729.344C1567.58 727.326 1577.57 740.004 1580.57 767.159C1589.99 833.138 1599.29 899.135 1608.47 965.151C1611.55 969.898 1614.79 979.815 1618.18 994.883C1621.56 1009.95 1623.68 1021.73 1624.56 1030.2C1625.45 1038.67 1628.04 1048.93 1632.27 1061C1636.5 1073.07 1641.82 1085.18 1648.19 1097.34C1654.56 1109.5 1662.49 1119.64 1671.94 1127.8C1681.38 1135.97 1689.9 1139.75 1697.61 1139.13C1705.33 1138.5 1710.93 1136.35 1714.44 1132.61C1717.95 1128.88 1720.19 1123.79 1721.13 1117.35C1722.61 1107.13 1722.98 1096.49 1722.21 1085.48C1719.6 1048.14 1716.99 1010.81 1714.39 973.473C1713.54 961.341 1710.92 943.42 1706.43 919.728C1701.94 896.038 1699.2 878.131 1698.32 865.997C1698.2 864.431 1698.14 863.648 1698.03 862.08C1696.53 848.792 1695.78 842.149 1694.28 828.863C1690.21 796.231 1686.1 763.605 1681.92 730.987C1681.57 726.324 1684.15 722.325 1689.69 719.014C1695.23 715.708 1701.12 713.843 1707.34 713.432C1714.6 718.351 1718.22 720.822 1725.42 725.785C1725.65 729.598 1725.76 731.502 1726 735.312C1724.78 749.445 1724.19 756.513 1723.03 770.646C1726.12 818.775 1732.19 866.712 1737.95 914.561C1743.15 957.795 1748.86 1001.23 1751.46 1044.65C1752.81 1067.31 1753.29 1082.51 1753.02 1090.11C1752.76 1097.72 1751.67 1105.89 1749.8 1114.62C1747.92 1123.36 1745.08 1130.66 1741.28 1136.53C1736.75 1143.52 1730.76 1148.86 1723.37 1152.64C1721.7 1154.09 1719.79 1155.87 1717.65 1157.99C1714.06 1161.53 1710.62 1164.89 1707.33 1168.06C1704.04 1171.22 1701.81 1173.52 1700.65 1174.93C1699.49 1176.33 1697.61 1178.6 1695.03 1181.72C1692.45 1184.85 1690.62 1187.4 1689.51 1189.37C1688.41 1191.34 1687.02 1193.91 1685.35 1197.06C1683.68 1200.21 1682.55 1202.95 1681.99 1205.25C1680.41 1211.74 1679.99 1218.62 1680.64 1225.8C1681.29 1232.97 1684.18 1236.33 1689.32 1235.88C1696.94 1235.21 1704.85 1231.46 1713.18 1224.62C1715.08 1228.3 1716.02 1230.14 1717.91 1233.83C1718.29 1238.86 1715 1243.38 1708.08 1247.4C1701.15 1251.43 1694.31 1253.75 1687.51 1254.35C1680.7 1254.96 1674.72 1252.51 1669.5 1246.99C1664.29 1241.47 1661.26 1234.73 1660.47 1226.72C1658.97 1211.45 1662.9 1196.38 1672.52 1181.58C1677.7 1173.64 1683.66 1166.31 1690.42 1159.63C1669.71 1159.25 1650.05 1150.05 1636.06 1134.4C1616.59 1112.62 1603.31 1087.18 1593.68 1060.6C1583.17 1031.55 1573.96 1000.11 1568.16 968.961C1560.81 929.549 1554.72 889.609 1549.49 849.653V849.653ZM1913.76 955.264C1914.18 918.868 1914.6 882.473 1915.04 846.077C1915.01 823.805 1912.88 801.694 1910.17 779.825C1907.09 754.947 1905.09 738.329 1905.08 730.56C1905.08 722.798 1906.97 717.085 1910.77 713.44C1914.57 709.798 1919.38 707.972 1925.13 708.022C1948.14 708.223 1951.66 737.917 1950.72 754.888C1948.56 793.627 1946.02 873.005 1946.02 873.005C1946.09 873.025 1951.95 860.547 1959.28 845.145C1966.61 829.747 1974.21 814.096 1982.28 798.766C1990.32 783.503 1999.24 767.173 2008.77 750.984C2019.64 732.529 2036.05 698.717 2055.18 696.176C2059.51 695.6 2065.12 698.131 2069.01 701.244C2072.89 704.355 2075.21 708.636 2074.5 711.944C2069.76 733.78 2046.79 759.477 2032.89 781.693C2016.66 807.646 1998.62 834.37 1988.16 863.511C1988.04 867.55 1987.98 869.572 1987.87 873.611C2006.53 919.525 2020.59 967.758 2034.71 1014.99C2047.09 1056.38 2066.7 1103.41 2068.35 1142.35C2068.53 1146.62 2065.83 1150.96 2061.71 1153.9C2057.58 1156.83 2053.08 1158.16 2048.17 1157.9C2042.57 1156.68 2039.77 1156.09 2034.15 1154.91C2027.37 1106.66 2020.04 1057.94 2008.24 1011.2C1998.05 970.848 1965.85 894.124 1965.85 894.124C1962.68 893.876 1945.18 926.588 1944.58 930.813C1942.95 942.153 1942.39 951.557 1942.3 958.292C1943.2 993.862 1944.07 1029.43 1944.89 1065C1944.62 1083.86 1944.48 1093.29 1944.21 1112.15C1943.91 1132.55 1936.86 1142.62 1923.05 1142.53C1911.2 1142.45 1905.24 1132.75 1905.27 1113.43C1905.32 1086.52 1907.36 1059.57 1909.4 1032.73C1911.36 1006.97 1913.53 981.141 1913.76 955.264V955.264ZM2248.52 973.786C2248.94 941.249 2249.33 908.652 2249.86 876.106C2250.37 845.179 2250.95 826.481 2251.71 820.071C2252.47 813.661 2253.35 809.1 2253.35 809.1C2252.78 808.745 2221.36 877.243 2211.29 907.993C2198.94 945.718 2172.3 1013.21 2178.54 1023.95C2181.76 1029.49 2210.09 1033.79 2221.93 1035.18C2233.77 1036.57 2246.27 1037.68 2247.3 1036.58C2252.18 1031.39 2248.25 994.706 2248.52 973.786V973.786ZM2250.7 1163.28C2238.34 1161.61 2232.78 1155.93 2234.03 1146.09C2237.18 1121.31 2240.32 1096.52 2243.47 1071.74C2238.04 1067.28 2227.8 1062.78 2212.69 1058.4C2197.58 1054.03 2177.38 1046.87 2171.99 1048.96C2168.31 1050.39 2162.57 1064.59 2158.63 1076.99C2154.69 1089.4 2150.67 1101.9 2146.6 1114.49C2142.52 1127.08 2136.48 1142.13 2132.4 1143.93C2124.87 1147.25 2105.66 1135.19 2106.62 1130.26C2111.24 1106.54 2133.54 1053.88 2143.71 1018.13C2158.81 965.084 2174.14 911.684 2191.9 859.836C2202.95 827.587 2215.2 795.331 2231.39 765.057C2244.88 739.83 2256.85 727.816 2266.72 729.001C2276.57 730.187 2287.52 733.816 2288.77 736.832C2296.34 755.118 2287.49 811.56 2287.93 848.534C2288.39 887.523 2289.93 927.557 2285.25 966.141C2281.72 995.181 2280.93 1025.01 2279.86 1054.37C2278.74 1085.21 2277.7 1116.32 2273.43 1146.87C2271.66 1159.62 2264.04 1165.07 2250.7 1163.28ZM2401 967.005C2399.97 974.234 2399.45 977.848 2398.41 985.077C2398.23 986.071 2398.15 986.569 2397.97 987.564C2391.6 1037.12 2382.67 1086.35 2373.88 1135.52C2372.84 1141.27 2372.32 1144.14 2371.29 1149.89C2389.78 1153.23 2399.01 1154.98 2417.45 1158.66C2425.03 1165.89 2428.26 1172.01 2427.25 1176.96C2426.24 1181.91 2423.94 1185.69 2420.37 1188.31C2416.8 1190.92 2413.46 1191.92 2410.35 1191.3C2407.24 1190.68 2403.07 1188 2399.93 1187.25C2397.43 1186.65 2392.6 1186.97 2388.32 1186.16C2380.67 1184.36 2376.84 1183.48 2369.17 1181.74C2364.23 1185.59 2358.72 1186.97 2352.58 1185.9C2346.45 1184.82 2341.59 1182.13 2338.01 1177.82C2334.42 1173.51 2333.01 1168.97 2333.81 1164.17C2337 1154.46 2338.6 1149.6 2341.83 1139.9C2352.63 1075.41 2360.33 1010.37 2367.82 945.462C2375.31 880.557 2382.38 815.389 2392.89 750.887C2393.46 747.383 2395.64 744.84 2399.42 743.286C2403.2 741.733 2407.67 741.385 2412.81 742.259C2417.96 743.134 2422.38 745.514 2426.06 749.385C2429.73 753.254 2431.15 757.503 2430.34 762.106C2420.7 830.427 2410.92 898.726 2401 967.005V967.005ZM2540.25 769.043C2552.9 775.849 2551.87 815.311 2552.69 833.623C2555.46 895.245 2552.24 957.368 2548.74 1018.72C2546.78 1053.06 2542.36 1121.99 2542.36 1121.99C2542.8 1122.08 2568.77 1057.27 2582.52 1025.23C2612.82 954.665 2635.41 846.631 2663.7 808.424C2667.66 803.073 2682.26 801.385 2691.94 803.993C2697.08 808.05 2699.64 810.086 2704.74 814.165C2701.89 820.176 2694.49 837.463 2682.71 866.045C2672.14 891.683 2661.54 917.329 2650.81 942.908C2641.84 964.289 2632.87 985.677 2623.9 1007.05C2614.98 1028.31 2606.03 1049.59 2597.08 1070.82C2588.59 1090.94 2580.05 1111.09 2571.32 1131.13C2563.57 1148.94 2556.29 1165.21 2549.45 1179.86C2535.03 1210.73 2525.99 1225.77 2522.15 1224.83C2516.56 1223.45 2510.81 1219.51 2509.73 1215.44C2494.95 1159.75 2513.54 1062.66 2516.12 986.581C2518.49 916.604 2505.84 823.504 2518.54 775.932C2519.99 770.495 2533.62 765.481 2540.25 769.043V769.043ZM2810.68 803.898C2803.57 801.693 2798.31 797.883 2794.89 792.451C2791.47 787.012 2790.54 781.655 2792.12 776.368C2793.71 771.082 2797.77 767.071 2804.33 764.371C2810.89 761.673 2817.63 761.383 2824.49 763.513C2831.36 765.645 2836.64 769.661 2840.3 775.533C2843.96 781.402 2844.87 787.152 2843.08 792.767C2841.29 798.383 2837.2 802.182 2830.86 804.191C2824.5 806.203 2817.79 806.101 2810.68 803.898V803.898ZM2768.94 1066.56C2762.72 1064.3 2759.6 1063.18 2753.37 1060.96C2747.19 1058.99 2742.44 1058.98 2739.13 1060.88C2721.5 1117.32 2703.87 1173.76 2686.23 1230.2C2706.82 1235.46 2717.95 1238.57 2719.68 1239.14C2742.19 1246.51 2751.75 1255.21 2748.48 1264.77C2748.22 1265.52 2748.09 1265.89 2747.84 1266.63C2743.47 1270.68 2737.62 1272.92 2730.28 1273.41C2722.93 1273.9 2716.74 1273.52 2711.69 1272.26C2706.64 1270.99 2700.22 1269.1 2692.43 1266.6C2685.13 1264.26 2681.47 1263.11 2674.16 1260.83C2659.68 1256.31 2651.44 1250.9 2649.69 1244.53C2648.88 1241.6 2649.12 1238.02 2650.36 1233.89C2682.2 1127.21 2714.04 1020.53 2745.88 913.844C2747.75 907.569 2749.02 897.787 2749.62 884.502C2750.23 871.214 2751.45 861.329 2753.35 854.87C2753.57 854.115 2753.69 853.738 2753.91 852.985C2764.41 845.162 2772.03 840.422 2776.69 838.698C2797.6 842.901 2808.06 845.1 2828.95 849.691C2835.84 851.903 2842.26 855.812 2848.16 861.399C2854.06 866.988 2856.1 872.456 2854.33 877.782C2850.72 888.615 2838.75 890.574 2818.31 884.006C2810.6 881.292 2806.74 879.949 2799.02 877.289C2795.72 876.254 2793.26 875.589 2791.67 875.287C2784.06 906.034 2776.38 936.766 2768.66 967.484C2766.37 974.811 2762.5 985.313 2757.07 999.002C2751.64 1012.7 2745.35 1028.26 2745.94 1029.19C2746.25 1029.69 2751.66 1029.9 2755.9 1030.26C2765.26 1031.05 2772.41 1032.28 2777.3 1033.86C2782.19 1035.45 2786.07 1038.39 2788.92 1042.68C2791.76 1046.96 2792.47 1051.24 2791.06 1055.51C2789.65 1059.77 2786.83 1063.08 2782.63 1065.43C2778.44 1067.79 2773.88 1068.16 2768.94 1066.56V1066.56Z" stroke="white" stroke-width="15"/>
</svg>
