<?xml version="1.0" encoding="UTF-8"?>
<svg width="69px" height="71px" viewBox="0 0 69 71" version="1.1" xmlns="http://www.w3.org/2000/svg" xmlns:xlink="http://www.w3.org/1999/xlink">
    <!-- Generator: Sketch 54.1 (76490) - https://sketchapp.com -->
    <title>loop</title>
    <desc>Created with Sketch.</desc>
    <g id="v4" stroke="none" stroke-width="1" fill="none" fill-rule="evenodd">
        <g id="Stovyklos-individualus_puslapis" transform="translate(-160.000000, -2418.000000)" fill="#F0764B" fill-rule="nonzero">
            <g id="loop" transform="translate(160.000000, 2418.000000)">
                <path d="M32.7431828,64.5578804 C30.6324151,62.4500339 28.2050323,60.5529721 25.5665726,59.288092 C24.8278039,58.8666949 23.7724201,59.3934843 23.7724201,60.3420152 C23.7724201,61.6067231 23.6668817,62.871431 23.5613433,64.2417034 C16.2790223,62.8716032 10.3690452,61.0799337 6.14750975,54.1240403 C2.34812788,47.8003286 1.92614678,39.6851197 2.98153064,32.5186138 C4.03674204,25.4573281 6.88645089,18.3960424 11.6356782,13.0210339 C12.6910621,11.8617183 13.8519843,10.8077951 15.0129066,9.96465648 C16.490444,11.440149 18.8122884,11.9671106 20.9228837,11.756326 C21.8729016,11.6509337 21.8729016,10.3862258 20.9228837,10.2808335 C19.5510571,10.0700488 18.1790581,9.64847951 17.2290402,8.69994859 C18.8122884,7.96220232 20.5009026,7.4352407 22.2948827,7.11906373 C23.3502666,8.80534091 25.1444191,10.1754411 27.04411,10.5970104 C27.8884171,10.8077951 28.5216474,9.54308718 27.6775128,9.12151788 C26.7274949,8.59455626 25.7776494,7.85680999 25.0388807,6.90827908 C26.6221289,6.90827908 28.2050323,7.0136714 29.8936464,7.32984837 C30.8434919,7.54063302 31.687799,6.06514048 30.6324151,5.53817886 C28.8382626,4.69504027 27.1496484,4.27347097 25.4610343,4.06268632 C26.199803,3.32494006 26.9385717,2.69258611 27.8884171,2.27101681 C29.1548777,1.63866287 28.2050323,-0.36379129 26.9385717,0.0577780067 C24.9333423,0.690131952 23.5613433,2.48180146 22.1893443,3.957294 C19.9728658,4.16807865 17.8620981,4.90582492 15.8568687,6.06514048 C15.7515028,4.58964795 16.8068867,3.21954773 16.7011758,1.74405519 C16.7011758,1.11170125 15.9624071,0.584739628 15.3291768,0.9009166 C13.4294859,2.16562449 13.2184091,5.11660957 13.746101,7.4352407 C6.46395246,12.9156416 1.71489757,23.5602663 0.448264493,31.5700829 C-1.97911837,46.535793 5.4085686,67.4034731 23.6667093,66.4549422 C23.7722476,67.0872962 23.8779585,67.8250424 23.9833244,68.4573964 C24.0888628,68.8789657 24.5111888,69.0897503 24.9333423,69.0897503 C25.0387083,69.7221043 25.5665726,70.2490659 26.4107073,69.9328889 C28.6271858,69.1951427 30.5267043,67.6142578 32.4263952,66.3493777 C33.059798,66.0332007 33.2708748,65.0846698 32.7431828,64.5578804 Z" id="Path"></path>
                <path d="M46.4436662,4.28419889 C46.5497456,3.54851443 46.5497456,2.81282997 46.5497456,2.07714551 C46.5497456,1.23636327 45.8071893,0.815972155 45.0648064,1.02616771 C41.8824223,1.55165661 38.8061177,2.70773219 35.8357193,3.86380777 C34.881004,4.28419889 34.6690184,5.44027447 35.5174809,5.96576336 C37.4270846,7.22693672 39.548674,8.9085012 41.6702634,9.74928344 C42.0944079,9.959479 42.6249786,9.85438122 42.943217,9.53908788 C43.0491231,9.53908788 43.0491231,9.64418566 43.1553759,9.64418566 C43.4736144,9.85438122 43.7918528,9.85438122 44.0040117,9.64418566 C44.3222501,9.74928344 44.7463946,9.64418566 44.8526475,9.22379454 C45.2769653,8.3830123 45.5952037,7.43713228 45.9134421,6.59635004 C72.9637067,7.54223006 71.5846736,51.3680042 52.8086076,62.4032711 C52.8086076,62.4032711 52.8086076,62.4032711 52.7025282,62.2983451 C51.1113361,61.2473673 49.6262236,59.9861939 47.9289521,59.0401422 C47.2924752,58.6199228 46.4438395,59.5658028 47.0803163,60.09112 C48.3532699,61.1420978 49.5199708,62.2983451 50.7930977,63.3493229 C49.5199708,63.8748118 48.141111,64.2952029 46.7620779,64.6104962 C45.3830448,63.1391273 44.0040117,61.6675867 42.2006607,60.6167806 C41.4581044,60.09112 40.5033892,61.2473673 41.2459455,61.8779539 C42.3067402,62.7187362 43.1553759,63.769714 44.0040117,64.8206918 C42.6249786,64.8206918 41.2459455,64.715594 39.6545801,64.4003007 C38.4878793,64.1901051 38.0633881,65.7665718 39.2304356,66.0818651 C40.7153748,66.5022563 42.0944079,66.8175496 43.5796938,66.9226474 C42.7310581,67.6583318 41.7763429,68.3938446 40.6094687,68.8144074 C39.3363417,69.340068 40.2912303,71.4418519 41.5641839,70.916363 C43.6857733,70.1806785 45.4891243,68.3940163 46.9742368,66.8175496 C48.5654289,66.607354 50.0505414,66.2920607 51.4295745,65.7665718 C51.3234951,66.2922324 51.2172423,66.8175496 51.1113361,67.4481363 C50.8990038,68.4991141 50.3687798,69.340068 50.7930977,70.2857763 C50.8990038,70.6010697 51.535654,70.8112652 51.8538924,70.7061674 C53.65707,70.0755808 53.65707,66.5022563 53.7633228,64.9257896 C53.7633228,64.8206918 53.7633228,64.7154223 53.7633228,64.6104962 C73.9184219,53.6799837 76.5704087,5.86049386 46.4436662,4.28419889 Z M39.8669124,5.23007891 C39.7608329,5.23007891 39.6545801,5.33517669 39.548674,5.44027447 L39.4425945,5.54537224 C39.2304356,5.44027447 39.0182767,5.33517669 38.8061177,5.23007891 C39.2304356,5.01988335 39.6547535,4.91478557 40.0790713,4.80968779 C40.0790713,4.80968779 39.9728185,5.01971162 39.8669124,5.23007891 Z" id="Shape"></path>
            </g>
        </g>
    </g>
</svg>