<?xml version="1.0" encoding="UTF-8"?>
<svg width="24px" height="19px" viewBox="0 0 24 19" version="1.1" xmlns="http://www.w3.org/2000/svg" xmlns:xlink="http://www.w3.org/1999/xlink">
    <!-- Generator: Sketch 54.1 (76490) - https://sketchapp.com -->
    <title>mail</title>
    <desc>Created with Sketch.</desc>
    <g id="v4" stroke="none" stroke-width="1" fill="none" fill-rule="evenodd">
        <g id="Kontaktai" transform="translate(-876.000000, -534.000000)" fill="#A0A0A0">
            <g id="Group-8" transform="translate(875.000000, 422.000000)">
                <g id="Group-5" transform="translate(1.000000, 61.000000)">
                    <g id="mail" transform="translate(0.000000, 51.000000)">
                        <g id="mail-envelope-back-hand-drawn-outline-(1)">
                            <path d="M23.5605468,0.859650883 C23.5461754,0.435275537 23.2757454,0.0311414295 22.7438997,0.0493638561 C15.3564219,0.300015193 7.95261526,-0.526900462 0.611754417,0.663773079 C-0.0113162915,0.76492614 -0.116552192,1.36844441 0.108497074,1.82809582 C0.110609003,1.83648983 0.112926975,1.84467132 0.115193436,1.85306533 C0.071770105,1.96192175 0.0495175798,2.08820369 0.0597681643,2.23589567 C0.424771392,7.49357043 0.97526384,12.7337134 1.47316409,17.9789034 C1.47852118,18.0350583 1.49052312,18.0868036 1.50376132,18.1375395 C1.49490151,18.5818373 1.76600114,19.0213006 2.32118105,18.9991999 C9.20004444,18.7229416 16.0959578,18.9668458 22.9561229,18.2702498 C23.0149478,18.2643527 23.0693429,18.2513898 23.1221927,18.2362487 C23.5284558,18.213298 23.9273014,17.9345958 23.94533,17.3956264 C24.1279347,11.9477584 23.8127421,6.51083444 23.5922773,1.06944786 C23.5890321,0.994539341 23.5772877,0.924784104 23.5605468,0.859650883 Z M22.270776,11.2938761 C21.122453,9.58968076 19.8240284,8.00098267 18.4604946,6.46498618 C19.6909254,5.60699145 20.8771086,4.68179157 22.0065788,3.67350168 C22.1159355,6.21359107 22.2223562,8.75325544 22.270776,11.2938761 Z M21.4630402,1.82650202 C18.7751206,4.34178128 15.7527435,6.34215746 12.5003721,8.0004514 C9.22863275,6.32000366 6.26116578,4.13012488 3.21334248,2.06711243 C9.2672141,1.39973598 15.3807864,1.93254273 21.4630402,1.82650202 Z M1.83188304,3.22181926 C3.46146844,4.31171162 5.06117775,5.44936481 6.68973294,6.53707898 C5.32697181,8.86673387 3.83770095,11.1239241 2.74511226,13.5843235 C2.41230308,10.1327941 2.08649932,6.68083958 1.83188304,3.22181926 Z M22.2676339,16.5803986 C15.9243249,17.1685102 9.55170645,17.0055709 3.19165657,17.2227524 C3.25990795,17.1355717 3.31533322,17.0293184 3.35108149,16.8995833 C4.29732892,13.4326471 6.33348649,10.5153056 8.12332097,7.47226666 C9.3355685,8.24382439 10.5717169,8.97505903 11.8573153,9.62373491 C11.8723564,9.63101326 11.8869854,9.63420085 11.9017689,9.6406823 C12.1444862,9.85515442 12.4909457,9.94982603 12.8545066,9.7696737 C14.2869099,9.05963659 15.6744991,8.27862232 17.0155743,7.42615277 C18.9726118,9.61050639 20.7957736,11.8868753 22.2236439,14.4845008 C22.2453813,14.5241864 22.2707245,14.5554779 22.2953465,14.5889477 C22.2914317,15.2528709 22.2840657,15.916741 22.2676339,16.5803986 Z" id="Shape" fill-rule="nonzero"></path>
                        </g>
                    </g>
                </g>
            </g>
        </g>
    </g>
</svg>