<?xml version="1.0" encoding="UTF-8"?>
<svg width="75px" height="80px" viewBox="0 0 75 80" version="1.1" xmlns="http://www.w3.org/2000/svg" xmlns:xlink="http://www.w3.org/1999/xlink">
    <!-- Generator: Sketch 55.2 (78181) - https://sketchapp.com -->
    <title>noun_adventure_1078347</title>
    <desc>Created with Sketch.</desc>
    <g id="v5-copy" stroke="none" stroke-width="1" fill="none" fill-rule="evenodd">
        <g id="Camping-event-individual-page-w-komanda" transform="translate(-744.000000, -2149.000000)" fill="#F07B52" fill-rule="nonzero">
            <g id="noun_adventure_1078347" transform="translate(744.000000, 2149.000000)">
                <path d="M65.8654169,20 C65.2981253,20 64.9199309,19.5 65.0144795,18.9 C65.1090281,18 65.1090281,17 65.1090281,16 C65.1090281,15.4 65.5817711,15.1 66.0545141,15 C66.6218056,15 67,15.5 67,16 C67,17 66.9054514,18 66.8109028,19 C66.9054514,19.6 66.4327084,20 65.8654169,20 C65.9599655,20 65.9599655,20 65.8654169,20 Z" id="Path"></path>
                <path d="M55.2577335,43.8717949 C54.7931291,44.1794872 54.3285247,44.4871795 53.8639203,44.7948718 C53.6316181,44.8974359 53.3993159,45 53.1670137,45 C52.8185604,45 52.4701071,44.8974359 52.2378049,44.5897436 C51.8893516,44.1794872 51.8893516,43.4615385 52.4701071,43.1538462 C52.9347115,42.8461538 53.2831648,42.5384615 53.7477692,42.2307692 C54.2123736,41.9230769 54.5608269,41.6153846 55.0254313,41.3076923 C55.4900357,40.8974359 56.1869423,40.8974359 56.6515467,41.3076923 C57.1161511,41.7179487 57.1161511,42.3333333 56.6515467,42.7435897 C56.0707912,43.2564103 55.7223379,43.5641026 55.2577335,43.8717949 Z" id="Path"></path>
                <path d="M65.0711261,27 C64.9586833,27 64.8462404,27 64.8462404,27 C64.2840262,26.896167 63.8342548,26.2731692 64.0591405,25.7540043 C64.2840262,24.8195076 64.5089119,23.8850109 64.7337976,22.8466812 C64.8462404,22.3275163 65.4084546,21.9121844 66.0831117,22.0160174 C66.6453259,22.1198504 67.0950973,22.6390152 66.9826544,23.262013 C66.7577687,24.3003428 66.5328831,25.3386725 66.3079974,26.2731692 C66.0831117,26.6885011 65.6333403,27 65.0711261,27 Z" id="Path"></path>
                <path d="M62.7933761,33.3565885 C62.6022499,33.7855295 62.3155606,34 61.9333081,34 C61.837745,34 61.6466188,34 61.5510557,33.8927648 C61.0732402,33.6782943 60.882114,33.0348828 61.0732402,32.4987066 C61.4554926,31.6408247 61.837745,30.6757075 62.1244344,29.7105903 C62.3155606,29.1744141 62.8889392,28.8527083 63.3667547,29.0671788 C63.8445702,29.2816493 64.1312595,29.9250608 63.9401333,30.461237 C63.5578809,31.3191189 63.1756285,32.3914714 62.7933761,33.3565885 Z" id="Path"></path>
                <path d="M43.414247,50.772288 C42.4397136,51.1500455 41.4651803,51.5278031 40.4906469,51.9055606 C40.3823655,52 40.1658025,52 40.057521,52 C39.6243951,52 39.1912692,51.8111212 39.0829877,51.4333637 C38.8664247,50.9611667 39.0829877,50.3945304 39.6243951,50.2056516 C40.5989284,49.8278941 41.5734618,49.4501365 42.4397136,49.072379 C42.9811211,48.8835002 43.63081,49.072379 43.8473729,49.5445759 C44.1722174,50.0167729 43.9556544,50.5834092 43.414247,50.772288 Z" id="Path"></path>
                <path d="M7.95626765,67.6820715 C7.71980922,67.8940238 7.48335079,68 7.12866314,68 C6.77397549,68 6.53751705,67.8940238 6.30105862,67.6820715 C5.82814175,67.2581668 5.94637097,66.6223097 6.41928784,66.1984051 C7.24689235,65.562548 8.19272609,64.8207148 9.13855982,64.1848578 C9.61147669,63.8669292 10.4390812,63.9729054 10.7937689,64.3968101 C11.1484565,64.8207148 11.0302273,65.562548 10.5573104,65.8804765 C9.61147669,66.4103574 8.78387217,67.0462144 7.95626765,67.6820715 Z" id="Path"></path>
                <path d="M3.1844544,73 C2.95688346,73 2.84309799,73 2.61552705,72.8830254 C2.0465997,72.6490763 1.81902876,71.8302543 2.16038517,71.362356 C2.61552705,70.3095849 3.29823988,69.3737883 3.9809527,68.4379918 C4.32230911,67.9700935 5.11880741,67.8531189 5.57394929,68.2040426 C6.02909117,68.5549663 6.14287664,69.3737883 5.80152023,69.8416866 C5.23259288,70.6605086 4.66366552,71.5963052 4.20852364,72.5321017 C3.9809527,72.7660509 3.63959629,73 3.1844544,73 Z" id="Path"></path>
                <path d="M16.4096848,62.2335144 C15.4275612,62.8223429 14.5545624,63.2934058 13.6815637,63.8822343 C13.463314,64 13.3541891,64 13.1359394,64 C12.8085649,64 12.3720655,63.7644686 12.1538158,63.4111715 C11.8264413,62.8223429 12.044691,62.1157487 12.5903152,61.7624516 C13.463314,61.173623 14.4454376,60.7025602 15.4275612,60.1137317 C15.9731854,59.8782003 16.6279345,59.995966 16.8461842,60.5847945 C17.1735587,61.173623 16.955309,61.8802173 16.4096848,62.2335144 Z" id="Path"></path>
                <path d="M26.7011695,55.1028545 C27.6534915,54.7234254 28.6058136,54.4388536 29.5581356,54.0594245 C30.0872034,53.8697099 30.7220847,54.1542818 30.9337118,54.6285681 C31.1453389,55.1028545 30.8278982,55.6719982 30.2988305,55.8617127 C29.3465085,56.1462845 28.3941864,56.5257136 27.4418644,56.9051427 C27.3360509,56.9051427 27.2302373,57 27.0186102,57 C26.595356,57 26.1721018,56.8102855 26.0662882,56.4308564 C25.8546611,55.7668554 26.1721018,55.2925691 26.7011695,55.1028545 Z" id="Path"></path>
                <path d="M23.3402367,58.8667274 C22.3820426,59.2444849 21.4238485,59.6222425 20.4656544,59.9055606 C20.3591884,60 20.1462564,60 20.0397904,60 C19.6139263,60 19.2945283,59.8111212 19.0815963,59.4333637 C18.8686643,58.9611667 19.0815963,58.3945304 19.6139263,58.2056516 C20.5721204,57.8278941 21.5303145,57.4501365 22.4885086,57.072379 C23.0208387,56.8835002 23.6596347,57.072379 23.8725667,57.5445759 C24.1919648,58.1112123 23.8725667,58.6778486 23.3402367,58.8667274 Z" id="Path"></path>
                <path d="M32.6648936,53.1102362 C33.6223404,52.7322835 34.5797872,52.4488189 35.537234,52.0708661 C36.0691489,51.8818898 36.7074468,52.0708661 36.9202128,52.6377953 C37.1329787,53.1102362 36.9202128,53.6771654 36.2819149,53.8661417 C35.3244681,54.2440945 34.3670213,54.5275591 33.4095745,54.9055118 C33.3031915,54.9055118 33.1968085,55 32.9840426,55 C32.5585106,55 32.1329787,54.8110236 32.0265957,54.4330709 C31.9202128,53.8661417 32.1329787,53.2992126 32.6648936,53.1102362 Z" id="Path"></path>
                <path d="M50.4915617,47.1419355 C49.623827,47.7225806 48.6476255,48.3032258 47.671424,48.883871 C47.4544904,49 47.3460235,49 47.1290898,49 C46.6952225,49 46.369822,48.7677419 46.1528883,48.4193548 C45.8274878,47.8387097 46.0444215,47.1419355 46.5867557,46.7935484 C47.5629572,46.2129032 48.4306919,45.7483871 49.2984265,45.1677419 C49.8407607,44.8193548 50.4915617,45.0516129 50.8169622,45.516129 C51.1423627,46.0967742 51.0338959,46.7935484 50.4915617,47.1419355 Z" id="Path"></path>
                <path d="M58.9924208,35.5364807 C59.3147077,34.9642346 59.9592817,34.8497854 60.4964266,35.193133 C61.0335716,35.5364807 61.1410005,36.223176 60.8187136,36.795422 C60.1741396,37.7110157 59.5295657,38.7410587 58.8849918,39.5422031 C58.6701338,39.7711016 58.3478468,40 58.0255599,40 C57.8107019,40 57.5958439,39.8855508 57.3809859,39.7711016 C56.95127,39.4277539 56.843841,38.6266094 57.2735569,38.1688126 C57.8107019,37.2532189 58.3478468,36.3376252 58.9924208,35.5364807 Z" id="Path"></path>
                <path d="M2.08514177,75.055334 C2.6929434,75.1605397 3.17918471,75.7917736 2.93606406,76.3178019 C2.6929434,77.1594472 2.57138308,78.1062981 2.44982275,79.0531491 C2.44982275,79.5791774 1.84202111,80 1.23421947,80 C1.23421947,80 1.23421947,80 1.11265915,80 C0.383297182,80 -0.102944127,79.4739717 0.0186162001,78.8427378 C0.140176528,77.7906812 0.261736855,76.7386246 0.50485751,75.7917736 C0.747978165,75.2657453 1.47734013,74.8449227 2.08514177,75.055334 Z" id="Path"></path>
                <path d="M71.6886792,10.6886792 C71.4811321,10.8962264 71.1698113,11 70.9622642,11 C70.754717,11 70.4433962,10.8962264 70.2358491,10.6886792 L66.5,6.95283019 L62.7641509,10.6886792 C62.5566038,10.8962264 62.245283,11 62.0377358,11 C61.8301887,11 61.5188679,10.8962264 61.3113208,10.6886792 C60.8962264,10.2735849 60.8962264,9.6509434 61.3113208,9.23584906 L65.0471698,5.5 L61.3113208,1.76415094 C60.8962264,1.3490566 60.8962264,0.726415094 61.3113208,0.311320755 C61.7264151,-0.103773585 62.3490566,-0.103773585 62.7641509,0.311320755 L66.5,4.04716981 L70.2358491,0.311320755 C70.6509434,-0.103773585 71.2735849,-0.103773585 71.6886792,0.311320755 C72.1037736,0.726415094 72.1037736,1.3490566 71.6886792,1.76415094 L67.9528302,5.5 L71.6886792,9.23584906 C72.1037736,9.6509434 72.1037736,10.2735849 71.6886792,10.6886792 Z" id="Path"></path>
                <path d="M1.82911392,12.1908397 C1.39873418,12.6183206 0.753164557,12.6183206 0.32278481,12.1908397 C-0.107594937,11.7633588 -0.107594937,11.1221374 0.32278481,10.6946565 L7.74683544,3.32061069 C7.74683544,3.32061069 7.74683544,3.32061069 7.74683544,3.32061069 C7.96202532,3.10687023 8.17721519,3 8.5,3 C8.82278481,3 9.03797468,3.10687023 9.25316456,3.32061069 C9.25316456,3.32061069 9.25316456,3.32061069 9.25316456,3.32061069 L16.6772152,10.6946565 C17.1075949,11.1221374 17.1075949,11.7633588 16.6772152,12.1908397 C16.4620253,12.4045802 16.1392405,12.5114504 15.9240506,12.5114504 C15.6012658,12.5114504 15.3860759,12.4045802 15.1708861,12.1908397 L9.57594937,6.63358779 L9.57594937,9.83969466 L16.6772152,16.8931298 C17.1075949,17.3206107 17.1075949,17.9618321 16.6772152,18.389313 C16.2468354,18.8167939 15.6012658,18.8167939 15.1708861,18.389313 L9.57594937,12.8320611 L9.57594937,16.0381679 L16.6772152,23.0916031 C17.1075949,23.519084 17.1075949,24.1603053 16.6772152,24.5877863 C16.4620253,24.8015267 16.1392405,24.9083969 15.9240506,24.9083969 C15.6012658,24.9083969 15.3860759,24.8015267 15.1708861,24.5877863 L9.57594937,19.0305344 L9.57594937,29.9312977 C9.57594937,30.5725191 9.14556962,31 8.5,31 C7.85443038,31 7.42405063,30.5725191 7.42405063,29.9312977 L7.42405063,18.9236641 L1.82911392,24.480916 C1.39873418,24.9083969 0.753164557,24.9083969 0.32278481,24.480916 C-0.107594937,24.0534351 -0.107594937,23.4122137 0.32278481,22.9847328 L7.42405063,15.9312977 L7.42405063,12.7251908 L1.82911392,18.2824427 C1.61392405,18.6030534 1.29113924,18.6030534 1.07594937,18.6030534 C0.753164557,18.6030534 0.537974684,18.4961832 0.32278481,18.2824427 C-0.107594937,17.8549618 -0.107594937,17.2137405 0.32278481,16.7862595 L7.42405063,9.73282443 L7.42405063,6.52671756 L1.82911392,12.1908397 Z" id="Path"></path>
                <path d="M26.8291139,12.2260536 C26.6139241,12.440613 26.2911392,12.5478927 26.0759494,12.5478927 C25.7531646,12.5478927 25.5379747,12.440613 25.3227848,12.2260536 C24.8924051,11.7969349 24.8924051,11.1532567 25.3227848,10.7241379 L32.7468354,3.32183908 C32.7468354,3.32183908 32.7468354,3.32183908 32.7468354,3.32183908 C32.9620253,3.10727969 33.1772152,3 33.5,3 C33.8227848,3 34.0379747,3.10727969 34.2531646,3.32183908 C34.2531646,3.32183908 34.2531646,3.32183908 34.2531646,3.32183908 L41.6772152,10.7241379 C42.1075949,11.1532567 42.1075949,11.7969349 41.6772152,12.2260536 C41.2468354,12.6551724 40.6012658,12.6551724 40.1708861,12.2260536 L34.5759494,6.54022989 L34.5759494,9.75862069 L41.6772152,16.8390805 C42.1075949,17.2681992 42.1075949,17.9118774 41.6772152,18.3409962 C41.2468354,18.7701149 40.6012658,18.7701149 40.1708861,18.3409962 L34.5759494,12.7624521 L34.5759494,15.9808429 L41.6772152,23.0613027 C42.1075949,23.4904215 42.1075949,24.1340996 41.6772152,24.5632184 C41.2468354,24.9923372 40.6012658,24.9923372 40.1708861,24.5632184 L34.5759494,18.9846743 L34.5759494,29.9272031 C34.5759494,30.5708812 34.1455696,31 33.5,31 C32.8544304,31 32.4240506,30.5708812 32.4240506,29.9272031 L32.4240506,18.9846743 L26.8291139,24.5632184 C26.6139241,24.7777778 26.2911392,24.8850575 26.0759494,24.8850575 C25.7531646,24.8850575 25.5379747,24.7777778 25.3227848,24.5632184 C24.8924051,24.1340996 24.8924051,23.4904215 25.3227848,23.0613027 L32.4240506,15.9808429 L32.4240506,12.7624521 L26.8291139,18.3409962 C26.6139241,18.6628352 26.2911392,18.6628352 26.0759494,18.6628352 C25.7531646,18.6628352 25.5379747,18.5555556 25.3227848,18.3409962 C24.8924051,17.9118774 24.8924051,17.2681992 25.3227848,16.8390805 L32.4240506,9.75862069 L32.4240506,6.54022989 L26.8291139,12.2260536 Z" id="Path"></path>
                <path d="M67.5759494,77.9312977 C67.5759494,78.5725191 67.1455696,79 66.5,79 C65.8544304,79 65.4240506,78.5725191 65.4240506,77.9312977 L65.4240506,67.0305344 L59.8291139,72.5877863 C59.6139241,72.8015267 59.2911392,72.9083969 59.0759494,72.9083969 C58.7531646,72.9083969 58.5379747,72.8015267 58.3227848,72.5877863 C57.8924051,72.1603053 57.8924051,71.519084 58.3227848,71.0916031 L65.4240506,64.0381679 L65.4240506,60.8320611 L59.8291139,66.389313 C59.6139241,66.6030534 59.2911392,66.7099237 59.0759494,66.7099237 C58.7531646,66.7099237 58.5379747,66.6030534 58.3227848,66.389313 C57.8924051,65.9618321 57.8924051,65.3206107 58.3227848,64.8931298 L65.4240506,57.8396947 L65.4240506,54.6335878 L59.8291139,60.1908397 C59.6139241,60.4045802 59.2911392,60.5114504 59.0759494,60.5114504 C58.7531646,60.5114504 58.5379747,60.4045802 58.3227848,60.1908397 C57.8924051,59.7633588 57.8924051,59.1221374 58.3227848,58.6946565 L65.7468354,51.3206107 C65.7468354,51.3206107 65.7468354,51.3206107 65.7468354,51.3206107 C65.9620253,51.1068702 66.1772152,51 66.5,51 C66.8227848,51 67.0379747,51.1068702 67.2531646,51.3206107 L74.6772152,58.6946565 C75.1075949,59.1221374 75.1075949,59.7633588 74.6772152,60.1908397 C74.2468354,60.6183206 73.6012658,60.6183206 73.1708861,60.1908397 L67.5759494,54.6335878 L67.5759494,57.8396947 L74.6772152,64.8931298 C75.1075949,65.3206107 75.1075949,65.9618321 74.6772152,66.389313 C74.2468354,66.8167939 73.6012658,66.8167939 73.1708861,66.389313 L67.5759494,60.8320611 L67.5759494,64.0381679 L74.6772152,71.0916031 C75.1075949,71.519084 75.1075949,72.1603053 74.6772152,72.5877863 C74.2468354,73.0152672 73.6012658,73.0152672 73.1708861,72.5877863 L67.5759494,67.0305344 L67.5759494,77.9312977 L67.5759494,77.9312977 Z" id="Path"></path>
            </g>
        </g>
    </g>
</svg>