<?xml version="1.0" encoding="UTF-8"?>
<svg width="60px" height="94px" viewBox="0 0 60 94" version="1.1" xmlns="http://www.w3.org/2000/svg" xmlns:xlink="http://www.w3.org/1999/xlink">
    <!-- Generator: Sketch 55.2 (78181) - https://sketchapp.com -->
    <title>motivation</title>
    <desc>Created with Sketch.</desc>
    <g id="v5" stroke="none" stroke-width="1" fill="none" fill-rule="evenodd">
        <g id="Camping-event-individual-page-motyvatorius" transform="translate(-166.000000, -1845.000000)" fill="#F07B52" fill-rule="nonzero">
            <g id="motivation" transform="translate(166.000000, 1845.000000)">
                <g id="Group">
                    <polygon id="Path" points="5.53696552 39.9554071 5.53696552 37.0204027 8.45710345 37.0204027 8.45710345 34.5248274 5.53696552 34.5248274 5.53696552 31.589615 3.0542069 31.589615 3.0542069 34.5248274 0.134068966 34.5248274 0.134068966 37.0204027 3.0542069 37.0204027 3.0542069 39.9554071"></polygon>
                    <polygon id="Path" points="14.2893103 16.6515177 16.772069 16.6515177 16.772069 13.7165133 19.6922069 13.7165133 19.6922069 11.2209381 16.772069 11.2209381 16.772069 8.28593363 14.2893103 8.28593363 14.2893103 11.2209381 11.3691724 11.2209381 11.3691724 13.7165133 14.2893103 13.7165133"></polygon>
                    <polygon id="Path" points="56.9457931 23.2612566 56.9457931 20.3258363 54.4630345 20.3258363 54.4630345 23.2612566 51.5431034 23.2612566 51.5431034 25.7568319 54.4630345 25.7568319 54.4630345 28.6918363 56.9457931 28.6918363 56.9457931 25.7568319 59.865931 25.7568319 59.865931 23.2612566"></polygon>
                    <polygon id="Path" points="38.4426207 20.0346858 38.4426207 32.6988982 40.9253793 32.6988982 40.9253793 17.5391106 38.949931 17.5391106 41.6097931 14.0548717 44.2698621 17.5391106 42.3271034 17.5391106 42.3271034 32.6988982 44.8098621 32.6988982 44.8098621 20.0346858 49.3048966 20.0346858 41.6097931 9.95568142 33.9148966 20.0346858"></polygon>
                    <rect id="Rectangle" x="42.326069" y="35.4043097" width="2.48275862" height="3.17021239"></rect>
                    <rect id="Rectangle" x="42.326069" y="47.9838805" width="2.48275862" height="3.17042035"></rect>
                    <rect id="Rectangle" x="42.326069" y="41.6939912" width="2.48275862" height="3.17042035"></rect>
                    <rect id="Rectangle" x="38.4405517" y="41.6939912" width="2.48275862" height="3.17042035"></rect>
                    <rect id="Rectangle" x="38.4405517" y="35.4043097" width="2.48275862" height="3.17021239"></rect>
                    <polygon id="Path" points="25.7385517 22.8172522 28.2213103 22.8172522 28.2213103 7.65725664 26.2456552 7.65725664 28.905931 4.1730177 31.5657931 7.65725664 29.6232414 7.65725664 29.6232414 22.8172522 32.106 22.8172522 32.106 10.1528319 36.6008276 10.1528319 28.905931 0.0738274336 21.2108276 10.1528319 25.7385517 10.1528319"></polygon>
                    <rect id="Rectangle" x="29.6222069" y="38.1022345" width="2.48275862" height="3.17042035"></rect>
                    <rect id="Rectangle" x="29.6222069" y="31.8123451" width="2.48275862" height="3.17042035"></rect>
                    <rect id="Rectangle" x="29.6222069" y="25.5226637" width="2.48275862" height="3.17021239"></rect>
                    <rect id="Rectangle" x="25.7366897" y="31.8123451" width="2.48275862" height="3.17042035"></rect>
                    <rect id="Rectangle" x="25.7366897" y="25.5226637" width="2.48275862" height="3.17021239"></rect>
                    <path d="M48.7905517,30.9700885 L47.3197241,32.9806903 C55.0171034,38.6695619 58.4356552,48.7069735 55.8256552,57.9572389 L52.3297241,70.3544248 L52.3297241,93.9259646 L54.8124828,93.9259646 L54.8124828,70.7013097 L58.2142759,58.6379071 C59.6743448,53.4629159 59.4986897,48.0660265 57.7067586,43.0299558 C55.9787586,38.1743982 52.8955862,34.0040841 48.7905517,30.9700885 Z" id="Path"></path>
                    <path d="M37.3113103,79.9798584 L16.0276552,79.9798584 C14.4041379,79.9798584 13.0835172,78.6522124 13.0835172,77.0207301 L13.0835172,64.9315398 L8.58972414,63.8569867 C8.18772414,63.7609071 7.86703448,63.485354 7.70958621,63.1012434 C7.55213793,62.7173407 7.58689655,62.2947566 7.80475862,61.9420487 L13.5883448,52.5807301 L13.5883448,49.3009204 C13.5883448,42.8791814 16.4623448,36.9216195 21.4733793,32.9557345 L19.9373793,30.9948363 C14.3244828,35.4369602 11.1053793,42.1090885 11.1053793,49.3007124 L11.1053793,51.8690752 L5.69544828,60.6254248 C5.05158621,61.6681593 4.94896552,62.9171947 5.41386207,64.0516416 C5.87875862,65.1862965 6.82655172,66.0000619 8.01455172,66.2845575 L10.6005517,66.9030442 L10.6005517,77.0205221 C10.6005517,80.0283142 13.0351034,82.4752257 16.0274483,82.4752257 L28.5244138,82.4752257 L28.5244138,93.9259646 L31.0071724,93.9259646 L31.0071724,82.4752257 L38.4566897,82.4752257 L45.5503448,74.1158805 L43.6615862,72.4964602 L37.3113103,79.9798584 Z" id="Path"></path>
                </g>
            </g>
        </g>
    </g>
</svg>