<?xml version="1.0" encoding="UTF-8"?>
<svg width="62px" height="80px" viewBox="0 0 62 80" version="1.1" xmlns="http://www.w3.org/2000/svg" xmlns:xlink="http://www.w3.org/1999/xlink">
    <!-- Generator: Sketch 55.2 (78181) - https://sketchapp.com -->
    <title>leader</title>
    <desc>Created with Sketch.</desc>
    <g id="v5" stroke="none" stroke-width="1" fill="none" fill-rule="evenodd">
        <g id="Camping-event-individual-page-motyvatorius" transform="translate(-166.000000, -2215.000000)" fill-rule="nonzero" stroke="#F07B52" stroke-width="2.5">
            <g id="leader" transform="translate(167.000000, 2217.000000)">
                <g id="Group">
                    <path d="M58.5077714,0.193769231 L33.6974286,0.192923077 L33.6974286,28.7658462 L9.2512,28.7658462 C4.42162857,28.7658462 0.492228571,32.7106154 0.492228571,37.5590769 L0.492228571,52.7915385 C0.492228571,54.9086154 2.20828571,56.6313846 4.31711429,56.6313846 L5.23751429,56.6313846 L5.23751429,72.5069231 C5.23751429,74.624 6.95357143,76.3459231 9.0624,76.3459231 L16.2974857,76.3459231 C18.4063143,76.3459231 20.1223714,74.624 20.1223714,72.5069231 L20.1223714,37.015 L32.8023143,37.015 C33.0998429,37.015 33.3990571,36.9963846 33.6974286,36.9591538 L33.6974286,53.2230769 L38.2075571,53.2230769 L38.2075571,34.6686154 C39.4861714,33.3122308 40.2042857,31.559 40.2396857,29.689 L40.2565429,28.7666923 L38.2067143,28.7666923 L38.2067143,16.7961538 L58.5069286,16.7961538 L52.4467857,8.76869231 C52.3254143,8.60707692 52.3254143,8.382 52.4467857,8.22123077 L58.5077714,0.193769231 Z" id="Path"></path>
                    <path d="M12.6799429,25.6054615 C17.3055429,25.6054615 21.0689,21.8273846 21.0689,17.1845385 C21.0689,12.5416923 17.3055429,8.76361538 12.6799429,8.76361538 C8.05434286,8.76361538 4.29098571,12.5416923 4.29098571,17.1845385 C4.29098571,21.8273846 8.05434286,25.6054615 12.6799429,25.6054615 Z" id="Path"></path>
                </g>
            </g>
        </g>
    </g>
</svg>