<?xml version="1.0" encoding="UTF-8"?>
<svg width="24px" height="29px" viewBox="0 0 24 29" version="1.1" xmlns="http://www.w3.org/2000/svg" xmlns:xlink="http://www.w3.org/1999/xlink">
    <!-- Generator: Sketch 54.1 (76490) - https://sketchapp.com -->
    <title>telephone-auricular-hand-drawn-outline</title>
    <desc>Created with Sketch.</desc>
    <g id="v4" stroke="none" stroke-width="1" fill="none" fill-rule="evenodd">
        <g id="Kontaktai" transform="translate(-876.000000, -483.000000)" fill="#A0A0A0" fill-rule="nonzero">
            <g id="Group-8" transform="translate(875.000000, 422.000000)">
                <g id="Group-5" transform="translate(1.000000, 61.000000)">
                    <g id="telephone-auricular-hand-drawn-outline">
                        <path d="M1.124763,10.4253233 C2.67025098,12.6419098 4.75130687,14.5483368 6.92688784,16.4676657 C9.26422536,18.5298261 11.3296292,19.8430452 13.4268941,20.6003983 C13.5553413,20.6471183 13.6837328,20.6581447 13.807891,20.6338753 C16.3753305,20.7534036 18.5312489,20.0113396 20.1666388,18.4334305 C20.8975511,18.9604233 21.5593939,19.9414869 21.4230928,20.6439923 C21.3402093,21.0716908 20.9750316,21.3496806 20.3369733,21.4714823 C19.9590401,21.543097 19.7375718,21.8402977 19.7726636,22.2276987 C19.8065857,22.6020273 20.0953969,23 20.5635105,23 L20.5635105,23 C20.6140873,23 20.666168,22.9953962 20.7201425,22.984995 C22.2192313,22.6997869 23.1096721,21.5938524 22.9891346,20.1669593 C22.8955007,19.0563641 22.2288677,17.9708341 21.1967228,17.2357611 C21.281333,17.1168581 21.3644393,16.994488 21.4453733,16.8686508 C21.6314713,16.5791231 21.6108618,16.2498095 21.3944623,16.0005224 C21.3582565,15.8663302 21.2821128,15.7465178 21.1673125,15.6438133 C20.0308391,14.6266582 18.8256303,13.8729995 17.4831735,13.3400388 C17.2964627,13.2658665 17.111813,13.2672875 16.9511147,13.3430512 C15.7153259,13.5456183 14.4748025,13.4931577 13.2415203,13.1826003 C13.2296559,13.1724833 13.2174573,13.1626505 13.2039219,13.1535566 C10.838678,11.579342 8.73584293,9.64415549 6.95317885,7.39949151 C7.44674798,6.43610421 7.80240072,5.41076457 8.01089064,4.35041333 C8.0479877,4.16120293 8.02136249,3.97506173 7.94232236,3.83205981 C7.90444548,3.72799125 7.84289555,3.63216405 7.75962213,3.54719273 C6.68152366,2.44711242 5.51859214,1.28775112 4.20053252,0.263889241 C4.09715092,0.183805895 3.98558124,0.134755557 3.86860853,0.118272824 C3.57289038,-0.0673568463 3.20726712,-0.0339935222 2.94920304,0.214952576 C0.343663812,2.72703469 -1.08980888,7.13497207 1.0083473,10.1783097 C1.03185325,10.2651567 1.07062134,10.3481387 1.124763,10.4253233 Z M5.46734695,6.93132507 C5.38390642,7.08211365 5.35054134,7.24517903 5.3703153,7.40483419 C5.32191088,7.64394748 5.37610824,7.88061679 5.52460787,8.07482885 C7.41995566,10.5536045 9.73946877,12.7140928 12.4188122,14.4961604 C12.4680521,14.529069 12.5206342,14.5556119 12.5791762,14.577551 C12.6535931,14.6277949 12.7321877,14.6636022 12.818469,14.6854845 C14.2126165,15.0433871 15.6619641,15.1091476 17.1554271,14.8834478 C18.081461,15.2649946 18.9746869,15.8142675 19.813047,16.5181938 C18.5326415,18.2198371 16.6819104,19.0828502 14.3105394,19.0828502 C14.1354146,19.0828502 13.9583959,19.0782464 13.7793162,19.0696072 C11.4152978,18.1973864 9.41734821,16.6021989 7.61039837,15.0075798 C5.86065376,13.4640572 4.03771765,11.7998696 2.65643706,9.91464282 C2.62630267,9.79056763 2.56776061,9.67757566 2.48292755,9.57913396 C0.610417289,7.40898329 1.65765724,3.96289861 3.60848351,1.76523883 C4.59929805,2.56050225 5.50784179,3.46432437 6.42507492,4.39855428 C6.20332809,5.33630809 5.88961843,6.16590107 5.46734695,6.93132507 Z" id="Shape"></path>
                        <path d="M23.3376748,22 C23.2182838,22 23.0446635,22.0545361 22.8923303,22.3144829 C22.2914259,23.3402504 21.7120495,23.491125 20.9810623,22.8249871 C20.8680767,22.7220888 20.7499378,22.6701895 20.6293909,22.6701895 C20.366721,22.6701895 20.121678,22.9366961 20.033399,23.3180629 C19.9414115,23.7164723 20.0426459,24.1077431 20.2975137,24.3402933 C20.777823,24.7779326 21.281346,24.9992926 21.7936823,25 C21.7936823,25 21.7936823,25 21.7939231,25 C22.5662324,25 23.2964972,24.4793989 23.8497222,23.5356285 C24.0187191,23.2462271 24.047134,22.8746356 23.925046,22.5405376 C23.8069553,22.2175013 23.5709666,22 23.3376748,22 Z" id="Path"></path>
                        <path d="M20.5147793,27 C20.8330387,27 21.1567667,26.9586299 21.4766345,26.8778073 C21.8934384,26.772201 22.0358401,26.4420556 21.9925727,26.1621486 C21.9473215,25.871935 21.6938829,25.5783658 21.2967021,25.5783658 C21.2270025,25.5783658 21.1548366,25.5880971 21.0821345,25.6061216 C20.3786506,25.7848326 19.7551604,25.6460535 19.2588453,25.1966875 C19.1169797,25.0681192 18.9443927,25 18.7600639,25 C18.4660386,25 18.1763026,25.1798615 18.0559903,25.4376693 C17.9435058,25.6781717 18.0026432,25.9361712 18.2141548,26.1280171 C18.8447222,26.6986649 19.6399952,27 20.5147793,27 L20.5147793,27 Z" id="Path"></path>
                        <path d="M17.0059037,26.5505582 C16.2006377,26.2675496 15.4403467,26 14.6644704,26 C13.7608491,26 12.9945466,26.3639651 12.2537375,27.1448493 C12.0209579,27.3899562 11.9422515,27.7336482 12.0430002,28.0641188 C12.1590003,28.4436107 12.4837897,28.7190254 12.8149245,28.7190254 C12.9984987,28.7190254 13.1735008,28.6370519 13.3212842,28.4811056 C13.7497723,28.029336 14.2596944,27.8097229 14.880106,27.8097229 C15.6172971,27.8097229 16.4245113,28.1171405 17.204952,28.414659 C17.8900989,28.6759707 18.5986795,28.9455544 19.2476459,28.9978981 C19.267406,28.999322 19.2866652,29 19.3059243,29 L19.3059243,29 C19.7665853,29 19.9885107,28.5592822 19.9995319,28.1495502 C20.0122785,27.6743886 19.7646371,27.172784 19.2666268,27.1325092 C18.4839039,27.0704696 17.732352,26.806378 17.0059037,26.5505582 Z" id="Path"></path>
                    </g>
                </g>
            </g>
        </g>
    </g>
</svg>