<?xml version="1.0" encoding="UTF-8"?>
<svg width="68px" height="74px" viewBox="0 0 68 74" version="1.1" xmlns="http://www.w3.org/2000/svg" xmlns:xlink="http://www.w3.org/1999/xlink">
    <!-- Generator: Sketch 55.2 (78181) - https://sketchapp.com -->
    <title>guests</title>
    <desc>Created with Sketch.</desc>
    <g id="v5" stroke="none" stroke-width="1" fill="none" fill-rule="evenodd">
        <g id="Camping-event-individual-page-motyvatorius" transform="translate(-162.000000, -1734.000000)" fill="#F07B52" fill-rule="nonzero">
            <g id="guests" transform="translate(162.000000, 1735.000000)">
                <g id="noun_guests_1245604" transform="translate(0.000000, 29.000000)">
                    <g id="Group">
                        <path d="M34.0302222,0.649747126 C29.1317037,0.649747126 25.1465679,4.63286207 25.1465679,9.52889655 C25.1465679,14.424931 29.1317037,18.408046 34.0302222,18.408046 C38.9287407,18.408046 42.9138765,14.424931 42.9138765,9.52889655 C42.9138765,4.63286207 38.9287407,0.649747126 34.0302222,0.649747126 Z M34.0302222,16.3103448 C30.2885432,16.3103448 27.2453333,13.2678391 27.2453333,9.52889655 C27.2453333,5.78911494 30.2885432,2.74744828 34.0302222,2.74744828 C37.7710617,2.74744828 40.8151111,5.78911494 40.8151111,9.52889655 C40.8151111,13.2678391 37.7710617,16.3103448 34.0302222,16.3103448 Z" id="Shape"></path>
                        <path d="M5.35688889,12.224023 C5.35688889,16.3883793 8.74681481,19.7757471 12.9124444,19.7757471 C17.0780741,19.7757471 20.468,16.3883793 20.468,12.224023 C20.468,8.05966667 17.0780741,4.67145977 12.9124444,4.67145977 C8.74681481,4.67145977 5.35688889,8.05966667 5.35688889,12.224023 Z M18.3700741,12.224023 C18.3700741,15.2312874 15.9220741,17.678046 12.913284,17.678046 C9.90449383,17.678046 7.45649383,15.2312874 7.45649383,12.224023 C7.45649383,9.21591954 9.90449383,6.76916092 12.913284,6.76916092 C15.9220741,6.76916092 18.3700741,9.21591954 18.3700741,12.224023 Z" id="Shape"></path>
                        <path d="M54.8877531,19.7757471 C59.0542222,19.7757471 62.4441481,16.3883793 62.4441481,12.224023 C62.4441481,8.05966667 59.0542222,4.67145977 54.8877531,4.67145977 C50.721284,4.67145977 47.3321975,8.05966667 47.3321975,12.224023 C47.3321975,16.3883793 50.721284,19.7757471 54.8877531,19.7757471 Z M54.8877531,6.76916092 C57.8973827,6.76916092 60.3453827,9.21591954 60.3453827,12.224023 C60.3453827,15.2312874 57.8973827,17.678046 54.8877531,17.678046 C51.878963,17.678046 49.430963,15.2312874 49.430963,12.224023 C49.430963,9.21591954 51.878963,6.76916092 54.8877531,6.76916092 Z" id="Shape"></path>
                        <path d="M67.7901235,33.2572529 C67.7901235,26.146046 62.0017284,20.3614253 54.8877531,20.3614253 C51.2594074,20.3614253 47.7897284,21.9237931 45.3585185,24.5811609 C42.5537284,21.4933448 38.5207407,19.5408046 34.0302222,19.5408046 C29.4700247,19.5408046 25.3807901,21.5529195 22.5718025,24.7238046 C20.1363951,21.9766552 16.6197037,20.3614253 12.913284,20.3614253 C5.79846914,20.3614253 0.0109135802,26.1468851 0.0109135802,33.2572529 L0.0109135802,40.7527586 L18.7100741,40.7527586 L18.7100741,43.6652069 L49.3520494,43.6652069 L49.3520494,40.7527586 L67.7901235,40.7527586 L67.7901235,33.2572529 Z M2.10883951,38.6550575 L2.10883951,33.2572529 C2.10883951,27.3031379 6.95530864,22.4591264 12.9124444,22.4591264 C16.1504198,22.4591264 19.2087407,23.9375862 21.2529383,26.4237816 C19.648642,28.8445287 18.7092346,31.7410345 18.7092346,34.8548621 L18.7092346,38.6550575 L2.10883951,38.6550575 Z M47.2524444,41.5675057 L20.808,41.5675057 L20.808,34.8548621 C20.808,27.5674483 26.7391111,21.6393448 34.0302222,21.6393448 C41.3213333,21.6393448 47.2524444,27.5674483 47.2524444,34.8548621 L47.2524444,41.5675057 Z M65.691358,38.6550575 L49.3512099,38.6550575 L49.3512099,34.8548621 C49.3512099,31.6655172 48.3681481,28.7027241 46.6924938,26.2475747 C48.749284,23.8394138 51.6883951,22.4591264 54.8877531,22.4591264 C60.8448889,22.4591264 65.691358,27.3031379 65.691358,33.2572529 L65.691358,38.6550575 Z" id="Shape"></path>
                    </g>
                </g>
                <g id="noun_Science_1051524" transform="translate(6.000000, 7.000000)" stroke="#F07B52" stroke-width="0.5">
                    <g id="Group">
                        <path d="M19.5952381,5.61702128 C18.8095238,4.28297872 16.5952381,3.9787234 13.7857143,4.6106383 C12.952381,1.94255319 11.5714286,0.210638298 10,0.210638298 C8.42857143,0.210638298 7.04761905,1.91914894 6.21428571,4.6106383 C3.4047619,3.9787234 1.19047619,4.28297872 0.404761905,5.61702128 C0.0714285714,6.1787234 0.0238095238,6.85744681 0.214285714,7.62978723 C0.5,8.65957447 1.28571429,9.82978723 2.4047619,11 C1.26190476,12.1702128 0.5,13.3404255 0.214285714,14.393617 C-1.94289029e-16,15.1659574 0.0714285714,15.8446809 0.404761905,16.3829787 C0.928571429,17.2723404 2.07142857,17.693617 3.61904762,17.693617 C4.4047619,17.693617 5.26190476,17.5765957 6.21428571,17.3659574 C7.04761905,20.0574468 8.42857143,21.7659574 10,21.7659574 C11.5714286,21.7659574 12.952381,20.0574468 13.7857143,17.3659574 C14.7380952,17.5765957 15.5952381,17.693617 16.3809524,17.693617 C17.9285714,17.693617 19.0714286,17.2723404 19.5952381,16.3829787 C19.9285714,15.8212766 19.9761905,15.1425532 19.7857143,14.3702128 C19.5,13.3404255 18.7142857,12.1702128 17.5952381,11 C18.7380952,9.82978723 19.5,8.65957447 19.7857143,7.60638298 C20,6.83404255 19.9285714,6.15531915 19.5952381,5.61702128 Z M10,1.14680851 C11.1904762,1.14680851 12.1904762,2.69148936 12.8571429,4.84468085 C11.952381,5.10212766 11,5.45319149 10,5.87446809 C9.02380952,5.45319149 8.04761905,5.10212766 7.14285714,4.84468085 C7.80952381,2.69148936 8.80952381,1.14680851 10,1.14680851 Z M13.7142857,11 C13.7142857,11.6787234 13.6904762,12.3574468 13.6190476,13.0361702 C13.047619,13.4106383 12.4761905,13.7851064 11.8571429,14.112766 C11.2619048,14.4404255 10.6428571,14.7680851 10,15.0489362 C9.35714286,14.7680851 8.73809524,14.4404255 8.14285714,14.112766 C7.52380952,13.7617021 6.95238095,13.4106383 6.38095238,13.0361702 C6.30952381,12.3574468 6.28571429,11.6787234 6.28571429,11 C6.28571429,10.3212766 6.30952381,9.64255319 6.38095238,8.96382979 C6.95238095,8.5893617 7.52380952,8.21489362 8.14285714,7.88723404 C8.73809524,7.55957447 9.35714286,7.23191489 10,6.95106383 C10.6428571,7.23191489 11.2619048,7.55957447 11.8571429,7.88723404 C12.4761905,8.23829787 13.047619,8.5893617 13.6190476,8.96382979 C13.6904762,9.64255319 13.7142857,10.3212766 13.7142857,11 Z M14.6428571,9.6893617 C15.2142857,10.1106383 15.7619048,10.5553191 16.2380952,11 C15.7619048,11.4446809 15.2142857,11.8893617 14.6428571,12.3106383 C14.6666667,11.8893617 14.6666667,11.4446809 14.6666667,11 C14.6666667,10.5553191 14.6666667,10.1106383 14.6428571,9.6893617 Z M13.4761905,14.2531915 C13.3809524,14.9319149 13.2619048,15.587234 13.0952381,16.2191489 C12.452381,16.0319149 11.8095238,15.8212766 11.1666667,15.5638298 C11.547619,15.3765957 11.952381,15.1659574 12.3333333,14.9553191 C12.7142857,14.7212766 13.1190476,14.487234 13.4761905,14.2531915 Z M8.83333333,15.5638298 C8.19047619,15.8212766 7.52380952,16.0553191 6.9047619,16.2191489 C6.76190476,15.587234 6.61904762,14.9319149 6.52380952,14.2531915 C6.9047619,14.487234 7.28571429,14.7212766 7.66666667,14.9319149 C8.04761905,15.1425532 8.45238095,15.3531915 8.83333333,15.5638298 Z M5.35714286,12.3106383 C4.78571429,11.8893617 4.23809524,11.4446809 3.76190476,11 C4.23809524,10.5553191 4.78571429,10.1106383 5.35714286,9.6893617 C5.33333333,10.1106383 5.33333333,10.5553191 5.33333333,11 C5.33333333,11.4446809 5.33333333,11.8893617 5.35714286,12.3106383 Z M6.52380952,7.74680851 C6.61904762,7.06808511 6.73809524,6.41276596 6.9047619,5.78085106 C7.54761905,5.96808511 8.19047619,6.1787234 8.83333333,6.43617021 C8.45238095,6.62340426 8.04761905,6.83404255 7.66666667,7.04468085 C7.28571429,7.2787234 6.88095238,7.51276596 6.52380952,7.74680851 Z M12.3333333,7.06808511 C11.952381,6.85744681 11.547619,6.64680851 11.1666667,6.45957447 C11.8095238,6.20212766 12.4761905,5.96808511 13.0952381,5.80425532 C13.2380952,6.43617021 13.3809524,7.09148936 13.4761905,7.77021277 C13.1190476,7.51276596 12.7142857,7.2787234 12.3333333,7.06808511 Z M1.21428571,6.08510638 C1.57142857,5.47659574 2.4047619,5.21914894 3.5,5.21914894 C4.21428571,5.21914894 5.07142857,5.33617021 5.95238095,5.54680851 C5.73809524,6.43617021 5.57142857,7.41914894 5.45238095,8.44893617 C4.57142857,9.05744681 3.78571429,9.6893617 3.0952381,10.3446809 C2.07142857,9.29148936 1.38095238,8.26170213 1.14285714,7.37234043 C1,6.83404255 1.02380952,6.41276596 1.21428571,6.08510638 Z M1.21428571,15.9148936 C1.02380952,15.587234 0.976190476,15.1425532 1.11904762,14.6276596 C1.35714286,13.7382979 2.04761905,12.7085106 3.07142857,11.6553191 C3.76190476,12.287234 4.57142857,12.9425532 5.42857143,13.5510638 C5.52380952,14.5808511 5.71428571,15.5638298 5.92857143,16.4531915 C3.69047619,16.9914894 1.80952381,16.9212766 1.21428571,15.9148936 Z M10,20.8531915 C8.80952381,20.8531915 7.80952381,19.3085106 7.14285714,17.1553191 C8.04761905,16.8978723 9,16.5468085 10,16.1255319 C10.9761905,16.5468085 11.952381,16.8978723 12.8571429,17.1553191 C12.1904762,19.3085106 11.1904762,20.8531915 10,20.8531915 Z M18.7857143,15.9148936 C18.1904762,16.9212766 16.3095238,16.9914894 14.047619,16.4531915 C14.2619048,15.5638298 14.4285714,14.5808511 14.547619,13.5510638 C15.4285714,12.9425532 16.2142857,12.3106383 16.9047619,11.6553191 C17.9285714,12.7085106 18.6190476,13.7382979 18.8571429,14.6276596 C19,15.1659574 18.9761905,15.587234 18.7857143,15.9148936 Z M18.8571429,7.37234043 C18.6190476,8.26170213 17.9285714,9.29148936 16.9047619,10.3446809 C16.2142857,9.71276596 15.4047619,9.05744681 14.547619,8.44893617 C14.452381,7.41914894 14.2619048,6.43617021 14.047619,5.54680851 C16.3095238,5.00851064 18.1904762,5.0787234 18.7857143,6.08510638 C18.9761905,6.41276596 19,6.83404255 18.8571429,7.37234043 Z" id="Shape"></path>
                        <path d="M10,9.08085106 C8.92857143,9.08085106 8.04761905,9.94680851 8.04761905,11 C8.04761905,12.0531915 8.92857143,12.9191489 10,12.9191489 C11.0714286,12.9191489 11.952381,12.0531915 11.952381,11 C11.952381,9.94680851 11.0714286,9.08085106 10,9.08085106 Z M10,11.9829787 C9.45238095,11.9829787 9,11.5382979 9,11 C9,10.4617021 9.45238095,10.0170213 10,10.0170213 C10.547619,10.0170213 11,10.4617021 11,11 C11,11.5382979 10.547619,11.9829787 10,11.9829787 Z" id="Shape"></path>
                    </g>
                </g>
                <g id="noun_Music_1797117" transform="translate(34.000000, 0.000000)" stroke="#F07B52" stroke-width="0.8">
                    <path d="M18.4826077,12 L9.98791008,12 C9.70245224,12 9.47077632,12.2168966 9.47077632,12.4841443 L9.47077632,20.1561365 C9.17963002,20.0445413 8.84090741,19.9823287 8.46520974,19.9823287 C7.98660245,19.9823287 7.47748427,20.0810942 6.99344707,20.2679739 C6.3266031,20.5252965 5.76189304,20.9268942 5.40351935,21.3986928 C4.99998073,21.9297991 4.89310833,22.5173082 5.11004594,23.010167 C5.382834,23.6301138 6.10397702,24 7.03895485,24 C7.51756213,24 8.02616318,23.9012346 8.51071751,23.7143549 C9.8082061,23.2137497 10.6035578,22.2273057 10.4952183,21.3408376 C10.5014239,21.3108206 10.5053024,21.2798354 10.5053024,21.2481239 L10.5053024,12.9682885 L17.9657325,12.9682885 L17.9657325,16.5562818 C17.6743276,16.4444444 17.335605,16.3822319 16.9599073,16.3822319 C16.4815586,16.3822319 15.972699,16.4807553 15.4884032,16.667635 C14.0070736,17.2389252 13.1796596,18.4434762 13.6047435,19.4103123 C13.8775316,20.0297749 14.5986746,20.3996611 15.5333939,20.3996611 C16.0117426,20.3996611 16.5206022,20.3008957 17.004898,20.114258 C18.2933367,19.6170419 19.0863613,18.641007 18.9912087,17.7591382 C18.9961215,17.7325103 19,17.7051561 19,17.6773178 L19,12.4841443 C18.9997414,12.2166546 18.7683241,12 18.4826077,12 Z M8.11666159,22.8191721 C7.75596079,22.9581215 7.38336593,23.0317115 7.03895485,23.0317115 C6.54509211,23.0317115 6.17223867,22.8821109 6.06622625,22.6414912 C5.98762192,22.4628419 6.05329791,22.2142338 6.24644737,21.9600581 C6.4897588,21.6397967 6.90553434,21.3495522 7.38776156,21.1633987 C7.74820379,21.0244493 8.12079866,20.9508594 8.4654683,20.9508594 C8.95933104,20.9508594 9.33192591,21.1004599 9.43767976,21.3410796 C9.60962673,21.7317841 9.08111604,22.4471072 8.11666159,22.8191721 Z M16.6108421,19.2188332 C16.2501413,19.3577826 15.8775464,19.4313725 15.5331353,19.4313725 C15.0392726,19.4313725 14.6664191,19.281772 14.5606653,19.0416364 C14.3887183,18.6506899 14.9174876,17.9353667 15.881942,17.5633019 C16.2426428,17.4243525 16.6152377,17.3507625 16.9596488,17.3507625 C17.4535115,17.3507625 17.8261064,17.500121 17.9318602,17.7407407 C18.1038072,18.1316872 17.5752965,18.8470104 16.6108421,19.2188332 Z" id="Shape"></path>
                    <path d="M23.646112,1.63020828 L18.4001407,0.0213132444 C18.1381272,-0.0586996915 17.8617365,0.0934518913 17.7831572,0.362447761 L16.3317958,5.3318861 C15.9468318,5.09667347 15.4272667,4.97906716 14.8558938,5.03698128 C13.7381844,5.15179349 12.9253725,5.88918255 13.005439,6.71649091 C13.0788127,7.46023019 13.8571688,8 14.8561417,8 C14.9505856,8 15.0472604,7.99517382 15.1449267,7.98526746 C16.1171282,7.88518779 16.8573101,7.31417484 16.9810043,6.62352349 C16.9874492,6.60777492 16.9978604,6.59482044 17.0028181,6.57805583 L18.5910115,1.1402243 L22.8870909,2.45777064 L22.2889465,4.50584779 C21.9039825,4.27038115 21.3846653,4.15302885 20.8130446,4.21195901 C20.3200031,4.26250686 19.8621612,4.43904334 19.5237994,4.70930926 C19.1249539,5.02783694 18.9202016,5.45863675 18.9625898,5.89146863 C19.0359635,6.63520792 19.8143195,7.17497773 20.8132925,7.17497773 C20.9074884,7.17497773 21.0036675,7.17015155 21.1010859,7.16024519 C22.0668424,7.06092754 22.803306,6.49702685 22.9346846,5.81272574 C22.9398902,5.79875523 22.9493098,5.78757882 22.9535238,5.77310029 L23.9790203,2.26218347 C24.0575996,1.99369562 23.9086213,1.71047522 23.646112,1.63020828 Z M15.0457731,6.97431037 C14.9815711,6.98091461 14.9181128,6.98421673 14.8558938,6.98421673 C14.3432695,6.98421673 14.0071387,6.76881683 13.9920178,6.6153952 C13.9764011,6.45181319 14.3296359,6.11220273 14.9545517,6.04819238 C15.0187537,6.04158814 15.082212,6.03828602 15.1441831,6.03828602 C15.6568074,6.03828602 15.9929382,6.25343191 16.0078113,6.40736156 C16.0236759,6.57068956 15.6706889,6.91004601 15.0457731,6.97431037 Z M21.002428,6.14928809 C20.9382261,6.15589234 20.8750156,6.15919446 20.8130446,6.15919446 C20.3004203,6.15919446 19.9642894,5.94379455 19.9491685,5.7896109 C19.941732,5.71417013 20.0121311,5.60748621 20.1330985,5.51096267 C20.3229777,5.35931911 20.6065571,5.25441326 20.9117025,5.22317011 C20.9759044,5.21656587 21.0396107,5.21326375 21.1015817,5.21326375 C21.6067695,5.21326375 21.9503369,5.43171176 21.9647141,5.58208528 C21.9808266,5.74566728 21.6275918,6.08502374 21.002428,6.14928809 Z" id="Shape"></path>
                    <path d="M7.34972365,7.59862947 C8.00909388,6.88711404 8.17641626,6.00997673 7.80862027,5.44554522 C7.80157237,5.42700728 7.79556861,5.40822542 7.78591037,5.3899314 L6.10381148,2.26872759 C5.97407791,2.02797828 5.66031583,1.93089801 5.40267591,2.0523703 L0.287466445,4.45937556 C0.0298265315,4.58060393 -0.0738037072,4.8737961 0.0559298662,5.11454541 L2.43420469,9.52779491 C1.96564983,9.62707046 1.49030811,9.90416389 1.10919942,10.3154135 C0.339151048,11.1471816 0.238653209,12.2057956 0.880795243,12.7265654 C1.10241255,12.9053589 1.387722,13 1.70644372,13 C2.28567672,13 2.91920465,12.6894895 3.40107221,12.1689636 C4.06461898,11.4523259 4.22959205,10.5681149 3.85213783,10.0041712 C3.84456787,9.9836819 3.837781,9.96294868 3.8268176,9.94294722 L1.22327099,5.11137445 L5.40580831,3.14318177 L6.38311717,4.95721684 C5.91456231,5.05649239 5.43895955,5.33382974 5.05785086,5.74507932 C4.28728042,6.57684745 4.18678258,7.63546143 4.82918565,8.15525554 C5.051064,8.33478086 5.33663448,8.42966584 5.65535619,8.42966584 C6.23432816,8.42942192 6.86759506,8.11891142 7.34972365,7.59862947 Z M2.61170737,11.5306243 C2.29585702,11.8716248 1.9293662,12.0243189 1.70670475,12.0243189 C1.66206805,12.0243189 1.60072521,12.0182209 1.56470261,11.9887065 C1.43914557,11.8869918 1.47073061,11.4164696 1.89908633,10.9537528 C2.21493668,10.6129962 2.58116647,10.4603021 2.80382791,10.4603021 C2.84846461,10.4603021 2.90954642,10.466644 2.94609108,10.4961584 C3.07164812,10.5981171 3.04006309,11.0679075 2.61170737,11.5306243 Z M5.84773777,6.38366259 C6.16358812,6.04266205 6.52981791,5.88996796 6.75247935,5.88996796 C6.79711605,5.88996796 6.85819786,5.89630989 6.89500356,5.92606816 C7.0205606,6.02778291 6.98897556,6.49757336 6.56035881,6.9600462 C6.24424742,7.30129066 5.87827867,7.45398475 5.65561723,7.45398475 C5.61098052,7.45398475 5.54989872,7.44788674 5.51309302,7.41788455 C5.38753598,7.31592588 5.41912101,6.84613543 5.84773777,6.38366259 Z" id="Shape"></path>
                </g>
            </g>
        </g>
    </g>
</svg>