<?xml version="1.0" encoding="UTF-8"?>
<svg width="65px" height="64px" viewBox="0 0 65 64" version="1.1" xmlns="http://www.w3.org/2000/svg" xmlns:xlink="http://www.w3.org/1999/xlink">
    <!-- Generator: Sketch 54.1 (76490) - https://sketchapp.com -->
    <title>heart (1)</title>
    <desc>Created with Sketch.</desc>
    <g id="v4" stroke="none" stroke-width="1" fill="none" fill-rule="evenodd">
        <g id="Stovyklos-individualus_puslapis" transform="translate(-162.000000, -2159.000000)" fill-rule="nonzero">
            <g id="heart-(1)" transform="translate(163.000000, 2160.000000)">
                <path d="M24.6818182,43.9424905 C24.7700126,43.9001731 24.8590015,43.8578556 24.9469973,43.8151691 C24.9495796,43.814062 24.9519632,43.8127088 24.9545455,43.8113556 C24.8627756,43.8551493 24.7737867,43.8988199 24.6818182,43.9424905 Z" id="Path" fill="#000000"></path>
                <g id="Group">
                    <polygon id="Path" fill="#000000" points="26.7399316 28.023877 26.7391934 28.0230159 26.7388242 28.0227698"></polygon>
                    <path d="M62.9952012,16.2849643 C62.989418,16.0375794 62.9573027,15.794377 62.9195273,15.5499444 C62.8758457,15.2778333 62.7128086,14.9749683 62.5176562,14.7798651 C62.296418,14.5557302 62.0241152,14.4057738 61.7139141,14.3505397 C60.5304492,14.1409206 59.6174414,15.050623 58.9665234,15.9137024 C58.595168,16.4056429 58.3813125,16.9966111 58.1686875,17.5702341 C58.0305059,17.941496 57.9008145,18.3170635 57.7813359,18.6939841 C57.5266289,19.498877 57.3023145,20.312627 57.0389941,21.1145675 C56.8855547,21.583873 56.7246094,22.0493651 56.5492676,22.5107976 C56.3191699,23.0221746 56.0563418,23.5093175 55.7722266,23.9952302 C55.4815898,24.490246 55.1461641,24.9493413 54.8015098,25.4067143 C54.2859434,26.0391389 53.7644707,26.6668889 53.2621934,27.3095238 C52.6959316,28.0329802 52.1309004,28.7579127 51.628623,29.5263929 C51.1772871,30.2149127 50.7900586,30.945627 50.3838809,31.6617024 C49.9674902,32.3981984 49.5642656,33.1434286 49.134709,33.8727897 C49.0578047,34.0026944 48.9683496,34.1292778 48.8769258,34.2516786 C48.6524883,34.5221905 48.4083633,34.774004 48.139875,34.999 C48.0413145,35.0661667 47.9412773,35.1270595 47.835457,35.1811865 C47.7439102,35.2109563 47.6523633,35.2348214 47.5589707,35.2535198 C47.4114375,35.262131 47.2663652,35.2610238 47.1194473,35.2505675 C47.1179707,35.2482302 47.1167402,35.2458929 47.1155098,35.2438016 C47.089916,35.1654405 47.0693672,35.0872024 47.053002,35.00675 C47.0276543,34.6555397 47.0358984,34.3072817 47.071459,33.9571786 C47.1363047,33.5363413 47.2402793,33.1271905 47.3515137,32.7157024 C47.4039316,32.5205992 47.4855117,32.3299246 47.5524492,32.1408492 C47.6137266,31.968996 47.6806641,31.8002183 47.7476016,31.6313175 C48.0240879,30.938123 48.3061113,30.2461587 48.5941641,29.5566548 C48.6633164,29.403131 48.7549863,29.2604325 48.8030977,29.0986667 C48.867082,28.884619 48.7973145,28.6416627 48.6415371,28.4858016 C48.4538906,28.2979563 48.1059141,28.225254 47.8770469,28.3867738 C47.4460137,28.6909921 47.0486953,29.0359286 46.6481777,29.3781587 C46.3016777,29.675119 45.9580078,29.9749087 45.6115078,30.2703929 C44.9875371,30.8055119 44.3558145,31.3296825 43.7172012,31.8462262 C43.2002812,32.2315119 42.6795469,32.6085556 42.0921211,32.8796825 C41.7488203,33.0067579 41.3930918,33.108369 41.0310879,33.1640952 C40.8812168,33.1872222 40.7315918,33.2078889 40.5828281,33.2313849 C40.4300039,33.2490992 40.2774258,33.2615238 40.1242324,33.2617698 C40.1247246,33.2144087 40.1268164,33.1679087 40.1303848,33.1210397 C40.1826797,32.8608611 40.2686895,32.6138452 40.3660195,32.3663373 C40.6714219,31.6679762 41.0297344,30.9886825 41.4083496,30.3284563 C41.5829531,30.0257143 41.7548496,29.7171905 41.9543086,29.4288413 C42.1383867,29.1614048 42.3259102,28.89975 42.5200781,28.6398175 C42.7170762,28.3967381 42.9167812,28.1573492 43.1219004,27.9194365 C43.2209531,27.8045397 43.3228359,27.690996 43.4247187,27.5773294 C43.5231562,27.465754 43.6190098,27.3433532 43.7301211,27.2430952 C43.7852461,27.202131 43.8386484,27.1591984 43.8845449,27.1087619 C44.0083301,26.9747976 44.0840039,26.814754 44.0840039,26.6298611 C44.0840039,26.4012976 43.9573887,26.1509603 43.7478398,26.0446746 C43.6227012,25.9807063 43.4915332,25.9107103 43.3446152,25.9222738 C43.2149238,25.9324841 43.0883086,25.947123 42.9616934,25.9819365 C42.7579277,26.0387698 42.5596992,26.1289405 42.364793,26.2119762 C42.1696406,26.2964881 41.9716582,26.3780476 41.7779824,26.466619 C41.3455957,26.6617222 40.9116094,26.8552262 40.4806992,27.0546349 C39.7256836,27.4032619 38.9705449,27.7544722 38.2070391,28.0850159 C38.0314512,28.155381 37.8547559,28.225623 37.6780605,28.2947579 C37.2611777,28.4599683 36.8316211,28.5758492 36.390498,28.6522421 C36.2157715,28.6700794 36.0430137,28.6756151 35.8677949,28.6629444 C35.7598828,28.6387103 35.6559082,28.6090635 35.5523027,28.5724048 C35.4414375,28.5165556 35.3363555,28.4554167 35.2342266,28.3864048 C35.2034648,28.3581111 35.1744258,28.3293254 35.1463711,28.2993095 C35.138373,28.2863929 35.1308672,28.2734762 35.1236074,28.2603135 C35.1177012,28.241123 35.1122871,28.2215635 35.1073652,28.202127 C35.1071191,28.18675 35.106873,28.171496 35.1072422,28.1562421 C35.1365273,28.0049325 35.1779941,27.8585437 35.2306582,27.7121548 C35.4594023,27.2225516 35.7516387,26.7713294 36.0758672,26.3394206 C36.5288027,25.7701032 37.0164375,25.234369 37.526959,24.7157341 C37.9042207,24.3305714 38.3087988,23.9815754 38.7270352,23.6432817 C39.1389961,23.3460754 39.5564941,23.0619087 39.9860508,22.7884444 C40.2219316,22.6371349 40.4578125,22.4842262 40.6936934,22.3299643 C40.9178848,22.1844365 41.1348164,22.0344802 41.3705742,21.909373 C41.4930059,21.8366706 41.590459,21.7375198 41.6634258,21.6153651 C41.7842578,21.4086984 41.7814277,21.2122421 41.7463594,20.9850317 C41.7434062,20.9689167 41.7420527,20.9544008 41.7390996,20.9384087 C41.695418,20.6559643 41.4158555,20.4420397 41.162502,20.3619563 C40.845041,20.2615754 40.5001406,20.3385833 40.1855098,20.4143611 C40.0166895,20.4552024 39.8505762,20.5133889 39.684709,20.5671468 C39.4576875,20.6428016 39.230543,20.7183333 39.0033984,20.7970635 C38.5622754,20.9470198 38.1210293,21.1055873 37.6755996,21.2441032 C37.1864883,21.3968889 36.697377,21.5366349 36.2035898,21.6705992 C35.7731719,21.7870952 35.3257734,21.8524167 34.8879727,21.9284405 C34.4221172,21.9876111 33.951709,22.0435833 33.4822852,22.0082778 C33.3879082,21.9883492 33.2970996,21.963254 33.2053066,21.9318849 C33.1996465,21.9288095 33.1941094,21.9259802 33.1885723,21.9229048 C33.2024766,21.8666865 33.2184727,21.8115754 33.2370527,21.7557262 C33.3812637,21.451631 33.5594355,21.1710317 33.7592637,20.8983056 C34.2704004,20.2578849 34.8529043,19.6722063 35.4933633,19.1609524 C36.1973145,18.6361667 36.9701719,18.2029048 37.7497969,17.801381 C38.3802891,17.4768651 39.0193945,17.1667421 39.6571465,16.8537897 C40.8268301,16.2810278 41.9856855,15.6906746 43.1805937,15.1725317 C43.2331348,15.1522341 43.2850605,15.1345198 43.3406777,15.1159444 C43.4324707,15.0983532 43.5197109,15.0664921 43.6028906,15.0183929 C43.6726582,14.9717698 43.7368887,14.9193651 43.798043,14.8626548 C44.0820352,14.6065357 44.0833887,14.1944325 43.9262578,13.8770516 C43.7413184,13.5030833 43.3163145,13.3341825 42.9522188,13.190131 C42.7817988,13.1245635 42.6144551,13.0561667 42.4425586,12.9936746 C42.1104551,12.8718889 41.7804434,12.7477659 41.4498164,12.6189683 C41.112791,12.4642143 40.7736738,12.3090913 40.4581816,12.1158333 C40.0775977,11.8818571 39.7007051,11.6476349 39.3422695,11.3810595 C39.1511777,11.2277817 38.9675918,11.0679841 38.8051699,10.8853056 C38.7432773,10.7947659 38.6875371,10.70275 38.6363496,10.6056905 C38.6042344,10.5129365 38.5783945,10.4205516 38.5582148,10.3252143 C38.556,10.2516508 38.5571074,10.1796865 38.561291,10.1069841 C38.5861465,9.98089286 38.6192461,9.85935317 38.6616973,9.73805952 C38.747584,9.56460714 38.8479902,9.40161111 38.9604551,9.24378175 C39.1276758,9.0449881 39.3081855,8.86636905 39.5071523,8.69943651 C39.6855703,8.57211508 39.8692793,8.46459921 40.0677539,8.37184524 C40.3554375,8.26666667 40.6497656,8.1910119 40.9509844,8.14094444 C41.34375,8.09788889 41.7327012,8.10453175 42.1265742,8.14635714 C42.8932793,8.28253571 43.6378359,8.49682937 44.3907598,8.69709921 C44.7575625,8.79465079 45.1332246,8.86895238 45.5090098,8.9256627 C45.9602227,8.99405952 46.4190645,9.06688492 46.8760605,9.08140079 C47.7394805,9.11043254 48.6000703,9.02899603 49.431375,8.78591667 C50.1870059,8.5660873 50.9179043,8.24882937 51.6516328,7.9693373 C52.056334,7.8150754 52.4450391,7.63018254 52.8323906,7.43803175 C52.9779551,7.36532937 53.1236426,7.29250397 53.2647773,7.21106746 C53.4540234,7.10478175 53.6607422,6.9897619 53.801877,6.82246032 C53.9592539,6.63904365 54.0348047,6.47309524 54.1193379,6.24600794 C54.2068242,6.01178571 54.1790156,5.74385714 54.1236445,5.50655952 C54.0581836,5.22411508 53.8673379,4.96799603 53.6868281,4.74951984 C53.6213672,4.6725119 53.5571367,4.59378175 53.4858926,4.52255556 C53.1684316,4.19644048 52.8102422,3.90981349 52.4331035,3.65640079 C52.1085059,3.43817063 51.7823086,3.21969444 51.4460215,3.01880952 C51.3078398,2.93515873 51.1673203,2.85495238 51.0260625,2.77597619 C50.4318691,2.34332937 49.8059297,1.95915079 49.1718691,1.58776587 C48.9811465,1.47569841 48.7729512,1.38540476 48.5749687,1.28502381 C48.3972891,1.19473016 48.210873,1.12190476 48.0260566,1.04342063 C47.6925996,0.902198413 47.3606191,0.762452381 47.0199023,0.641650794 C46.3894102,0.418869048 45.7387383,0.264730159 45.079207,0.16275 C44.5350937,0.0781150794 43.992457,0.0158690476 43.4440371,0.0158690476 C43.3980176,0.0158690476 43.351875,0.0161150794 43.3058555,0.0172222222 C42.7205215,0.0274325397 42.1191914,0.0841428571 41.5427168,0.191904762 C41.3068359,0.235575397 41.0694785,0.279246032 40.8321211,0.324392857 C40.6108828,0.364988095 40.3911211,0.429202381 40.1725898,0.482960317 C39.3658945,0.679416667 38.5855312,0.954603175 37.8095977,1.24725794 C37.5432012,1.34763889 37.2840645,1.47286905 37.0233281,1.5864127 C36.8588145,1.65763889 36.6972539,1.73046429 36.5356934,1.80907143 C36.1133965,2.01438492 35.6956523,2.22548016 35.2776621,2.44075794 C33.7518809,3.23396429 32.3629277,4.26163889 31.0626914,5.3839127 C30.7483066,5.65540873 30.4221094,5.92223016 30.121998,6.21279365 C30.0425098,6.16284921 29.9630215,6.11278175 29.8832871,6.06369841 C29.6953945,5.9473254 29.494582,5.84829762 29.3023828,5.74188889 C29.1248262,5.6443373 28.9310273,5.56880556 28.7476875,5.48281746 C28.523373,5.37800794 28.2963516,5.28045635 28.0677305,5.18438095 C27.2801074,4.85248413 26.4910078,4.52071032 25.6902187,4.21944444 C25.2724746,4.06223016 24.8589141,3.90489286 24.4351406,3.76822222 C23.5456348,3.48147222 22.6429629,3.25450794 21.7111289,3.15695635 C20.9103398,3.07392063 20.1051211,2.97353968 19.2986719,2.97353968 C18.8648086,2.97206349 18.4279922,2.95754762 17.9926523,2.97784524 C17.5645723,2.99974206 17.1277559,2.9969127 16.7012754,3.04919444 C16.2077344,3.10885714 15.7025039,3.14526984 15.2147461,3.24282143 C14.9380137,3.29805556 14.6630039,3.35193651 14.387748,3.40729365 C14.2304941,3.43940079 14.0702871,3.46265079 13.9145098,3.50484524 C13.6698926,3.5704127 13.4237988,3.63438095 13.1778281,3.69994841 C12.9899355,3.74952381 12.7977363,3.79171825 12.6115664,3.85125794 C12.2184316,3.97796429 11.8166836,4.08855556 11.4308086,4.23555952 C10.961877,4.41319444 10.4902383,4.58197222 10.0315195,4.78568651 C9.63986133,4.95876984 9.23368359,5.11463095 8.85506836,5.31551587 C8.6134043,5.4435754 8.37161719,5.57163492 8.12995312,5.69981746 C7.97995898,5.77977778 7.82282812,5.85260317 7.67714062,5.94289683 C7.21263867,6.23112302 6.74247656,6.51061508 6.29261719,6.82061508 C5.24142773,7.54407143 4.37948437,8.46386111 3.64280273,9.49879365 C3.1914668,10.1349087 2.82158789,10.8247817 2.45047852,11.508996 C2.00787891,12.3212698 1.66420898,13.182873 1.32361523,14.0417698 C1.16636133,14.4435397 1.0455293,14.8524444 0.9174375,15.2644246 C0.800912109,15.6428214 0.732498047,16.0373333 0.642181641,16.4216349 C0.538822266,16.8699048 0.473238281,17.3298611 0.390304687,17.7825595 C0.31303125,18.2017976 0.257783203,18.6253413 0.190845703,19.0460556 C0.0102128906,20.2004365 -0.0522949219,21.3881548 0.0481113281,22.5540992 C0.125384766,23.4478095 0.291251953,24.3225754 0.502277344,25.1915595 C0.545958984,25.3691944 0.579304687,25.5524881 0.633199219,25.7271706 C0.710472656,25.9745556 0.786023437,26.2235397 0.861820312,26.4709246 C0.992865234,26.8960675 1.15737891,27.3049722 1.31598633,27.7197817 C1.49206641,28.1767857 1.70764453,28.6192738 1.91005664,29.0648373 C2.06435742,29.4097738 2.24351367,29.7488056 2.42119336,30.0821786 C2.63369531,30.4780437 2.84349023,30.8753849 3.06903516,31.2655913 C3.30343945,31.6716667 3.54522656,32.0704841 3.79698047,32.4678254 C4.22506055,33.1461349 4.69965234,33.7952897 5.17141406,34.4429683 C5.45675977,34.8330516 5.74222852,35.2217817 6.0304043,35.6102659 C6.29544727,35.9670119 6.56762695,36.3279405 6.85887891,36.6641429 C7.40483789,37.2958294 7.96691602,37.9100476 8.53613086,38.5229127 C9.1053457,39.1357778 9.6586875,39.7630357 10.2512812,40.354004 C10.5425332,40.6465357 10.8409219,40.9362381 11.1613359,41.1967857 C11.5411816,41.5053095 11.9255801,41.8373294 12.3609199,42.0687222 C12.7714043,42.2900278 13.1937012,42.3787222 13.6508203,42.4266984 C13.9114336,42.4530238 14.1895195,42.4266984 14.4443496,42.3742937 C14.7938027,42.3042976 15.1228301,42.1631984 15.4314316,41.9885159 C15.6847852,41.8443413 15.9307559,41.6551429 16.1550703,41.4717262 C16.4069473,41.2634603 16.653041,41.0539643 16.865666,40.803504 C17.1742676,40.439623 17.4756094,40.0656548 17.7276094,39.6594563 C18.0362109,39.1602579 18.1934648,38.5765476 18.2168437,37.9913611 C18.2766445,36.4965952 18.0203379,35.0175754 17.7815039,33.5474127 C17.7823652,33.5552857 17.7835957,33.5630357 17.7845801,33.5710317 C17.7618164,33.4036071 17.7395449,33.2356905 17.7175195,33.0683889 C17.6526738,32.5828452 17.6593184,32.0921349 17.7144434,31.6056071 C17.802668,31.0640913 17.9663203,30.5464405 18.1608574,30.0369087 C18.2126602,29.9249643 18.2703691,29.8206468 18.3392754,29.7171905 C18.3685605,29.6840992 18.3998145,29.6530992 18.4330371,29.6238214 C18.5112949,29.5685873 18.5916445,29.5186429 18.6761777,29.4726349 C18.7284727,29.4545516 18.7810137,29.4401587 18.8362617,29.4282262 C18.8561953,29.4276111 18.8758828,29.4277341 18.8958164,29.4288413 C18.9311309,29.4358532 18.9660762,29.4443413 19.0006523,29.4549206 C19.0625449,29.4870278 19.1193926,29.5213492 19.1758711,29.5602222 C19.2687715,29.6476865 19.3520742,29.7413016 19.4331621,29.8392222 C19.577127,30.0348175 19.700543,30.2365635 19.8027949,30.457131 C19.8954492,30.7154643 19.9584492,30.9778571 20.0020078,31.2493532 C20.0908477,32.0179563 20.0611934,32.7954167 20.0514727,33.5674643 C20.0485195,33.8499087 20.0412598,34.1323532 20.0267402,34.4145516 C20.0122207,34.7158175 19.9685391,35.014254 19.9481133,35.3155198 C19.9321172,35.5688095 20.1009375,35.8249286 20.3120859,35.9501587 C20.540707,36.0826468 20.8260527,36.0811706 21.0545508,35.9501587 C21.3720117,35.76625 21.4985039,35.4413651 21.6232734,35.1167262 C22.0661191,34.0988929 22.6007578,33.1189484 23.1102949,32.1323611 C23.3331328,31.7000833 23.5586777,31.2692817 23.8076016,30.8515198 C23.953166,30.6068413 24.100207,30.3681905 24.2589375,30.132369 C24.3937969,29.9327143 24.5369004,29.7422857 24.6830801,29.5523492 C24.8318437,29.3631508 25.0060781,29.1860079 25.1776055,29.0173532 C25.3711582,28.8265556 25.5690176,28.644369 25.7807812,28.473869 C25.9820859,28.3250198 26.1851133,28.1925317 26.407459,28.0789881 C26.4857168,28.0504484 26.5618828,28.0274444 26.6443242,28.008869 C26.659582,28.008377 26.6747168,28.008377 26.6897285,28.008746 C26.7047402,28.0125595 26.7196289,28.016619 26.7346406,28.0201865 C26.7361172,28.0209246 26.7375937,28.0216627 26.7390703,28.0222778 C26.7388242,28.0220317 26.7385781,28.0217857 26.738332,28.0215397 C26.738332,28.0215397 26.7385781,28.0215397 26.7388242,28.0216627 C26.7390703,28.0219087 26.7391934,28.0221548 26.7394395,28.0224008 C26.7399316,28.0226468 26.7404238,28.0228929 26.740916,28.0231389 C26.7567891,28.0376548 26.7720469,28.0527857 26.7864434,28.0685317 C26.8202812,28.1208135 26.8500586,28.1734643 26.8777441,28.2286984 C26.9436973,28.4181429 26.985041,28.6089405 27.0158027,28.80675 C27.061084,29.1935119 27.0786797,29.5805198 27.0402891,29.9698651 C26.8989082,30.8402024 26.5353047,31.6656389 26.2049238,32.4797579 C25.9579687,33.0425556 25.6958789,33.5900992 25.4045039,34.1322302 C25.2574629,34.4059405 25.1031621,34.6765754 24.9561211,34.9502857 C24.8906602,35.0724405 24.8264297,35.1948413 24.7624453,35.3184722 C24.6444434,35.5455595 24.475623,35.8031548 24.5077383,36.068254 C24.5092148,36.2036944 24.5426836,36.331631 24.6110977,36.44825 C24.6780352,36.5617937 24.7683516,36.6519643 24.8803242,36.7190079 C25.1744062,36.8907381 25.5528984,36.8383333 25.793209,36.6010357 C25.992668,36.4059325 26.1512754,36.1760159 26.3215723,35.9561865 C26.3955234,35.8615873 26.4686133,35.7667421 26.5420723,35.6715278 C26.782875,35.3778889 27.0215859,35.0886786 27.2767852,34.8077103 C27.5621309,34.4947579 27.859166,34.193369 28.1562012,33.8921032 C28.3978652,33.6460714 28.6497422,33.4074206 28.9016191,33.1731984 C29.2377832,32.8581548 29.5713633,32.5376984 29.9230312,32.2414762 C30.032543,32.162254 30.1436543,32.0902897 30.2653477,32.0284127 C30.4095586,31.9760079 30.5546309,31.9363968 30.7059785,31.9074881 C30.8724609,31.8905119 31.0370977,31.8843611 31.2049336,31.8953095 C31.282207,31.9106865 31.3557891,31.9317222 31.4297402,31.9582937 C31.5442969,32.014881 31.6508555,32.0762659 31.7550762,32.1488452 C31.7832539,32.1735714 31.8105703,32.1994048 31.8366562,32.2265913 C31.8744316,32.2837937 31.9076543,32.3412421 31.9394004,32.402627 C31.9636406,32.4736071 31.9838203,32.542619 31.9994473,32.6153214 C32.0004316,32.6576389 31.9994473,32.6999563 31.9963711,32.7420278 C31.9610566,32.929504 31.9107305,33.1066468 31.8434238,33.2851429 C31.5809648,33.8622103 31.2184687,34.3824444 30.8479746,34.8934524 C30.6088945,35.1843849 30.3645234,35.464123 30.1116621,35.7436151 C29.830623,36.0565675 29.5248516,36.3506984 29.229293,36.6488889 C28.9555137,36.9269048 28.6658613,37.1889286 28.3747324,37.448123 C28.2350742,37.5732302 28.0864336,37.6926786 27.9408691,37.8105278 C27.869625,37.8687143 27.7981348,37.9269008 27.7267676,37.9836111 C27.5812031,38.1030595 27.4748906,38.230996 27.3627949,38.3867341 C27.2244902,38.5818373 27.2084941,38.8831032 27.2696484,39.1058849 C27.3555352,39.4203135 27.6074121,39.6678214 27.9204434,39.7565159 C28.1781035,39.8292183 28.4256738,39.7928056 28.6586016,39.6691746 C28.8099492,39.5890913 28.9293047,39.4740714 29.0517363,39.3560992 C29.1594023,39.2512897 29.2920469,39.1624722 29.4112793,39.0708254 C29.3530781,39.1159722 29.2932773,39.1625952 29.2350762,39.207619 C30.1074785,38.579254 31.0127344,37.9957897 31.9980937,37.5590833 C32.3646504,37.4146627 32.7395742,37.308254 33.1280332,37.2419484 C33.334875,37.2198056 33.5380254,37.2114405 33.7464668,37.2260794 C33.8562246,37.2465 33.9626602,37.2736865 34.0686035,37.3102222 C34.117207,37.3360556 34.1633496,37.3634881 34.2086309,37.393873 C34.224873,37.4113413 34.2412383,37.4288095 34.2573574,37.4461548 C34.2712617,37.4680516 34.2845508,37.4905635 34.2967324,37.5136905 C34.3023926,37.5315278 34.3076836,37.5498571 34.3122363,37.5680635 C34.3153125,37.6271111 34.3153125,37.6844365 34.3117441,37.7442222 C34.2852891,37.8679762 34.2500977,37.9866865 34.2074004,38.1060119 C34.1272969,38.2728214 34.0362422,38.4307738 33.9304219,38.5829444 C33.6531973,38.9062302 33.329584,39.1779722 32.9976035,39.4420873 C32.6686992,39.6747103 32.3337656,39.8917103 31.9765605,40.0794325 C31.5719824,40.2932341 31.1632207,40.4912897 30.7489219,40.6840556 C30.6294434,40.734 30.5100879,40.7839444 30.3911016,40.8336429 C29.9843086,41.0016825 29.573209,41.1667698 29.1753984,41.3544921 C28.8521543,41.5078929 28.5334629,41.664369 28.2092344,41.8122341 C27.9232734,41.9174127 27.6259922,42.0101667 27.3642715,42.1623373 C27.1430332,42.291996 26.9216719,42.4287897 26.7106465,42.5741944 C26.2056621,42.9222063 25.719873,43.3022024 25.2354375,43.6797381 C24.5688926,44.1940675 23.9384004,44.7662143 23.3255039,45.345496 C23.0111191,45.6440556 22.701041,45.9467976 22.4067129,46.2654087 C22.092082,46.6060397 21.8199023,46.996123 21.5579355,47.3789484 C21.3060586,47.7456587 21.1123828,48.1329127 20.9697715,48.5579325 C20.8721953,48.8476349 20.8342969,49.1576349 20.7963984,49.460377 C20.7555469,49.7777579 20.7541934,50.0774246 20.7949219,50.3934524 C20.8312207,50.6757738 20.8719492,50.9435794 20.9726016,51.2099087 C21.0759609,51.4850952 21.2129121,51.7484722 21.359707,52.0045913 C21.4806621,52.2155635 21.6130605,52.4238294 21.7498887,52.6274206 C22.5099492,53.7642103 23.2131621,54.9868651 24.2483555,55.9024722 C25.5733242,57.0756746 26.9708906,58.1572302 28.4822754,59.0813254 C29.2102207,59.5267659 29.9412422,59.969254 30.6675879,60.4160476 C31.6431035,61.0142738 32.6608242,61.6474365 33.7935937,61.8774762 C34.4094434,62.0027063 35.0251699,62.0142698 35.6455723,61.922623 C36.2279531,61.8381111 36.7826484,61.6604762 37.3240547,61.4364643 C37.8569707,61.2182341 38.3927168,60.9765079 38.8877344,60.6810238 C39.1089727,60.5485357 39.330334,60.4176468 39.5515723,60.2851587 C40.2924375,59.8426706 41.0002031,59.3346151 41.6729004,58.7932222 C42.3703301,58.2312857 43.0560703,57.6593849 43.7285215,57.0654643 C44.3444941,56.5225952 44.9413945,55.9577063 45.5426016,55.397369 C46.7699941,54.2518452 47.9449687,53.0480119 49.032457,51.7687698 C49.4751797,51.2486587 49.9134727,50.723996 50.3329395,50.1844484 C50.3637012,50.150496 50.3911406,50.1148214 50.4155039,50.0777937 C50.518125,49.9443214 50.6196387,49.8098651 50.7197988,49.6741786 C51.2744941,48.9231667 51.817623,48.166127 52.3549687,47.4035516 C53.3318379,46.0164246 54.2623184,44.5986667 55.1518242,43.1548294 C56.025457,41.7370714 56.7591855,40.2423056 57.4201934,38.7153095 C57.7900723,37.8624405 58.1685645,37.006373 58.4729824,36.1258254 C58.7627578,35.2830437 59.0407207,34.4359563 59.3114238,33.5859167 C59.821084,31.9819127 60.3393574,30.3822143 60.7995527,28.7635714 C61.0253437,27.9717183 61.2172969,27.1740833 61.3949766,26.3706667 C61.5726562,25.5629444 61.7254805,24.7505476 61.9148496,23.9457778 C62.1186152,23.0753175 62.3167207,22.2064563 62.4753281,21.3257857 C62.6237227,20.5092063 62.7387715,19.6825397 62.8509902,18.8600556 C62.9661621,18.0068175 63.015627,17.1466905 62.9952012,16.2849643 Z M33.269168,22.0010198 C33.2395137,21.9809683 33.211582,21.9593175 33.1848809,21.9363135 C33.1850039,21.9360675 33.1850039,21.9355754 33.185127,21.9353294 C33.2133047,21.9568571 33.2412363,21.978877 33.269168,22.0010198 Z M26.6417402,27.9471151 C26.6707793,27.9659365 26.6982187,27.9868492 26.7241816,28.0094841 C26.7233203,28.0094841 26.7223359,28.0092381 26.7212285,28.0089921 C26.6948965,27.9878333 26.6686875,27.9669206 26.6417402,27.9471151 Z M34.227334,37.4043294 C34.2105996,37.3828016 34.1941113,37.3613968 34.177623,37.339869 C34.1957109,37.3610278 34.2129375,37.3829246 34.2290566,37.4055595 C34.2284414,37.4051905 34.2278262,37.4048214 34.227334,37.4043294 Z M34.2491133,37.3967024 C34.2550195,37.40925 34.2606797,37.4216746 34.2660938,37.4344683 C34.2656016,37.4339762 34.2651094,37.4337302 34.2646172,37.4333611 C34.2595723,37.4210595 34.2542813,37.409004 34.2491133,37.3967024 Z M34.2653555,37.4348373 C34.2658477,37.4350833 34.2662168,37.4355754 34.266832,37.4358214 C34.2727383,37.4500913 34.2786445,37.4642381 34.2838125,37.478754 C34.2776602,37.4641151 34.2715078,37.4495992 34.2653555,37.4348373 Z M61.1155371,16.9079167 C61.1036016,17.2920952 61.0760391,17.6714762 61.0328496,18.0525794 C60.915832,18.8098651 60.7851563,19.5648135 60.645375,20.3182857 C60.4925508,21.1508571 60.3076113,21.9748175 60.109752,22.7971786 C59.9117695,23.6165873 59.7326133,24.4390714 59.5680996,25.2672143 C59.3962031,26.1304167 59.2158164,26.9906667 59.0003613,27.8450119 C58.5912305,29.4636548 58.1222988,31.0648294 57.6331875,32.6600992 C57.406166,33.4010238 57.1876348,34.146377 56.9401875,34.8797976 C56.7931465,35.3121984 56.6446289,35.7401706 56.4860215,36.1678968 C56.3537461,36.5207063 56.2107656,36.8697024 56.0679082,37.2184524 C55.7579531,37.9356349 55.4443066,38.6523254 55.1055586,39.3569603 C54.9134824,39.757254 54.7212832,40.1545952 54.5145645,40.5461548 C54.2975098,40.9580119 54.0703652,41.361381 53.8375605,41.764504 C53.4355664,42.4602817 53.0047793,43.1414206 52.5722695,43.818377 C52.0846348,44.5810754 51.5882637,45.3379921 51.0784805,46.0846984 C50.426209,47.0425 49.7695078,48.0046071 49.0605117,48.9215675 C49.1071465,48.8619048 49.1539043,48.8007659 49.200293,48.7412262 C49.1144063,48.8532937 49.0283965,48.9638849 48.9411563,49.0760754 C48.935373,49.0838254 48.9295898,49.0914524 48.9240527,49.0993254 C48.903627,49.1257738 48.8830781,49.1519762 48.8626523,49.1783016 C48.8761875,49.1612024 48.8895996,49.1441032 48.9032578,49.126881 C48.8129414,49.2417778 48.7242246,49.3583968 48.6340313,49.4734167 C48.680666,49.413631 48.7271777,49.3524921 48.7738125,49.2928294 C48.2568926,49.9610516 47.6934609,50.5985198 47.1315059,51.2287302 C46.5971133,51.8270794 46.0571836,52.4223532 45.4878457,52.987119 C44.8662129,53.6042897 44.2355977,54.21125 43.5966152,54.8109524 C43.2921973,55.0962262 42.9806426,55.3786706 42.6647813,55.6522579 C42.3560566,55.9185873 42.0532383,56.1937738 41.7344238,56.4484167 C41.551207,56.5952976 41.3683594,56.7405794 41.186373,56.8873373 C40.9637813,57.0610357 40.7422969,57.2360873 40.5128145,57.4017897 C40.2143027,57.6171905 39.9202207,57.845754 39.608543,58.0436865 C38.7516445,58.5855714 37.8824414,59.1030992 36.9545449,59.5133571 C36.4386094,59.7224841 35.9118457,59.8912619 35.3636719,59.9886905 C35.0598691,60.016246 34.7598809,60.0118175 34.4559551,59.9813095 C34.1474766,59.9259524 33.8499492,59.8410714 33.5577129,59.729373 C32.9375566,59.4394246 32.3546836,59.0727143 31.7785781,58.7042817 C31.1961973,58.3301905 30.6151699,57.9560992 30.0314355,57.5877897 C29.470834,57.234119 28.9045723,56.8877063 28.3570137,56.5164444 C27.7859531,56.1288214 27.2233828,55.7354167 26.6693027,55.3239286 C26.4707051,55.1710198 26.2728457,55.0178651 26.0799082,54.8586825 C25.9343438,54.7377579 25.7873027,54.6170794 25.6416152,54.4961548 C25.247373,54.1716389 24.8931211,53.7976706 24.5711074,53.4026667 C24.2461406,52.970881 23.9411074,52.5235952 23.6337363,52.0785238 C23.2989258,51.5931032 22.9483652,51.1180159 22.6833223,50.5900317 C22.6316426,50.4390913 22.5952207,50.2870437 22.5663047,50.1292143 C22.5439102,49.8612857 22.5543691,49.5992619 22.5826699,49.3320714 C22.6205684,49.1226984 22.6706484,48.9208294 22.7416465,48.7205595 C22.9113281,48.3607381 23.1351504,48.0362222 23.3608184,47.7082619 C23.5335762,47.4900317 23.7110098,47.2778294 23.9089922,47.0785437 C24.1593926,46.8267302 24.4170527,46.5806984 24.6807422,46.3405714 C25.1614863,45.9014048 25.648875,45.4726944 26.1564434,45.0656349 C26.4227168,44.8701627 26.693543,44.6813333 26.9680605,44.4948413 C27.2557441,44.2997381 27.5445352,44.1079563 27.8547363,43.9530794 C27.9605566,43.9242937 28.0682227,43.9135913 28.1779805,43.8923095 C28.352707,43.857496 28.5274336,43.7991865 28.6949004,43.7380476 C29.1229805,43.5808333 29.5262051,43.3755198 29.9338594,43.1688532 C30.6763242,42.7903333 31.4596406,42.4847619 32.1862324,42.0713056 C32.5575879,41.8603333 32.9186074,41.6345992 33.2738438,41.3960714 C33.6611953,41.1355238 34.0017891,40.8123611 34.3293398,40.4847698 C34.5594375,40.2548532 34.760373,39.9956587 34.9525723,39.7352341 C35.1127793,39.5182341 35.2290586,39.2854881 35.3310645,39.036627 C35.4621094,38.7220754 35.5553789,38.4107222 35.597584,38.0729206 C35.6309297,37.8051151 35.6150566,37.5590833 35.5596855,37.2941071 C35.532,37.161619 35.4592793,37.0322063 35.400832,36.9112817 C35.3484141,36.8021667 35.2435781,36.66525 35.1607676,36.5809841 C34.7633262,36.1747857 34.2391465,35.9854643 33.6844512,35.9157143 C33.0519902,35.835631 32.4302344,35.9147302 31.8261973,36.0820317 C31.9241426,35.936627 32.0183965,35.7887619 32.1074824,35.6378214 C32.5470059,34.8940675 33.0129844,34.1282937 33.1805742,33.2696429 C33.2344688,32.9902738 33.2679375,32.6757222 33.201,32.394754 C33.1355391,32.1269484 33.0233203,31.8779643 32.8659434,31.6524762 C32.5646016,31.217246 32.0201191,30.9161032 31.510582,30.7966548 C31.0679824,30.6933214 30.591791,30.7414206 30.1491914,30.814123 C29.6526973,30.8942063 29.2145273,31.1532778 28.8242227,31.4589722 C28.4835059,31.7269008 28.1544785,32.0033175 27.8254512,32.2842857 C27.7479316,32.3504683 27.6706582,32.4173889 27.593877,32.4850476 C27.7062188,32.1585635 27.8129004,31.829619 27.9156445,31.4983373 C28.0511191,31.0631071 28.1310996,30.6133611 28.1733047,30.1591865 C28.2257227,29.6031548 28.1208867,29.0281786 28.0102676,28.4838333 C27.9184746,28.0268294 27.7292285,27.5391944 27.3448301,27.2509683 C26.8789746,26.900127 26.2922871,27.0093651 25.7972695,27.2422341 C25.223625,27.5129921 24.7314375,27.9116865 24.2466328,28.3164087 C24.1010684,28.4373333 23.9671934,28.5783095 23.8288887,28.7094444 C23.7591211,28.7748889 23.6979668,28.8506667 23.6337363,28.9218929 C23.5651992,28.9947183 23.4924785,29.0645913 23.4313242,29.1417222 C23.092084,29.5652659 22.7470605,29.9945913 22.4660215,30.4604524 C22.2040547,30.8927302 21.9491016,31.3266071 21.7044844,31.7690952 C21.5162227,32.1116944 21.3267305,32.4540476 21.141668,32.798369 C21.1293633,32.6624365 21.1165664,32.526381 21.1031543,32.3906944 C21.0623027,31.9742857 21.0100078,31.5609524 20.9358105,31.1490952 C20.8339277,30.5871587 20.6300391,30.0632341 20.3128242,29.5886389 C20.1759961,29.3862778 20.0143125,29.1927738 19.8484453,29.0136627 C19.6970977,28.8491905 19.493209,28.7152262 19.2848906,28.6323135 C19.0839551,28.5523532 18.8757598,28.520369 18.6588281,28.5407897 C18.4054746,28.5655159 18.1812832,28.6601151 17.9554922,28.7780873 C17.563834,28.9818016 17.2770117,29.3733611 17.0892422,29.7649206 C16.9247285,30.108381 16.7717813,30.4562698 16.6524258,30.8186746 C16.4762227,31.3529325 16.4049785,31.9291389 16.3802461,32.488246 C16.36425,32.8346587 16.3962422,33.1810714 16.4196211,33.5260079 C16.4763457,34.3325 16.589918,35.1329643 16.6366758,35.9393333 C16.6569785,36.308996 16.6745742,36.6773056 16.6847871,37.0469683 C16.6925391,37.331873 16.6761738,37.6146865 16.6531641,37.897869 C16.6201875,38.0640635 16.5788438,38.223369 16.5238418,38.3834127 C16.443,38.5301706 16.3480078,38.664504 16.2482168,38.7977302 C15.9660703,39.1416825 15.676541,39.4765317 15.3382852,39.7683254 C15.0540469,39.9767143 14.7545508,40.1707103 14.4405352,40.331123 C14.358832,40.3590476 14.277498,40.3821746 14.1935801,40.400627 C14.1282422,40.4029643 14.0638887,40.4024722 13.999166,40.3991508 C13.9264453,40.3840198 13.854832,40.3663056 13.7842031,40.3445317 C13.6044316,40.2477183 13.4455781,40.1238413 13.2820488,39.9988571 C13.287709,40.0034087 13.2933691,40.0077143 13.2990293,40.0120198 C13.1542031,39.9008135 13.0091309,39.7900992 12.8645508,39.6793849 C12.4453301,39.3493333 12.0344766,39.0084563 11.6529082,38.633381 C11.2015723,38.1879405 10.7634023,37.7324127 10.3265859,37.2738095 C9.87672656,36.8036429 9.42982031,36.332123 8.98697461,35.8545754 C8.60602148,35.4428413 8.25373828,35.0061349 7.90354688,34.5689365 C7.49736914,34.0231151 7.09365234,33.4756944 6.69522656,32.9244603 C6.23084766,32.2810873 5.78824805,31.6291032 5.36447461,30.9594048 C4.59641602,29.7451151 3.961125,28.4468056 3.36828516,27.1391468 C3.25865039,26.854119 3.14926172,26.5689683 3.04073438,26.2825873 C2.92433203,25.9798452 2.84422852,25.6597579 2.74812891,25.3482817 C2.66654883,25.0861349 2.60539453,24.8184524 2.53993359,24.5505238 C2.41282617,24.0354563 2.30331445,23.5202659 2.22419531,22.9957262 C2.15319727,22.4037738 2.11702148,21.8135437 2.12649609,21.2171627 C2.13560156,20.6552262 2.18383594,20.0946429 2.24954297,19.5361508 C2.3997832,18.5938492 2.54485547,17.6444127 2.77446094,16.7181032 C2.83844531,16.4590317 2.88508008,16.1867976 2.96813672,15.9335079 C3.06275977,15.6423294 3.15873633,15.3512738 3.25495898,15.0600952 C3.31894336,14.8649921 3.40347656,14.678746 3.48198047,14.4894246 C3.55408594,14.3122817 3.62705273,14.135754 3.69952734,13.9595952 C3.89652539,13.5484762 4.07801953,13.1291151 4.30024219,12.7326349 C4.75920703,11.9087976 5.21571094,11.0872976 5.77705078,10.3297659 C6.2251875,9.7734881 6.72180469,9.25903571 7.27748438,8.80965873 C7.91683594,8.33887698 8.59482422,7.91767063 9.29139258,7.53742857 C9.56947852,7.38464286 9.84313477,7.21734127 10.1329102,7.08337698 C10.4775645,6.92480952 10.8234492,6.76611905 11.1682266,6.60755159 C11.5576699,6.44910714 11.9473594,6.2899246 12.3445547,6.15325397 C12.6212871,6.05865476 12.8977734,5.96405556 13.1758594,5.86933333 C13.4539453,5.77473413 13.7450742,5.70769048 14.0275898,5.62773016 C14.2154824,5.5753254 14.4017754,5.51418651 14.5926211,5.47346825 C14.9260781,5.40076587 15.2594121,5.32794048 15.5927461,5.25646825 C15.994125,5.16875794 16.4003027,5.11586111 16.8066035,5.06075 C17.2381289,5.03196429 17.6683008,5.00453175 18.0984727,4.97574603 C18.3867715,4.95815476 18.6808535,4.95815476 18.9721055,4.95815476 C19.1133633,4.95963095 19.2546211,4.95963095 19.3957559,4.95667857 C19.7641582,4.95237302 20.1353906,4.98300397 20.503793,4.99887302 C20.7047285,5.00773016 20.9070176,5.03528571 21.1079531,5.05410714 C21.3188555,5.07280556 21.5309883,5.08953571 21.7422598,5.11401587 C22.3486348,5.2033254 22.9525488,5.32203571 23.5365293,5.51111111 C23.821752,5.60423413 24.1144805,5.68419444 24.394043,5.79355556 C24.9308965,6.00255952 25.4630742,6.21734524 25.9947598,6.44025 C26.3204648,6.58503968 26.6449395,6.72909127 26.966584,6.88089286 C27.365502,7.07009127 27.754207,7.2695 28.1430352,7.47481349 C28.4852285,7.6539246 28.8012129,7.88236508 29.1098145,8.11375794 C29.2553789,8.22287302 29.3995898,8.3319881 29.5494609,8.43409127 C29.683459,8.52438492 29.8420664,8.5707619 29.9891074,8.63202381 C30.1958262,8.71788889 30.44475,8.68590476 30.657498,8.64653968 C31.0973906,8.56633333 31.3417617,8.26211508 31.5849023,7.93440079 C31.9113457,7.53718254 32.2835625,7.1865873 32.6592246,6.83451587 C33.0879199,6.43397619 33.5434395,6.06173016 33.9974824,5.69059127 C34.3240488,5.44480556 34.6530762,5.20603175 34.9917012,4.97279365 C35.3642871,4.7166746 35.7707109,4.49819841 36.1637227,4.27553968 C36.9039727,3.85470238 37.6725234,3.49094444 38.4466113,3.14034921 C39.7708418,2.62122222 41.1316172,2.16840079 42.540873,1.95127778 C42.9193652,1.90526984 43.2978574,1.87562302 43.677457,1.86738095 C43.7471016,1.87488492 43.816623,1.88263492 43.8861445,1.89050794 C45.1199355,2.09053175 46.2939258,2.5102619 47.4527813,2.97230952 C47.7320977,3.09323413 48.0096914,3.21637302 48.2872852,3.3425873 C48.6351387,3.49980159 48.9672422,3.69478175 49.3064824,3.87094048 C49.6310801,4.03984127 49.9601074,4.2028373 50.2805215,4.38047222 C50.6014277,4.55946032 50.9081836,4.7608373 51.2038652,4.97869841 C51.5324004,5.24342857 51.8322656,5.53669841 52.1085059,5.85481746 C52.1179805,5.86822619 52.127209,5.88163492 52.1363145,5.89504365 C51.8641348,6.06406746 51.5700527,6.20258333 51.2785547,6.33211905 C50.6652891,6.58196429 50.0478398,6.83057937 49.4242383,7.05582143 C49.1067773,7.17071825 48.7879629,7.28278571 48.4632422,7.37603175 C48.152918,7.46534127 47.8368105,7.52352778 47.5189805,7.57519444 C47.1486094,7.61173016 46.7846367,7.62932143 46.4118047,7.62784524 C46.0458633,7.62649206 45.6810293,7.58934127 45.3175488,7.55059127 C44.9726484,7.49978571 44.6292246,7.43778571 44.289,7.35696429 C43.9002949,7.26384127 43.514543,7.16186111 43.1243613,7.07451984 C42.4269316,6.91595238 41.7250723,6.79933333 41.0074629,6.82270635 C40.5094922,6.83869841 39.9955254,6.92173413 39.5225332,7.07451984 C38.9400293,7.26371825 38.4363984,7.60287302 37.9849395,8.0104246 C37.7694844,8.20688095 37.5947578,8.44270238 37.4199082,8.67409524 C37.2467813,8.90696429 37.1375156,9.16603571 37.02825,9.4324881 C36.920584,9.69303571 36.8927754,9.98864286 36.8709961,10.2650595 C36.8579531,10.4251032 36.8841621,10.6085198 36.9146777,10.7629048 C36.9568828,10.9827341 37.0209902,11.1821429 37.1141367,11.3873333 C37.4970586,12.2302381 38.2716387,12.748381 39.0053672,13.2635714 C39.3431309,13.4993929 39.7130098,13.6915437 40.0755059,13.8865238 C40.4633496,14.0949127 40.8808477,14.2515119 41.2928086,14.4063889 C41.0014336,14.554869 40.7120273,14.7070397 40.4236055,14.8603175 C39.6955371,15.2460952 38.960332,15.6187103 38.2206973,15.9840675 C37.4809395,16.3479484 36.7443809,16.7189643 36.0222188,17.1179048 C35.7397031,17.275119 35.4601406,17.4338095 35.1848848,17.6040635 C34.6651348,17.9272262 34.177377,18.3101746 33.7186582,18.7147738 C33.3037441,19.0800079 32.914916,19.475996 32.5598027,19.8995397 C32.1578086,20.3799167 31.7953125,20.9008889 31.6031133,21.5020675 C31.5478652,21.6739206 31.5361758,21.8689008 31.5260859,22.0478889 C31.513043,22.3054841 31.6134492,22.5325714 31.7123789,22.7610119 C31.7603672,22.8541349 31.8200449,22.940123 31.8930117,23.017254 C31.9948945,23.1410079 32.1055137,23.2413889 32.2409883,23.3315595 C32.4403242,23.4655238 32.660332,23.5571706 32.8873535,23.6359008 C33.1085918,23.7129087 33.3546855,23.7290238 33.5847832,23.753873 C33.7420371,23.7698651 33.9051973,23.7669127 34.0623281,23.7581786 C34.232625,23.7494444 34.4042754,23.746369 34.5734648,23.7275476 C35.26425,23.652631 35.9688164,23.5707024 36.6456973,23.4003254 C36.5157598,23.5203889 36.3874219,23.6420516 36.2608066,23.7669127 C35.9346094,24.0885992 35.6289609,24.4249246 35.3202363,24.7639563 C35.0217246,25.0929008 34.7467148,25.4437421 34.4817949,25.8004881 C34.1046563,26.3055913 33.7900254,26.8499365 33.5775234,27.4437341 C33.3634219,28.0376548 33.4041504,28.6925913 33.739084,29.232631 C34.0651582,29.7566786 34.6549219,30.0724603 35.2269668,30.2530476 C35.5093594,30.3418651 35.8296504,30.3578571 36.1223789,30.3433413 C36.4093242,30.3288254 36.6960234,30.2721151 36.975709,30.2095 C37.4677734,30.1003849 37.9321523,29.9154921 38.3951777,29.7175595 C39.2615508,29.3462976 40.1088516,28.9359167 40.9562754,28.5225833 C40.9586133,28.5215992 40.960582,28.520369 40.963043,28.5193849 C40.7675215,28.7803016 40.5737227,29.0424484 40.3985039,29.3173889 C40.1495801,29.7089484 39.9092695,30.1034603 39.6719121,30.5008016 C39.3283652,31.0743016 39.002291,31.673881 38.7517676,32.294004 C38.655791,32.5298254 38.5829473,32.7656468 38.5450488,33.0189365 C38.4998906,33.3259841 38.5117031,33.6156865 38.5961133,33.9169524 C38.6746172,34.1921389 38.8435605,34.4497341 39.0575391,34.6374563 C39.2060566,34.7683452 39.361957,34.8601151 39.5498496,34.9242063 C39.7419258,34.9896508 39.9369551,35.0130238 40.1380137,35.0333214 C40.5209355,35.0726865 40.918377,34.9852222 41.2955156,34.9285119 C41.7889336,34.8542103 42.2549121,34.720246 42.7149844,34.526619 C43.3730391,34.2486032 43.9524668,33.8016865 44.5000254,33.3476349 C45.0533672,32.8891548 45.5798848,32.3991825 46.102957,31.9053968 C46.0514004,32.0279206 45.9998438,32.1506905 45.9486563,32.2735833 C45.7986621,32.6359881 45.6923496,33.0202897 45.5802539,33.3957341 C45.50175,33.6605873 45.4564688,33.93725 45.4186934,34.2093611 C45.3780879,34.5048452 45.354709,34.797377 45.3590156,35.0958135 C45.367875,35.7377103 45.6327949,36.440746 46.1917969,36.8003214 C46.4318613,36.9531071 46.6983809,37.0463532 46.9780664,37.1001111 C47.328873,37.168631 47.6607305,37.1655556 48.0132598,37.1131508 C48.6147129,37.0272857 49.111084,36.6967421 49.5565137,36.300877 C50.1258516,35.79725 50.5421191,35.1495714 50.8930488,34.4828254 C51.082541,34.123373 51.2599746,33.7564167 51.4508203,33.3969643 C51.8032266,32.736 52.1627695,32.0795873 52.5326484,31.4290794 C52.7057754,31.1220317 52.8821016,30.8148611 53.0786074,30.5223294 C53.3027988,30.1917857 53.5335117,29.8704683 53.7708691,29.5495198 C54.2681016,28.9184484 54.7648418,28.2860238 55.2756094,27.6650397 C55.8492539,26.9649563 56.4286816,26.2749603 56.9296055,25.5180437 C57.4160098,24.7831468 57.7871191,23.9606627 58.1000273,23.1396548 C58.3898027,22.3799087 58.584832,21.576369 58.7988105,20.7917738 C58.9328086,20.2983571 59.049334,19.7991587 59.1977285,19.3100476 C59.3586738,18.7810794 59.5426289,18.2603532 59.7406113,17.7440556 C59.7857695,17.6382619 59.8310508,17.5324683 59.8790391,17.4277817 C59.9869512,17.1909762 60.1258711,16.9814802 60.27525,16.7724762 C60.4640039,16.5437897 60.6687539,16.3333095 60.8965137,16.14325 C60.9609902,16.0994563 61.0252207,16.0593532 61.0937578,16.0222024 C61.1085234,16.0172817 61.123043,16.0124841 61.1379316,16.0078095 C61.1403926,16.3088294 61.1251348,16.6092341 61.1155371,16.9079167 Z M33.1622402,21.9087579 C33.1613789,21.9082659 33.1605176,21.9078968 33.1596563,21.9072817 C33.1551035,21.8819405 33.1522734,21.8558611 33.1512891,21.8292897 C33.1548574,21.8558611 33.1585488,21.8823095 33.1622402,21.9087579 Z" id="Shape" stroke="#F0764B" stroke-width="0.4" fill="#F0764B"></path>
                </g>
            </g>
        </g>
    </g>
</svg>