<?xml version="1.0" encoding="UTF-8"?>
<svg width="83px" height="65px" viewBox="0 0 83 65" version="1.1" xmlns="http://www.w3.org/2000/svg" xmlns:xlink="http://www.w3.org/1999/xlink">
    <!-- Generator: Sketch 55.2 (78181) - https://sketchapp.com -->
    <title>communication</title>
    <desc>Created with Sketch.</desc>
    <g id="v5" stroke="none" stroke-width="1" fill="none" fill-rule="evenodd">
        <g id="Camping-event-individual-page-motyvatorius" transform="translate(-155.000000, -2337.000000)" fill="#F07B52" fill-rule="nonzero">
            <g id="communication" transform="translate(155.000000, 2337.000000)">
                <path d="M22.1949987,22.650925 L13.5078226,15.1079399 C12.6743005,6.20845293 6.88521117,1.49591138 1.6680312,0.0486206973 C0.969746399,-0.145250872 0.244930499,0.258021718 0.0491095729,0.949355236 C-0.146711353,1.64068875 0.260616097,2.35828926 0.958900896,2.55216083 C5.41885758,3.78933787 10.3808525,7.92677748 10.9322575,15.8271391 C10.9561041,16.1696306 11.1158358,16.4888746 11.3765842,16.7151819 L20.450382,24.5939627 C20.7378317,24.8408261 20.9346492,25.1749579 21.0101188,25.5442128 C21.0075516,25.6578369 20.9177934,25.7905068 20.7292885,25.94856 C17.6491246,28.6012676 17.5709021,28.7402816 17.4464906,28.9618162 C17.203368,29.4186585 17.1307178,29.9457389 17.2413158,30.4503704 L17.2868416,30.7740822 C17.3419926,31.1619253 17.3977608,31.5504054 17.4471341,31.9395226 L17.4311075,31.9484084 C17.1528378,32.1096143 15.4870871,33.0713178 14.9299175,33.392514 C14.3549263,33.7223301 13.9894673,34.3196308 13.9605007,34.9769142 C13.9508821,36.0833194 15.0581764,36.5816146 16.6226266,37.1649718 C16.966933,37.2931955 17.4644804,37.4671223 17.9004753,37.6105825 C18.1466852,38.8166494 18.4595752,41.5379085 16.9656527,43.8199141 C16.090792,45.0880815 14.844071,46.0600447 13.3937125,46.6046544 C6.25494024,49.5436454 4.62575331,57.6280872 6.70698151,64.0957707 C6.92773623,64.779093 7.66591811,65.15615 8.35631937,64.9382382 C9.04672063,64.7203264 9.42826572,63.9898493 9.20881491,63.3061154 C7.49176717,57.9689596 8.7240901,51.3425859 14.40163,49.0053543 C16.3439667,48.2625342 18.008329,46.9458768 19.1687055,45.2341771 C21.8122376,41.1983036 20.3138308,36.3962603 20.2490743,36.193765 C20.1088553,35.7585978 19.7484673,35.4280639 19.2995053,35.3228568 C19.0161079,35.2454129 18.3576312,35.0289551 17.7164614,34.794095 C18.1966953,34.5166974 18.6281994,34.2678684 18.7583558,34.1923291 C19.6337805,33.7932643 20.1661941,32.8972809 20.0932661,31.9458473 C20.032994,31.4348572 19.9605426,30.9232301 19.8874544,30.411603 L19.856038,30.1881638 C20.3657646,29.7222399 21.4602363,28.7650085 22.4405848,27.9207643 C23.1749384,27.3543382 23.6138405,26.491583 23.6363636,25.5702072 C23.5649966,24.4466254 23.0466877,23.3968635 22.1949987,22.650925 Z" id="Path"></path>
                <path d="M82.6782029,0.949312761 C82.5844771,0.617130268 82.3611335,0.33550013 82.0574267,0.166531231 C81.75372,-0.00243766791 81.3945968,-0.0448661559 81.0592557,0.0486026707 C75.8420677,1.49583585 70.0529629,6.20823248 69.2194461,15.1074458 L60.5264854,22.6552884 C59.6778282,23.4007244 59.1617088,24.4484187 59.0909091,25.5694304 C59.1118138,26.485406 59.5461217,27.3439326 60.274504,27.9091251 C61.2644661,28.7622289 62.3608632,29.7213354 62.871234,30.1872515 L62.8398175,30.4106838 C62.7667226,30.9222951 62.6942712,31.4339 62.6340055,31.9429764 C62.5606637,32.8954616 63.0936725,33.792559 63.9701982,34.1918981 C64.0997114,34.2667981 64.5312227,34.51625 65.0108467,34.7930085 C64.3696759,35.0278679 63.7111982,35.2443191 63.4278004,35.321754 C62.9788392,35.4269567 62.6184511,35.7574777 62.4782299,36.1926289 C62.4134734,36.3951116 60.9150642,41.1970072 63.5586004,45.232763 C64.7189787,46.9444101 66.3833435,48.261027 68.3256833,49.0038243 C74.0032253,51.3409775 75.2355502,57.967154 73.5185064,63.3041457 C73.3755175,63.7467379 73.4820543,64.2312344 73.7979411,64.574929 C74.1138279,64.9186237 74.591011,65.0692324 75.0495422,64.9699599 C75.5080734,64.8706875 75.8781993,64.5366354 76.0203436,64.0937766 C78.101575,57.6262921 76.4723659,49.5420989 69.3336023,46.6031983 C67.8832286,46.0586093 66.6364935,45.0866731 65.7616238,43.818537 C64.2798847,41.5550097 64.5882844,38.8185983 64.8300037,37.6081289 C65.2653559,37.4646731 65.7610066,37.2913886 66.1046439,37.1638059 C67.6690964,36.5804666 68.7763924,36.0821998 68.7667738,34.9694715 C68.7356859,34.3131534 68.3690993,33.7177011 67.7941187,33.3895726 C67.2401523,33.0702908 65.5743924,32.1086429 65.2974092,31.9480529 L65.2800957,31.9385304 C65.3294625,31.5500622 65.3852504,31.161594 65.4403884,30.7731258 L65.4923223,30.4075117 C65.5944986,29.9190887 65.5214911,29.41068 65.2858668,28.9698011 C65.1563537,28.7393878 65.0781311,28.600378 61.9857767,25.9369555 C61.8461648,25.8471284 61.7492482,25.7051563 61.7171252,25.5434108 C61.7903584,25.179843 61.9822996,24.8501965 62.2633836,24.6052474 L71.3506615,16.7146514 C71.6114103,16.488351 71.7711423,16.1691168 71.7949888,15.8266358 C72.3463947,7.92649119 77.3083908,3.78921781 81.7683609,2.55207882 C82.4666106,2.35815791 82.8739289,1.64063117 82.6782029,0.949312761 Z" id="Path"></path>
                <path d="M54.6646131,27.1423136 C55.8511123,25.107474 56.4756091,22.803629 56.4762546,20.458946 C56.4762546,12.4361304 49.1849454,5.90909091 40.222757,5.90909091 C31.2605687,5.90909091 23.9692594,12.4361112 23.9692594,20.4589267 C23.9698821,22.7792924 24.5812446,25.0601246 25.7440542,27.0802176 L21.7548722,32.5924556 C21.0625485,33.548927 21.1210148,34.8450142 21.8967515,35.7376519 C22.6724882,36.6302896 23.9669536,36.8910164 25.038012,36.3703539 L31.9869089,32.9934866 C37.1225388,35.67328 43.2768492,35.6810217 48.4194567,33.0141575 L55.3257623,36.3703475 C56.3968137,36.8908766 57.6911758,36.6301048 58.4668692,35.7375169 C59.2425627,34.8449289 59.3010905,33.5489347 58.6089021,32.5924492 L54.6646131,27.1423136 Z M48.3063473,30.1020945 C43.3756288,33.2385665 37.0259209,33.2296249 32.1043869,30.079279 L23.8809927,34.0755245 L28.8962252,27.1455144 C27.4002514,25.2250761 26.5858296,22.8765871 26.5774072,20.4589075 C26.5774072,13.837431 32.6866197,8.4696397 40.2227636,8.4696397 C47.7589074,8.4696397 53.8681199,13.8374182 53.8681199,20.4589075 C53.8588906,22.8997815 53.0286037,25.2692921 51.5063194,27.1991217 L56.4827881,34.0755245 L48.3063473,30.1020945 Z" id="Shape"></path>
                <path d="M48.3560825,14.1818182 L35.5530084,14.1818182 C34.8459287,14.1818182 34.2727273,14.7109362 34.2727273,15.3636364 C34.2727273,16.0163365 34.8459287,16.5454545 35.5530084,16.5454545 L48.3560825,16.5454545 C49.0631622,16.5454545 49.6363636,16.0163365 49.6363636,15.3636364 C49.6363636,14.7109362 49.0631622,14.1818182 48.3560825,14.1818182 L48.3560825,14.1818182 Z" id="Path"></path>
                <path d="M48.3560825,20.0909091 L35.5530084,20.0909091 C34.8459287,20.0909091 34.2727273,20.6200271 34.2727273,21.2727273 C34.2727273,21.9254274 34.8459287,22.4545455 35.5530084,22.4545455 L48.3560825,22.4545455 C49.0631622,22.4545455 49.6363636,21.9254274 49.6363636,21.2727273 C49.6363636,20.6200271 49.0631622,20.0909091 48.3560825,20.0909091 Z" id="Path"></path>
            </g>
        </g>
    </g>
</svg>