<?xml version="1.0" encoding="UTF-8"?>
<svg width="69px" height="69px" viewBox="0 0 69 69" version="1.1" xmlns="http://www.w3.org/2000/svg" xmlns:xlink="http://www.w3.org/1999/xlink">
    <!-- Generator: Sketch 55.2 (78181) - https://sketchapp.com -->
    <title>teamwork</title>
    <desc>Created with Sketch.</desc>
    <g id="v5" stroke="none" stroke-width="1" fill="none" fill-rule="evenodd">
        <g id="Camping-event-individual-page-ugnies-zona" transform="translate(-159.000000, -2217.000000)" fill="#F0764B" fill-rule="nonzero">
            <g id="teamwork" transform="translate(159.000000, 2217.000000)">
                <g id="Group">
                    <path d="M54.2142857,36.9642857 C54.2142857,36.6377679 54.0849107,36.3235714 53.8532679,36.0931607 L53.49225,35.7321429 L53.8532679,35.371125 C54.0849107,35.1407143 54.2142857,34.8265179 54.2142857,34.5 L54.2142857,30.0815357 L68.6389821,15.6568393 L66.8967321,13.9145893 L59.1428571,21.6684643 L47.3315357,9.85714286 L55.0854107,2.10326786 L53.3431607,0.361017857 L38.9184643,14.7857143 L34.5,14.7857143 C34.1734821,14.7857143 33.8592857,14.9150893 33.628875,15.1467321 L33.2678571,15.50775 L32.9068393,15.1467321 L32.4398571,14.67975 L27.9782679,10.2181607 C27.7478571,9.98651786 27.4336607,9.85714286 27.1071429,9.85714286 L25.1529643,9.85714286 L15.6568393,0.361017857 L13.9145893,2.10326786 L16.7398929,4.92857143 L4.92857143,16.7398929 L2.10326786,13.9145893 L0.361017857,15.6568393 L9.85714286,25.1529643 L9.85714286,32.0357143 C9.85714286,32.3622321 9.98651786,32.6764286 10.2181607,32.9068393 L13.5535714,36.24225 L13.5535714,40.1506071 L0.361017857,53.3431607 L2.10326786,55.0854107 L8.625,48.5636786 L20.4363214,60.375 L13.9145893,66.8967321 L15.6568393,68.6389821 L28.8493929,55.4464286 L33.2678571,55.4464286 C33.594375,55.4464286 33.9085714,55.3170536 34.1389821,55.0854107 L35.0101071,54.2142857 L38.9184643,54.2142857 L53.3431607,68.6389821 L55.0854107,66.8967321 L47.3315357,59.1428571 L59.1428571,47.3315357 L66.8967321,55.0854107 L68.6389821,53.3431607 L54.2142857,38.9184643 L54.2142857,36.9642857 Z M45.5892857,11.5993929 L57.4006071,23.4107143 L52.9821429,27.8291786 L41.1708214,16.0178571 L45.5892857,11.5993929 Z M38.9184643,17.25 L51.75,30.0815357 L51.75,33.9898929 L35.0101071,17.25 L38.9184643,17.25 Z M51.75,37.4743929 L51.75,38.9184643 L38.9184643,51.75 L35.0101071,51.75 L28.3392857,45.0791786 L28.3392857,43.6351071 L29.9324464,45.2282679 L31.6746964,43.4860179 L17.6541429,29.4654643 C17.3941607,29.20425 17.25,28.8580179 17.25,28.488375 C17.25,27.7269107 17.8697679,27.1071429 18.6312321,27.1071429 C19.000875,27.1071429 19.3471071,27.2513036 19.6083214,27.5112857 L28.7003036,36.6032679 L30.4425536,34.8610179 L21.3505714,25.7690357 C21.0905893,25.5078214 20.9464286,25.1615893 20.9464286,24.7919464 C20.9464286,24.0304821 21.5661964,23.4107143 22.3276607,23.4107143 C22.6973036,23.4107143 23.0435357,23.554875 23.30475,23.8148571 L32.3967321,32.9068393 L34.1389821,31.1645893 L25.047,22.0726071 C24.7870179,21.8113929 24.6428571,21.4651607 24.6428571,21.0955179 C24.6428571,20.3340536 25.262625,19.7142857 26.0240893,19.7142857 C26.3937321,19.7142857 26.7399643,19.8584464 27.0011786,20.1184286 L36.0931607,29.2104107 L37.8354107,27.4681607 L28.7434286,18.3761786 C28.4834464,18.1149643 28.3392857,17.7687321 28.3392857,17.3990893 C28.3392857,16.637625 28.9590536,16.0178571 29.7205179,16.0178571 C30.0901607,16.0178571 30.4363929,16.1620179 30.6976071,16.422 L31.1645893,16.8889821 L51.75,37.4743929 Z M18.4821429,6.67082143 L22.9006071,11.0892857 L11.0892857,22.9006071 L6.67082143,18.4821429 L18.4821429,6.67082143 Z M12.3214286,25.1529643 L25.1529643,12.3214286 L26.5970357,12.3214286 L28.1643214,13.8887143 C26.85825,14.4702857 25.9415357,15.7566429 25.8885536,17.2635536 C23.8776964,17.3350179 22.2635893,18.949125 22.192125,20.9599821 C20.1812679,21.0314464 18.5671607,22.6455536 18.4956964,24.6564107 C16.43925,24.7291071 14.7857143,26.4146786 14.7857143,28.488375 C14.7857143,29.5159821 15.1861607,30.4819821 15.9118929,31.2077143 L16.7398929,32.0357143 L14.7857143,33.9898929 L12.3214286,31.5256071 L12.3214286,25.1529643 Z M22.1785714,58.63275 L10.36725,46.8214286 L14.7857143,42.4029643 L26.5970357,54.2142857 L22.1785714,58.63275 Z M28.8493929,52.9821429 L16.0178571,40.1506071 L16.0178571,36.24225 L18.4821429,33.7779643 L25.875,41.1708214 L25.875,45.5892857 C25.875,45.9158036 26.004375,46.23 26.2360179,46.4604107 L32.75775,52.9821429 L28.8493929,52.9821429 Z M45.5892857,57.4006071 L41.1708214,52.9821429 L52.9821429,41.1708214 L57.4006071,45.5892857 L45.5892857,57.4006071 Z" id="Shape"></path>
                    <polygon id="Rectangle" points="49.6460675 47.1821253 52.1099575 44.7182354 53.8524539 46.4607318 51.388564 48.9246218"></polygon>
                    <polygon id="Rectangle" points="18.8426193 52.6211997 20.5851157 50.8787032 23.0490057 53.3425932 21.3065093 55.0850896"></polygon>
                    <polygon id="Rectangle" points="15.1465604 12.6821253 17.6104503 10.2182354 19.3529468 11.9607318 16.8890568 14.4246218"></polygon>
                    <polygon id="Rectangle" points="44.7177425 16.8895497 46.460239 15.1470532 48.9241289 17.6109432 47.1816325 19.3534396"></polygon>
                </g>
            </g>
        </g>
    </g>
</svg>