<?xml version="1.0" encoding="UTF-8"?>
<svg width="69px" height="69px" viewBox="0 0 69 69" version="1.1" xmlns="http://www.w3.org/2000/svg" xmlns:xlink="http://www.w3.org/1999/xlink">
    <!-- Generator: Sketch 55.2 (78181) - https://sketchapp.com -->
    <title>team</title>
    <desc>Created with Sketch.</desc>
    <g id="v5" stroke="none" stroke-width="1" fill="none" fill-rule="evenodd">
        <g id="Camping-event-individual-page-w-komanda" transform="translate(-161.000000, -2067.000000)" fill="#F0764B" fill-rule="nonzero">
            <g id="team" transform="translate(161.000000, 2067.000000)">
                <path d="M17.6180485,25.2869587 L2.22620536,9.39419528 C1.71685172,8.8686689 0.891271083,8.86853425 0.381917434,9.39419528 C-0.127305811,9.91999096 -0.127305811,10.7725744 0.381917434,11.2985047 L15.3911585,26.7959452 L15.3885504,28.6515125 C15.3875072,29.3951667 15.9705385,29.9989228 16.6906232,30 C16.6912752,30 16.6919272,30 16.6925792,30 C17.4118815,30 17.9955648,29.3983982 17.996608,28.6555519 L18,26.2410658 C18.0005201,25.8833093 17.8630755,25.53996 17.6180485,25.2869587 Z" id="Path"></path>
                <path d="M30.6729207,15.3868233 C30.6722572,15.3868233 30.6715936,15.3868233 30.6709301,15.3868233 L27.5396898,15.3911267 L12.2655542,0.381824504 C11.7473303,-0.127274835 10.9070246,-0.127274835 10.3886679,0.381824504 C9.87044402,0.891054248 9.87044402,1.71677582 10.3886679,2.22613597 L26.0525663,17.6180451 C26.3015261,17.8625536 26.639002,18 26.9909431,18 C26.9914739,18 26.9922702,18 26.992801,18 L30.6747786,17.9949142 C31.4077237,17.993871 32.0010602,17.4092674 32,16.6890431 C31.9989369,15.9693404 31.4050696,15.3868233 30.6729207,15.3868233 Z" id="Path"></path>
                <path d="M58.5605,0.4395 C58.2815,0.1605 57.8945,0 57.5,0 C57.1055,0 56.7185,0.16035 56.4395,0.4395 C56.1605,0.71865 56,1.1055 56,1.5 C56,1.8945 56.1605,2.2815 56.4395,2.56035 C56.7185,2.8395 57.1055,3 57.5,3 C57.8945,3 58.2815,2.8395 58.5605,2.56035 C58.8395,2.2815 59,1.8945 59,1.5 C59,1.1055 58.8395,0.7185 58.5605,0.4395 Z" id="Path"></path>
                <path d="M55.6021491,4.38689756 C55.0716812,3.87103415 54.2115218,3.87103415 53.6810539,4.38689756 L42.024209,15.7257181 L40.1520174,15.7230753 C40.1453611,15.7230753 40.1391123,15.7230753 40.1325918,15.7230753 C36.5387229,15.7230753 33.1604372,17.0840879 30.6186742,19.5563739 L29.3978509,20.7441547 C28.867383,21.2602824 28.867383,22.0968426 29.3978509,22.6129703 C29.6631528,22.870902 30.0107756,23 30.3583985,23 C30.7060214,23 31.0537801,22.870902 31.3189461,22.6129703 L32.5399052,21.4251895 C34.5685883,19.4518534 37.2643975,18.3659503 40.1327277,18.3659503 C40.1378897,18.3659503 40.1431876,18.3659503 40.1482138,18.3659503 L42.5841549,18.3692538 C42.5848341,18.3692538 42.5853775,18.3692538 42.5860567,18.3692538 C42.946313,18.3692538 43.2918982,18.2299812 43.5466043,17.9822241 L55.6021491,6.25571319 C56.132617,5.73971764 56.132617,4.90302525 55.6021491,4.38689756 Z" id="Path"></path>
                <path d="M68.6180798,10.3885678 C68.1089833,9.87047739 67.2831358,9.87047739 66.7739089,10.3885678 L51.3819543,26.0525763 C51.1370559,26.3019339 50.9994799,26.6402056 51,26.9929424 L51.0052176,30.6749146 C51.0062609,31.4071952 51.589818,32 52.3092559,32 C52.3099079,32 52.3105599,32 52.3112119,32 C53.0314323,31.9989383 53.6144678,31.4040102 53.6134245,30.6709334 L53.6089908,27.5396977 L68.6180798,12.2654514 C69.1273067,11.7472282 69.1273067,10.9069237 68.6180798,10.3885678 Z" id="Path"></path>
                <path d="M68.6156663,56.7561795 L53.5135324,41.6285285 L53.5161566,39.8171218 C53.5186496,38.0902264 53.1849798,36.4060467 52.5244632,34.8111098 C52.2468205,34.1405397 51.4791044,33.8226038 50.8097967,34.1005841 C50.1403577,34.3786959 49.8228268,35.1477092 50.1004695,35.8181478 C50.6275444,37.0910744 50.8937717,38.4352375 50.8918036,39.8133103 L50.8883921,42.170163 C50.8878672,42.5193799 51.0261637,42.8545335 51.2727094,43.1014957 L66.7600791,58.6150334 C67.0163343,58.8715902 67.3521035,59 67.6878727,59 C68.0236419,59 68.3595423,58.8715902 68.6156663,58.6150334 C69.1280456,58.1016569 69.1281768,57.2694245 68.6156663,56.7561795 Z" id="Path"></path>
                <path d="M58.6113344,66.7737498 L42.9473978,51.3819521 C42.6984395,51.1374454 42.3609656,51 42.0090267,51 C42.0084959,51 42.0076996,51 42.0071688,51 L38.3252134,51.0050857 C37.5922727,51.006129 36.9989398,51.5907283 37,52.3109474 C37.0010631,53.0306448 37.5949268,53.6131577 38.3270713,53.6131577 C38.3277348,53.6131577 38.3283984,53.6131577 38.3290619,53.6131577 L41.4602833,53.6088544 L56.7345922,68.6180479 C56.9937689,68.8725957 57.3333661,69 57.6729633,69 C58.0125605,69 58.3522904,68.8725957 58.6113344,68.6180479 C59.1295552,68.1088218 59.1295552,67.2831062 58.6113344,66.7737498 Z" id="Path"></path>
                <path d="M11.5605,66.4395 C11.2815,66.16035 10.8945,66 10.5,66 C10.1055,66 9.7185,66.16035 9.4395,66.4395 C9.1605,66.7185 9,67.1055 9,67.5 C9,67.8945 9.1605,68.2815 9.4395,68.56035 C9.7185,68.83935 10.1055,69 10.5,69 C10.8945,69 11.2815,68.8395 11.5605,68.56035 C11.841,68.2815 12,67.8945 12,67.5 C12,67.1055 11.841,66.7185 11.5605,66.4395 Z" id="Path"></path>
                <path d="M47.8967057,34.3772768 C47.5929583,34.0696636 47.2495683,33.8266111 46.8835446,33.646085 C47.196667,33.0818561 47.3642102,32.4434366 47.3642102,31.7785688 C47.3642102,30.7579384 46.9718028,29.7983424 46.2591749,29.0765092 C45.9368115,28.7501788 45.5702521,28.4953264 45.1787822,28.311952 C45.8541783,26.8897154 45.6115018,25.1285346 44.4487437,23.9508425 C43.2861196,22.7736928 41.5478753,22.5275209 40.1436461,23.2108346 C39.9594958,22.8094997 39.7057033,22.4394957 39.3874917,22.1172342 C37.9161648,20.627453 35.5226136,20.6277242 34.0514206,22.1172342 L28.7043675,27.5324752 C28.6023148,26.4348059 28.0428998,25.3901686 27.092015,24.7159423 C26.2427811,24.1137364 25.2138165,23.8880449 24.1946287,24.0809135 C23.1754409,24.2737821 22.2963411,24.860119 21.718846,25.7320968 L18.0501715,31.2726617 C16.5760322,33.49906 15.7987173,36.0928853 15.8024673,38.7737863 L15.8070208,41.9738863 L0.392239998,57.5849874 C-0.130746666,58.1146301 -0.130746666,58.9734516 0.392239998,59.5032299 C0.653666366,59.7679835 0.99652062,59.9004959 1.33924095,59.9004959 C1.68196127,59.9004959 2.02481553,59.7679835 2.28624189,59.5032299 L18.0940997,43.4941848 C18.3456155,43.2393324 18.4869089,42.8934709 18.4863732,42.5330968 L18.4810161,38.7701242 C18.4780697,36.6306659 19.0982877,34.5605156 20.2749742,32.7836015 L23.9435147,27.2430366 C24.1168168,26.9814026 24.3806539,26.805488 24.6864103,26.7477088 C24.9920327,26.6899296 25.3010033,26.7574743 25.5557333,26.938136 C26.0495238,27.2883377 26.1914869,27.9715158 25.8790341,28.4935631 L24.4454748,30.8882807 C23.9933357,31.6434794 24.1632897,32.5873421 24.8494,33.1325825 C25.5355102,33.6778229 26.4813058,33.6200437 27.0980417,32.9955942 L35.9454225,24.0354768 C36.3722493,23.6030822 37.0666631,23.6032178 37.4934898,24.0354768 C37.7001399,24.2448925 37.8141121,24.5232093 37.8141121,24.8192938 C37.8141121,25.0706198 37.731345,25.3085182 37.5801409,25.5030144 L32.3443814,30.8177521 C31.8213948,31.3473949 31.8213948,32.2062163 32.3443814,32.7359947 C32.8673681,33.2655018 33.7153967,33.2655018 34.2385173,32.7359947 L41.0069424,25.869085 C41.4337691,25.436826 42.1281829,25.436826 42.5548757,25.8689494 C42.9817025,26.301344 42.9817025,27.00446 42.5548757,27.436719 L35.7804239,34.2975252 C35.2574372,34.827168 35.2574372,35.6859894 35.7804239,36.2157678 C36.0419842,36.4805214 36.3847045,36.6130338 36.7274249,36.6130338 C37.0701452,36.6130338 37.4129994,36.4805214 37.6744258,36.2157678 L42.9163459,30.9069979 C43.3455834,30.565748 43.970087,30.5943663 44.3653069,30.9947518 C44.5720909,31.2041675 44.6859292,31.4824843 44.6859292,31.7785688 C44.6859292,32.0746533 44.5720909,32.3528344 44.3653069,32.5622502 L39.2161985,37.7768915 C38.6932119,38.3065342 38.6932119,39.1653557 39.2161985,39.6951341 C39.4777588,39.9598876 39.8204791,40.0924 40.1631995,40.0924 C40.5059198,40.0924 40.8487741,39.9598876 41.1102004,39.6951341 L44.553475,36.2080368 C44.9827124,35.8661087 45.6074839,35.8948626 46.0029717,36.2955194 C46.2097557,36.5047995 46.323594,36.7832519 46.323594,37.0793364 C46.323594,37.3754209 46.2097557,37.6537377 46.0029717,37.8630178 L36.439213,47.5486305 C34.4391406,49.5741579 31.7813505,50.6887812 28.9534725,50.6887812 C28.9483833,50.6887812 28.9431601,50.6887812 28.9382048,50.6887812 L26.5366179,50.6853904 C26.5359482,50.6853904 26.5354125,50.6853904 26.5347429,50.6853904 C26.1795673,50.6853904 25.8388559,50.8283465 25.5877419,51.0826564 L13.1442754,63.6844915 C12.6212887,64.2141342 12.6212887,65.0729557 13.1442754,65.602734 C13.4058357,65.8674876 13.748556,66 14.0912763,66 C14.4339967,66 14.7768509,65.8674876 15.0382773,65.602734 L27.0886668,53.3988431 L28.9344548,53.4015557 C28.9410173,53.4015557 28.9471779,53.4015557 28.9536064,53.4015557 C32.4967909,53.4015557 35.8274324,52.0045467 38.3333488,49.466873 L47.8967057,39.7812603 C49.3677648,38.2914791 49.3677648,35.8671937 47.8967057,34.3772768 Z" id="Path"></path>
            </g>
        </g>
    </g>
</svg>