<?xml version="1.0" encoding="UTF-8"?>
<svg width="57px" height="72px" viewBox="0 0 57 72" version="1.1" xmlns="http://www.w3.org/2000/svg" xmlns:xlink="http://www.w3.org/1999/xlink">
    <!-- Generator: Sketch 54.1 (76490) - https://sketchapp.com -->
    <title>Group 16</title>
    <desc>Created with Sketch.</desc>
    <defs>
        <polygon id="path-1" points="1.10115411e-06 0.0181764264 54.9604741 0.0181764264 54.9604741 71 1.10115411e-06 71"></polygon>
        <polygon id="path-3" points="0.00900243471 0.0173389831 12.9757755 0.0173389831 12.9757755 5.95919745 0.00900243471 5.95919745"></polygon>
        <polygon id="path-5" points="0.0186351876 0.0145773913 0.97217024 0.0145773913 0.97217024 12 0.0186351876 12"></polygon>
    </defs>
    <g id="v4" stroke="none" stroke-width="1" fill="none" fill-rule="evenodd">
        <g id="Stovyklos-individualus_puslapis" transform="translate(-752.000000, -2155.000000)">
            <g id="Group-16" transform="translate(753.000000, 2155.000000)">
                <g id="Group-3">
                    <mask id="mask-2" fill="white">
                        <use xlink:href="#path-1"></use>
                    </mask>
                    <g id="Clip-2"></g>
                    <path d="M28.4185698,71.0000213 C28.4185698,70.856209 28.4168511,70.770977 28.4188384,70.6858517 C28.4390337,69.8342781 28.4415044,68.9818517 28.4849565,68.1314508 C28.5429106,66.9977428 28.6343804,65.8658471 28.7064067,64.7328321 C28.7116704,64.6500521 28.7048491,64.5370491 28.6544146,64.4857713 C28.4930669,64.3216505 28.5650933,64.1646189 28.6277202,63.9977796 C28.6736431,63.8755018 28.7503423,63.7501324 28.7486772,63.6271084 C28.7303081,62.2703794 28.7044194,60.9123179 28.2801567,59.6029755 C28.1962603,59.3441347 28.0798687,59.0926497 27.9487065,58.8539042 C27.9137944,58.7903134 27.7685601,58.7864222 27.6740288,58.7551332 C27.6209087,58.9640821 27.5250884,59.1723914 27.5220806,59.3820333 C27.5072563,60.3928239 27.5379253,61.4044673 27.5142388,62.4148847 C27.4763726,64.0292285 27.3772759,65.6425596 27.366104,67.2566902 C27.3606792,68.049417 27.4600444,68.8481137 27.5774028,69.6344973 C27.655606,70.158682 27.9131499,70.6271114 28.4185698,71.0000213 M40.4608843,56.4267916 C40.4608843,56.5918186 40.4482085,56.6960799 40.462979,56.7963967 C40.5429009,57.3392908 40.5917778,57.8902871 40.7213286,58.4216144 C41.0855962,59.9157593 41.5139409,61.3948727 41.8579595,62.8932818 C42.067271,63.8049282 42.1874761,64.7386422 42.3095073,65.6673989 C42.3902886,66.2821992 42.3912554,66.906914 42.4520562,67.5248592 C42.4810063,67.8193599 42.6457915,68.1197773 42.6056157,68.3970611 C42.5563628,68.7373494 42.6556743,69.0278524 42.7292583,69.3307218 C42.9004351,70.0352315 43.4706841,70.6797218 44.1320806,70.7250296 C44.1320806,70.6029117 44.1413726,70.4806339 44.1305229,70.3601685 C44.0608062,69.5855649 44.0126274,68.8078164 43.9081597,68.0377435 C43.733062,66.7475371 43.5458794,65.4578104 43.3162651,64.1763456 C43.1543267,63.272215 42.9398052,62.3750138 42.700147,61.4876737 C42.4978716,60.7384425 42.248814,59.9993922 41.9787017,59.2711092 C41.6113188,58.2807338 41.1447856,57.3360926 40.4608843,56.4267916 M51.6267437,0.0181444444 C51.5908647,0.0572690691 51.5585845,0.087651952 51.5318364,0.122192492 C50.1025884,1.96845901 48.3470464,3.40109189 46.1427495,4.24125856 C45.295728,4.56411667 44.413311,4.75094474 43.4937798,4.57664294 C42.1983257,4.33118123 41.2379741,3.65572177 40.6641265,2.45314595 C40.4343511,1.9716039 40.1819097,1.49357988 39.8779058,1.05627958 C39.6304595,0.700426727 39.2465874,0.485401201 38.7946099,0.409763814 C38.6529204,0.87829985 38.5812163,1.32242297 38.6602788,1.79282462 C38.7595903,2.38406486 38.9551519,2.93474129 39.240894,3.45993874 C39.8897759,4.65260015 40.8616753,5.47363093 42.1490728,5.90767973 C43.5948101,6.39508514 45.057144,6.32701682 46.4981548,5.89739219 C48.17877,5.39634114 49.6295562,4.51257237 50.7788628,3.17823078 C51.416895,2.43742147 51.8658647,1.59373679 52.1111089,0.648189489 C52.1335063,0.561891441 52.1401665,0.426127928 52.0902153,0.375436486 C51.9564214,0.239886186 51.7879302,0.13813018 51.6267437,0.0181444444 M7.09140674,4.37819474 C7.06981494,4.39722402 7.04827686,4.4162 7.02673877,4.43522928 C7.05413135,4.51203934 7.08163135,4.5889027 7.11111865,4.67136291 C6.80550342,4.67648003 6.82220752,4.18662267 6.44902393,4.3063952 C6.44161182,4.36513544 6.41373584,4.43693498 6.42759326,4.49967297 C6.53694873,4.9938479 6.61504443,5.50001607 6.78208545,5.9749485 C6.90830615,6.33357312 7.12540576,6.66986366 7.34771533,6.98424655 C7.896104,7.7595964 8.56953174,8.42434189 9.46172412,8.78339294 C10.8119097,9.32676682 12.2116704,9.25400781 13.5963384,8.91697102 C14.4973394,8.69768123 15.3407622,8.31650931 16.1541069,7.86881486 C17.9480522,6.88131787 19.5374126,5.65241021 20.8064946,4.03934565 C21.2021294,3.53648228 21.538145,2.9977458 21.7381108,2.38699655 C21.7666851,2.29963243 21.7644829,2.13652432 21.7140483,2.10395601 C21.6266606,2.04756111 21.490396,2.05832838 21.3744341,2.05662267 C21.3260942,2.05592973 21.2727593,2.08897778 21.2293071,2.11786817 C20.794356,2.4072518 20.3497368,2.68400255 19.9291802,2.99284189 C18.639688,3.93982838 17.3761919,4.92252808 16.0706401,5.84696727 C14.9383599,6.64875556 13.7275542,7.31216847 12.33252,7.57143574 C11.0821831,7.80378483 10.0131206,7.53417673 9.20917529,6.49732087 C8.91188525,6.11391021 8.61513232,5.73012643 8.31923877,5.3456497 C7.98961475,4.91741096 7.52469287,4.66880435 7.09140674,4.37819474 M54.9604741,11.4006917 C54.9432329,11.3939755 54.925938,11.3872593 54.9086431,11.3805431 C54.5217095,12.0585611 54.1317144,12.7349267 53.7485942,13.4150236 C53.016729,14.7141317 52.2763774,16.0087623 51.5628813,17.3178381 C50.9803325,18.3867293 50.4129302,19.4647886 49.8750688,20.5563869 C49.5600542,21.1958134 49.3605181,21.8925408 49.0314312,22.5235986 C48.1917144,24.1337848 47.335186,25.7366685 46.4348833,27.3140731 C45.5735747,28.8231962 44.6561919,30.3011369 43.7483159,31.7836617 C43.2787749,32.550483 42.7762017,33.2974222 42.2875933,34.0549688 C41.6223833,33.8653689 40.9823101,33.8605716 40.3405718,34.0672818 C39.679229,34.2802818 39.2274663,34.7114523 38.9706743,35.3493329 C38.0073149,34.5551137 36.9293901,34.5101257 35.8112896,34.7753096 C34.7062407,35.0372953 33.7487896,35.5522053 33.1116167,36.4968997 C31.9193413,35.4529545 30.6929595,35.8740506 29.4603472,36.3603899 C29.1008599,35.3144192 28.9276421,34.2412638 28.7781646,33.1630446 C28.768604,33.093697 28.7817095,32.9916212 28.7412651,32.9612916 C28.5534917,32.8206775 28.6305132,32.6461625 28.649688,32.4752188 C28.6604839,32.378953 28.6746099,32.2806084 28.6660161,32.1850889 C28.6248735,31.7255078 28.57127,31.2670994 28.5316851,30.807465 C28.4350591,29.6843644 28.3479399,28.5604643 28.2460503,27.4378967 C28.2291851,27.2518682 28.3002446,27.2149823 28.4635796,27.1941407 C28.9237749,27.1354538 29.3833794,27.0678119 29.8398687,26.9856182 C30.6034771,26.8480423 31.367354,26.7097203 32.1255913,26.5460258 C32.6252104,26.4380866 33.1149468,26.2851062 33.6091948,26.1523276 L33.6163921,26.070667 C33.4473638,25.9640071 33.2845659,25.8456204 33.1081792,25.7526062 C32.1699565,25.2577383 31.1593315,25.2016099 30.134312,25.3202098 C29.4791997,25.3959538 28.8317144,25.5356084 28.1787505,25.6331002 C28.1204204,25.6417886 28.0018267,25.5616737 27.9880767,25.5045859 C27.9156206,25.2036354 27.8716313,24.8960754 27.8107769,24.5921399 C27.6137651,23.6084808 27.3491851,22.6425716 26.8303911,21.7743674 C26.3724517,21.0080791 25.6973589,20.5401294 24.7647759,20.5437541 C23.816187,20.5473787 23.0751909,20.9913952 22.4977446,21.7012353 C21.6761821,22.711173 21.3523589,23.938748 21.0421245,25.1642443 C20.9014556,25.7198246 20.7990288,26.2849462 20.6758696,26.8614215 C18.9500835,26.7371715 17.2329985,26.522679 15.429439,26.8308254 C15.5755327,26.9906287 15.6642632,27.1190363 15.7819438,27.2109845 C16.2325249,27.5629462 16.7790337,27.6918869 17.3251128,27.7451902 C18.2847661,27.8388974 19.2504351,27.8721054 20.2135259,27.9308456 C20.3147173,27.9370288 20.4158013,27.9447045 20.5174761,27.9517405 C19.6417192,35.1754575 20.1294146,42.2668757 22.0937847,49.3324417 C21.5677397,49.1770093 21.1117339,49.0644327 20.6713579,48.9083607 C18.9153862,48.285938 17.3364995,47.3507315 15.8961333,46.1836024 C15.7385991,46.0558877 15.6162456,45.9527458 15.3431255,46.1397871 C15.4753618,45.771248 15.2707231,45.6154958 15.0783843,45.4714703 C14.8943706,45.3336812 14.7940386,44.9950986 14.4227349,45.2168404 C14.431812,45.1033044 14.452061,45.0256947 14.4398149,44.9534688 C14.4279985,44.8838014 14.3973833,44.8063517 14.3499028,44.7552871 C12.5121294,42.775176 11.2708696,40.4370799 10.2474077,37.9748937 C9.75262256,36.7846842 9.30617725,35.5740596 8.86145068,34.3641279 C8.50190967,33.3860656 8.17464893,32.3962766 7.83874072,31.4098456 C7.42033252,30.1810446 7.00369678,28.9516572 6.59431201,27.7199778 C6.35465381,26.9987841 6.10511279,26.2793494 5.90530811,25.5470153 C5.59335498,24.4039793 5.31293018,23.2522548 5.03239795,22.1010634 C4.82695361,21.2581249 4.64154346,20.4104425 4.44909717,19.5644658 C4.21937549,18.5547413 4.01033252,17.539953 3.75740771,16.5360919 C3.53064014,15.6358524 3.2633208,14.7453674 3.00153369,13.8541895 C2.53032764,12.24992 1.90088916,10.7106272 1.04892627,9.26573453 C1.01245654,9.2038494 0.942471191,9.12698604 0.880757324,9.11979009 C0.47658252,9.07277658 0.000542480469,9.19377508 5.37109375e-06,9.7960491 C-0.00117626953,11.0355108 0.242993652,12.2320101 0.606992676,13.4005251 C1.0800249,14.9187631 1.63206592,16.4124815 2.12787158,17.92395 C2.38407275,18.7050033 2.60530811,19.4981032 2.81907764,20.2919492 C3.17324756,21.6073149 3.50448291,22.9287571 3.85312061,24.2456152 C4.09310107,25.1520378 4.33936572,26.056968 4.5950835,26.9591797 C4.987979,28.3454387 5.37872607,29.7324973 5.79466357,31.1119868 C6.07009326,32.0252856 6.36953174,32.9325078 6.69142139,33.8306685 C7.12341846,35.0358562 7.54682178,36.2468006 8.04901904,37.4237375 C8.57119678,38.6474748 9.15530322,39.8475986 9.76229053,41.0327443 C10.50377,42.4802488 11.3989165,43.8361782 12.4500396,45.0834755 C12.7414751,45.4292541 13.0935503,45.7241812 13.4077593,46.0518366 C13.6123442,46.2651565 13.7871196,46.5075266 13.9991704,46.7124778 C14.0858062,46.796164 14.2381841,46.810236 14.3557036,46.8662045 C14.4101665,46.8921632 14.5005083,46.958206 14.4934185,46.979474 C14.4249907,47.1853847 14.6011626,47.2449778 14.7066509,47.3294102 C15.8025151,48.2062495 16.9884526,48.949724 18.2582329,49.5455483 C19.0825884,49.9323704 19.9412651,50.2524568 20.800103,50.5594305 C21.3424761,50.7533479 21.9142827,50.8655514 22.4708354,51.02173 C22.5355571,51.0399065 22.6196685,51.0937428 22.6394878,51.1500844 C23.0787358,52.4016459 23.4982183,53.6600836 23.9471343,54.9080739 C24.2611284,55.7808622 24.6337749,56.631956 25.2274956,57.3610919 C25.7705669,58.0281827 26.4323931,58.5038614 27.3356499,58.5618021 C28.3218901,58.6250198 29.300772,58.5754477 30.2749272,58.4104207 C30.6694878,58.3435251 31.0581938,58.2681009 31.4191851,58.0044095 C31.3546782,57.9565964 31.3128374,57.918218 31.2645513,57.8908201 C30.6569731,57.5459477 29.9893462,57.4045341 29.3033501,57.3331077 C28.7611919,57.2766062 28.215811,57.2470228 27.6756938,57.1767158 C26.8221196,57.0655784 26.1815093,56.6450686 25.8424321,55.8357113 C25.5051274,55.0303517 25.1497222,54.2311219 24.8501763,53.4119568 C24.4709771,52.3746745 24.1269048,51.3240664 23.791856,50.2715926 C23.3602886,48.9158231 22.9500981,47.5532308 22.5363091,46.1918644 C22.3955327,45.7288186 22.2110894,45.278459 22.2238726,44.7757023 C22.2326274,44.4316294 22.1813335,44.0851047 22.1440044,43.7409785 C21.9976421,42.3913389 21.819644,41.0445243 21.7033599,39.6923261 C21.5574272,37.9945626 21.4521538,36.2931212 21.3444097,34.5923194 C21.1844048,32.0661692 21.2708794,29.5552638 21.8306011,27.0728757 C22.1335845,25.7289928 22.5424321,24.4285521 23.2922905,23.2561992 C23.6795464,22.650727 24.1549419,22.1289943 24.8068315,21.7507541 C24.9545903,21.9785724 25.1004155,22.1884808 25.2310942,22.4073441 C25.8278228,23.4066212 26.1919292,24.4958742 26.4329839,25.6231324 C26.6088335,26.445176 26.7409624,27.2773471 26.864229,28.1091985 C26.9811577,28.898727 27.0698882,29.692733 27.1554497,30.4864192 C27.2790923,31.6331865 27.3518706,32.7866167 27.5147759,33.9275739 C27.6785405,35.0748209 27.921314,36.2112473 28.1423882,37.3499125 C28.1726812,37.5058779 28.2378325,37.7195709 28.3549224,37.7833749 C28.8454106,38.0506377 29.3540532,38.2897563 29.8712896,38.5025964 C30.297647,38.6780176 30.5970317,38.5215724 30.7557476,38.0912015 C30.8045171,37.9588494 30.8298687,37.8181287 30.8734819,37.6836444 C30.9521685,37.4409545 31.0591069,37.2212916 31.3553228,37.1834995 C31.7178179,37.1372323 32.1560991,37.3434095 32.3184673,37.6731437 C32.4263188,37.8920604 32.5241265,38.1293134 32.5581255,38.3679523 C32.6345024,38.9028509 32.6503472,39.4462781 32.7259722,39.9813366 C32.7725396,40.3106977 32.8557378,40.6415514 32.9735259,40.952736 C33.1098442,41.313173 33.4962407,41.5192968 33.8039507,41.4731895 C33.8974077,40.719161 33.9786724,39.9708359 34.0855571,39.2261354 C34.2070513,38.379679 34.4500933,37.5657375 34.9029839,36.8330303 C35.3258501,36.1487225 35.9085601,35.7115288 36.7756157,35.8309815 C37.3270659,35.906992 37.7660991,36.1316122 37.9796001,36.6957743 C38.106519,37.0313719 38.2303228,37.4055611 38.4696587,37.6542743 C39.0091851,38.2149718 39.2349858,38.2368261 39.5725591,37.522242 C39.7860601,37.0704432 39.8983159,36.5713111 40.0535942,36.0925941 C40.2328813,35.5397856 40.6860942,35.2145821 41.2615532,35.18292 C42.2033208,35.1311092 42.9836333,35.8271437 43.2606743,36.6508929 C43.455269,37.2295003 43.4246538,37.3507653 43.084395,37.5516655 C42.8639653,37.6817788 42.8269585,37.8497908 42.9059673,38.0645498 C42.9639214,38.2221144 43.0420171,38.3724297 43.1006157,38.5297811 C43.4877104,39.5688224 43.8191606,40.6259335 43.9334575,41.7311775 C44.0473784,42.8330101 44.1778423,43.9397998 44.1787554,45.0445641 C44.179561,46.0420288 44.0450688,47.0435979 43.9146587,48.036212 C43.7923052,48.9672075 43.5675786,49.8815191 43.2025591,50.7540408 C43.1048052,50.9878824 42.9965776,51.2126092 43.2103472,51.4420266 C43.2286089,51.4616422 43.208145,51.5168111 43.2050835,51.5648907 C42.9125737,51.4061002 42.9081157,51.4103111 42.8415679,51.7434568 C42.8302886,51.8000649 42.8010698,51.8628562 42.7601421,51.9022473 C42.5338042,52.1201512 42.3818022,52.3646535 42.4434624,52.6393254 C42.3335698,52.7025964 42.203106,52.7366572 42.1924712,52.7929988 C42.1741558,52.8896377 42.2307671,53.000242 42.2499956,53.0803036 C42.1191021,53.1066354 41.9680132,53.0908044 41.9140337,53.1551947 C41.5301616,53.6130701 41.0216265,53.9052255 40.5344683,54.2286167 C40.1465679,54.4862315 39.7937944,54.7796129 39.6415239,55.2694703 C40.0052544,55.1820529 40.3624321,55.0843479 40.6978569,54.9375506 C41.6165288,54.5354305 42.3208403,53.8663674 42.9137017,53.0816895 C43.0785405,52.8634658 43.344356,52.665444 43.2434868,52.3167338 C43.8089556,52.2521302 43.3591802,51.9278329 43.3960796,51.7197368 C43.7559429,51.9288989 43.9645562,51.5248599 43.8764165,51.1361722 C44.1652202,50.9770086 44.2228521,50.8396992 44.1550151,50.4724395 C44.3814067,50.3147683 44.4878081,50.1066722 44.3629839,50.0477721 C44.30648,50.0797008 44.2458403,50.1139748 44.1852544,50.1482488 C44.2511577,50.0042233 44.3625005,49.9104095 44.4351714,49.7930356 C44.4873784,49.7086565 44.5311528,49.5792893 44.503814,49.4935243 C44.4091216,49.1965716 44.4067046,49.1872968 44.7235454,49.2325514 C44.8289263,48.8038329 44.9731401,48.3791122 45.0324907,47.9430911 C45.1784771,46.8721745 45.3342925,45.7988059 45.396812,44.7212796 C45.4977886,42.9781017 45.4296831,41.2543794 44.6187554,39.6317203 C44.2356353,38.8651122 44.1422856,38.0392841 44.3686772,37.1737983 C44.5629497,36.4310168 44.5049419,35.6870626 43.9493022,35.0745011 C43.8025103,34.9125656 43.8305474,34.7992428 43.9406011,34.6418914 C44.6027495,33.694905 45.286812,32.7611377 45.9072808,31.7876595 C46.6179302,30.6727676 47.3225103,29.5480679 47.9340093,28.3783802 C48.6564751,26.9964387 49.2937554,25.5694027 49.9356011,24.1475371 C50.4731401,22.9567413 50.9812993,21.7521399 51.4712505,20.5411955 C52.1005278,18.9860183 52.7039165,17.4203937 53.3083257,15.855462 C53.7794243,14.6357758 54.2367192,13.4108659 54.6961089,12.1868089 C54.7932183,11.9280746 54.8728179,11.6628907 54.9604741,11.4006917" id="Fill-1" fill="#F0764B" mask="url(#mask-2)"></path>
                </g>
                <path d="M55,11.2679357 C54.9122807,11.5276033 54.8326239,11.7902271 54.7354446,12.0464634 C54.2757246,13.2587031 53.8181008,14.4717875 53.3466634,15.6796985 C52.7418195,17.2295219 52.1379969,18.7800316 51.508267,20.3201947 C51.0179634,21.5194484 50.5094388,22.7124202 49.9715131,23.8917198 C49.3292058,25.2998583 48.6914672,26.7130646 47.9684818,28.0817172 C47.356543,29.2401125 46.6514562,30.3539012 45.9402957,31.4580825 C45.3193807,32.4221097 44.6348262,33.3468621 43.9722016,34.284759 C43.8620687,34.4405912 43.8340114,34.55282 43.980909,34.7131393 C44.5369483,35.319787 44.5949978,36.0566117 44.4005856,36.7922222 C44.1740312,37.6492995 44.2674479,38.4672077 44.6508436,39.2263619 C45.4623545,40.8334083 45.530509,42.5404893 45.4294061,44.2668382 C45.3668953,45.3339617 45.2109678,46.396915 45.0648765,47.4575455 C45.0054832,47.8893571 44.8611656,48.3099775 44.755709,48.734557 C44.4386403,48.6897394 44.441059,48.6989246 44.5357658,48.9930104 C44.5631781,49.0778947 44.5193722,49.2060128 44.4671276,49.2895774 C44.3944044,49.4058181 44.2829816,49.498779 44.2170309,49.6413613 C44.2776604,49.6074709 44.3383436,49.5735278 44.3948882,49.5419073 C44.5198022,49.6002389 44.4133243,49.8062731 44.1867698,49.9624221 C44.2546555,50.3261891 44.1969823,50.4621727 43.9079708,50.619747 C43.9961739,51.0046822 43.7874106,51.4048733 43.4272885,51.1977305 C43.3903625,51.4038176 43.8404614,51.724984 43.274586,51.7889639 C43.3755276,52.1343076 43.109521,52.3304176 42.9445636,52.5464818 C42.3512759,53.3235842 41.6464579,53.9862408 40.7271253,54.3844787 C40.3914593,54.5298588 40.0340246,54.6266205 39.6700326,54.7131412 C39.8224126,54.2280658 40.175386,53.9375168 40.5636191,53.682389 C41.0510739,53.36212 41.5600286,53.0727323 41.9441767,52.6192774 C41.998195,52.5555086 42.1493926,52.5711869 42.2803802,52.545162 C42.2611379,52.4658734 42.2044859,52.3563369 42.2228145,52.2605782 C42.2334031,52.2048333 42.3640146,52.1711013 42.4739862,52.1084411 C42.4122817,51.8363682 42.564393,51.5942264 42.7908936,51.378479 C42.8318508,51.3394154 42.8610906,51.2772831 42.872378,51.2212215 C42.9389199,50.8912921 42.9433811,50.8871218 43.236155,51.0443265 C43.2392187,50.9967639 43.2596973,50.9421276 43.2414225,50.9227014 C43.0274992,50.6954988 43.1358046,50.4728888 43.2336288,50.2413576 C43.5989108,49.3772066 43.823799,48.4717748 43.9462405,47.5497146 C44.0767445,46.5667362 44.2113334,45.5748366 44.2105272,44.5869488 C44.2096134,43.492903 44.0790557,42.3967985 43.9650529,41.3056033 C43.8506738,40.2109768 43.5189315,39.1641241 43.1315584,38.1351139 C43.0729713,37.9792289 42.9948195,37.8304176 42.9367699,37.6743742 C42.8577581,37.4616885 42.8947915,37.2952985 43.1153798,37.1664413 C43.4558832,36.9674807 43.4865205,36.8473864 43.2917858,36.2743651 C43.0145456,35.4585685 42.2336719,34.7692537 41.291227,34.8205115 C40.7153541,34.851868 40.2618153,35.1739846 40.0823992,35.7214562 C39.9270093,36.1954988 39.8146189,36.6898649 39.6010181,37.1373019 C39.2632021,37.8449873 39.0372389,37.8232911 38.4973246,37.2680596 C38.2578165,37.0217475 38.1339237,36.651118 38.0069135,36.3187604 C37.793259,35.7600448 37.35391,35.5375932 36.8020632,35.4623693 C35.934384,35.3440698 35.3512012,35.7770427 34.9280309,36.4547441 C34.4748683,37.1803775 34.2315978,37.986461 34.11007,38.8247455 C34.0030546,39.5622564 33.9217853,40.303357 33.828261,41.0500532 C33.5203298,41.0957682 33.1336554,40.8916343 32.997239,40.5346771 C32.8793662,40.2264967 32.7961081,39.8988372 32.7495072,39.572603 C32.6738278,39.0427101 32.6579717,38.5045821 32.5815398,37.9747947 C32.5474626,37.7385124 32.4496384,37.5035499 32.3417093,37.2867468 C32.1792243,36.9601959 31.7406279,36.7560092 31.3778721,36.8018298 C31.0814432,36.8392569 30.9744278,37.0567464 30.8956847,37.2971461 C30.8519863,37.430332 30.8266703,37.5696942 30.7778657,37.7007685 C30.6189819,38.1269317 30.3194356,38.2819193 29.8927716,38.1081389 C29.3751632,37.8974064 28.8661549,37.6605435 28.3753138,37.3959138 C28.2581398,37.3327257 28.1929415,37.1210958 28.1626268,36.9666361 C27.9413936,35.8389111 27.6984455,34.7135088 27.5345631,33.5773376 C27.3715407,32.4473955 27.29871,31.3051008 27.1749785,30.1694047 C27.0893555,29.3833282 27.0005612,28.5969877 26.8834946,27.8150815 C26.7601931,26.9913139 26.6279692,26.1671767 26.4519931,25.3530693 C26.2107651,24.2366411 25.8463967,23.1579041 25.2492391,22.1682743 C25.1184664,21.9515767 24.9725363,21.743642 24.8246712,21.5180231 C24.1723128,21.8926645 23.6965216,22.4093603 23.309041,23.0089871 C22.5586433,24.1700218 22.1495016,25.4579077 21.8463003,26.7888164 C21.2861761,29.2472389 21.1996393,31.7338506 21.3597592,34.2356127 C21.4675809,35.9200473 21.57293,37.6050626 21.7189676,39.2864355 C21.8353354,40.6255264 22.0134615,41.9593913 22.159929,43.2960012 C22.197285,43.6367522 22.2486158,43.9799316 22.2398546,44.3206826 C22.2270622,44.8186384 22.4116382,45.2646502 22.5525159,45.7232256 C22.9666025,47.071449 23.3770879,48.4208337 23.8089657,49.7635671 C24.1442555,50.80588 24.4885752,51.8463452 24.8680471,52.8736133 C25.1678085,53.6848701 25.5234694,54.4763838 25.8610166,55.2739155 C26.2003376,56.0755119 26.8414087,56.491962 27.6955968,56.6020264 C28.2361024,56.6716547 28.7818755,56.7009524 29.3244236,56.7568557 C30.0109131,56.8276453 30.6790202,56.9676409 31.2870353,57.3092366 C31.3353562,57.33637 31.3772271,57.3743779 31.4417803,57.4217293 C31.0804757,57.6828222 30.6915439,57.7575183 30.2966458,57.8237681 C29.3218437,57.9872547 28.3422578,58.0363482 27.3553083,57.9737408 C26.4514019,57.9163595 25.7890997,57.4452203 25.2456378,56.7846225 C24.6514901,56.0625259 24.2785757,55.2196487 23.9643557,54.3552866 C23.5150631,53.1193447 23.0953327,51.8730563 22.6557688,50.6335777 C22.6359352,50.57778 22.5517634,50.5244634 22.4869951,50.5064625 C21.9300421,50.3517388 21.3578243,50.2406714 20.8150611,50.0486261 C19.9556056,49.7445632 19.0963113,49.427567 18.2713629,49.0445322 C17.0006694,48.4544601 15.813879,47.7181633 14.7172266,46.8497364 C14.6116625,46.7661191 14.4353639,46.7071014 14.5038409,46.5032314 C14.5109358,46.4821687 14.420529,46.4167107 14.366027,46.3910554 C14.2484229,46.3355745 14.0959354,46.3216911 14.0092374,46.23876 C13.7970341,46.0358403 13.622133,45.7958101 13.4174009,45.5845497 C13.1029659,45.2600047 12.7506375,44.9679777 12.4589924,44.6255374 C11.4071134,43.390229 10.5113231,42.0473901 9.76931036,40.6139129 C9.16183277,39.4401562 8.57730624,38.2516714 8.05480671,37.0397484 C7.55224827,35.8741211 7.12854044,34.6749203 6.69623268,33.481315 C6.37411153,32.5918254 6.07445771,31.6934145 5.79882993,30.7888801 C5.38259329,29.4227614 4.9915652,28.0490938 4.59838713,26.6762181 C4.34248545,25.7827166 4.09604369,24.8865228 3.85589063,23.988851 C3.50694844,22.6846534 3.17547487,21.3760215 2.82110399,20.0733548 C2.60718071,19.2871726 2.38578625,18.5017296 2.12940082,17.7282168 C1.63323858,16.2313404 1.08080054,14.7519899 0.607428116,13.2484621 C0.243167309,12.0912283 -0.00117821744,10.9062275 4.27301054e-06,9.67878468 C0.000541768669,9.08232516 0.476924171,8.96249481 0.881389653,9.00905444 C0.943147905,9.01618092 1.01318359,9.09230222 1.04967954,9.15353712 C1.90225516,10.5845332 2.53214632,12.1089653 3.00369126,13.697694 C3.26566664,14.580321 3.53317823,15.462209 3.7601089,16.3537046 C4.01321561,17.347927 4.22240892,18.3529182 4.45229581,19.3528418 C4.6448805,20.1906512 4.83037025,21.0302027 5.03601609,21.8650032 C5.31675008,23.005028 5.59737656,24.1456334 5.90955404,25.2776871 C6.10950242,26.002951 6.35922291,26.7154401 6.59905347,27.4296184 C7.00873266,28.6494597 7.42566804,29.8669783 7.84437716,31.0838634 C8.18052694,32.0608238 8.50802305,33.0410572 8.86782264,34.0096771 C9.31286905,35.207875 9.75963544,36.4068119 10.2547227,37.5855308 C11.2789744,40.0239464 12.5210731,42.3395227 14.360222,44.3004646 C14.4077366,44.3510361 14.4383739,44.4277909 14.4501988,44.4967329 C14.4624537,44.5683144 14.4421901,44.6451748 14.4331064,44.7576147 C14.8046772,44.5380137 14.9050814,44.8733275 15.0892274,45.0097863 C15.2817046,45.1524214 15.4864367,45.30667 15.3541052,45.671651 C15.6274218,45.4863627 15.7499171,45.5885616 15.9075645,45.7149906 C17.3489666,46.8709047 18.9289889,47.7970824 20.6862234,48.4134961 C21.1269161,48.5680086 21.5832499,48.6795511 22.1096732,48.833483 C20.1438903,41.8360769 19.6558442,34.8131211 20.5321772,27.6591437 C20.430483,27.6522284 20.3293263,27.6446268 20.2280621,27.6385033 C19.2642787,27.5803302 18.2979152,27.5474428 17.3375717,27.4546403 C16.7910999,27.4017988 16.2441981,27.2741029 15.7932929,26.9255391 C15.6755277,26.8345314 15.5867334,26.7073634 15.4405345,26.5491029 C17.2453912,26.2439314 18.9637111,26.4563532 20.6907384,26.5794036 C20.8139861,26.0084938 20.9164866,25.448828 21.0572567,24.8986114 C21.3677142,23.6849464 21.6917703,22.4692227 22.5139237,21.4690352 C23.0917852,20.7659953 23.8332605,20.3263182 24.7825853,20.3226758 C25.715839,20.3190862 26.3914173,20.7825709 26.8496861,21.5414085 C27.3688532,22.4012308 27.6336236,23.3578149 27.8307232,24.3320303 C27.8916752,24.6330315 27.9356961,24.9376223 28.0082043,25.2356673 C28.0219642,25.292204 28.1406432,25.3714926 28.1990152,25.362888 C28.8524487,25.2663375 29.5003997,25.1280839 30.1559832,25.0530184 C31.1817399,24.9356163 32.1930917,24.99115 33.1319354,25.4812931 C33.3085027,25.5734094 33.4714177,25.6906003 33.6405675,25.7962305 L33.6333651,25.8771556 C33.1387616,26.0086522 32.648673,26.1601558 32.1486408,26.2670001 C31.389912,26.429167 30.6254856,26.5661009 29.8613281,26.7023485 C29.4045105,26.7838015 28.9445755,26.8507375 28.4840492,26.9089107 C28.3205968,26.9295511 28.2494861,26.9660809 28.2663634,27.1502606 C28.3682726,28.2620434 28.4555082,29.3750932 28.5522036,30.4873511 C28.5918171,30.942548 28.6454591,31.3965308 28.6866313,31.8516222 C28.6951775,31.9462196 28.6810951,32.0436147 28.6702914,32.1390039 C28.6511028,32.3082973 28.574026,32.4811275 28.7619344,32.6203841 C28.8024079,32.6504208 28.7892392,32.7515112 28.7988604,32.8201365 C28.9483917,33.8879463 29.1217878,34.9507412 29.4815336,35.9866667 C30.7150324,35.5049698 31.9422963,35.0879918 33.1354291,36.1218585 C33.7730602,35.1862316 34.7312,34.6763456 35.8370435,34.4168891 C36.9559483,34.1542653 38.0346483,34.198819 38.9987005,34.9853706 C39.2556772,34.3535954 39.7077648,33.9266404 40.3695832,33.715644 C41.011783,33.5109294 41.6523166,33.5157332 42.3180049,33.7034498 C42.8069647,32.9532168 43.3098994,32.2134888 43.7797781,31.4541233 C44.688307,29.9859112 45.6062959,28.5221861 46.4682777,27.0276853 C47.3692279,25.4655093 48.2263722,23.8781003 49.0666929,22.2834065 C49.3960165,21.6584938 49.5956962,20.9684927 49.9109374,20.3352395 C50.4491855,19.2541797 51.0169422,18.1865283 51.5999637,17.1279565 C52.3139729,15.8315188 53.054857,14.5493868 53.7872485,13.2628207 C54.1706442,12.5892368 54.5609198,11.9194538 54.9481317,11.2479816 C54.9653853,11.2546329 54.9827464,11.2612843 55,11.2679357" id="Fill-4" stroke="#F0764B" stroke-width="0.2" fill="#F0764B"></path>
                <path d="M6.69664424,4.28109318 C7.14878576,4.56669333 7.63399577,4.81091734 7.97790805,5.23169704 C8.28667805,5.60947696 8.59640088,5.98657601 8.90662814,6.36330844 C9.74550282,7.38210437 10.8610879,7.64701646 12.1658359,7.41871441 C13.6216341,7.16396305 14.8851306,6.51210544 16.0666845,5.72428267 C17.4289941,4.81594533 18.747474,3.85036226 20.0931373,2.91987035 C20.5319954,2.61641037 20.995907,2.34448005 21.4498421,2.06018927 C21.4951291,2.03174971 21.550785,1.99932967 21.6012285,2.00001054 C21.7222367,2.00163417 21.8644312,1.99105444 21.9556218,2.04646705 C22.0083072,2.0784681 22.0106052,2.23873519 21.9807314,2.32462998 C21.7721197,2.92474122 21.4214256,3.45404163 21.00863,3.94814614 C19.6843211,5.53316678 18.0257402,6.74061699 16.1537275,7.7109138 C15.3049883,8.15086269 14.4248621,8.525343 13.4846521,8.7408132 C12.0397273,9.07203187 10.579109,9.14347119 9.17011113,8.60956178 C8.2391491,8.25676467 7.53635965,7.60359769 6.96410666,6.84175286 C6.73212281,6.53284589 6.50557564,6.20246522 6.37386217,5.8500871 C6.199552,5.38337465 6.11811384,4.88607528 6.00399953,4.4004555 C5.98948302,4.33886266 6.01857208,4.26826134 6.02630675,4.21054423 C6.41573024,4.09291028 6.39829922,4.57423532 6.71721396,4.56915495 C6.68644345,4.48813103 6.65780278,4.41265885 6.62916211,4.33713429 C6.65163747,4.31843646 6.67416888,4.29979101 6.69664424,4.28109318" id="Fill-6" stroke="#F0764B" stroke-width="0.2" fill="#F0764B"></path>
                <g id="Group-10" transform="translate(39.000000, 0.000000)">
                    <mask id="mask-4" fill="white">
                        <use xlink:href="#path-3"></use>
                    </mask>
                    <g id="Clip-9"></g>
                    <path d="M12.4942329,0.0173237288 C12.6490464,0.131781356 12.8109274,0.228849153 12.9393798,0.358154237 C12.9874075,0.406459322 12.9810107,0.535967797 12.9594988,0.618340678 C12.7238996,1.52032373 12.2927329,2.32508644 11.6798758,3.03181525 C10.5760107,4.30462881 9.1826377,5.14773051 7.56847103,5.62569661 C6.18443532,6.03547627 4.77986786,6.10040847 3.39129246,5.63545932 C2.15479643,5.22145932 1.22132421,4.43820508 0.598098016,3.30054407 C0.323653571,2.79954407 0.135875794,2.27423898 0.0404392857,1.71018814 C-0.0354972222,1.26151017 0.0333718254,0.837798305 0.169459127,0.3909 C0.60356627,0.463052542 0.972260714,0.668171186 1.20992341,1.00762881 C1.50190754,1.42473051 1.74436786,1.88078136 1.96505833,2.34013729 C2.51621706,3.48725593 3.43859802,4.13164576 4.68283214,4.36579831 C5.56600675,4.53206949 6.41353452,4.35384915 7.22706627,4.0458661 C9.34420913,3.24435763 11.0303401,1.87773051 12.4030782,0.116577966 C12.4287687,0.0835779661 12.4597726,0.0545949153 12.4942329,0.0173237288" id="Fill-8" stroke="#F0764B" stroke-width="0.2" fill="#F0764B" mask="url(#mask-4)"></path>
                </g>
                <path d="M41.0055009,57 C41.7488798,57.8903867 42.2559864,58.815272 42.6553198,59.7849897 C42.9489232,60.498082 43.2196408,61.2217691 43.4395077,61.9553204 C43.7000085,62.8242042 43.9331281,63.7026912 44.1092084,64.5879632 C44.3587917,65.8426986 44.5622532,67.1054715 44.7525788,68.3687664 C44.8661319,69.1227767 44.9185006,69.8843027 44.9942805,70.6427493 C45.0060737,70.7607021 44.9959736,70.8804293 44.9959736,71 C44.2770568,70.9556894 43.6572144,70.3246422 43.4711508,69.6347752 C43.3911673,69.3382232 43.2832189,69.0537796 43.3367552,68.7205892 C43.380425,68.4490891 43.2013088,68.1549379 43.1698409,67.8665799 C43.103694,67.2615241 43.1027015,66.6498921 43.0148949,66.0478633 C42.8822508,65.1385311 42.7515918,64.2242407 42.5240769,63.3316098 C42.1500813,61.864455 41.6845427,60.4161935 41.2885956,58.9532663 C41.147778,58.4329694 41.0946503,57.893466 41.0077778,57.3619479 C40.9917227,57.2637236 41.0055009,57.161637 41.0055009,57" id="Fill-11" stroke="#F0764B" stroke-width="0.2" fill="#F0764B"></path>
                <g id="Group-15" transform="translate(28.000000, 59.000000)">
                    <mask id="mask-6" fill="white">
                        <use xlink:href="#path-5"></use>
                    </mask>
                    <g id="Clip-14"></g>
                    <path d="M0.744522222,12.0000209 C0.396003704,11.6350122 0.218411111,11.1765078 0.164485185,10.6634296 C0.0835592593,9.89370783 0.0150407407,9.11193391 0.0187814815,8.33600348 C0.0264851852,6.75607304 0.0948185185,5.17692522 0.12092963,3.59678609 C0.137262963,2.60777739 0.116114815,1.6175687 0.126337037,0.628194783 C0.128411111,0.422994783 0.194485185,0.21909913 0.231114815,0.0145773913 C0.2963,0.0452034783 0.396448148,0.0490121739 0.420522222,0.111255652 C0.510966667,0.344942609 0.591225926,0.59109913 0.649077778,0.844455652 C0.941633333,2.12605565 0.959485185,3.45534261 0.972151852,4.78332522 C0.9733,4.90374261 0.920411111,5.02645565 0.888744444,5.14614261 C0.845559259,5.30944696 0.795892593,5.4631513 0.907151852,5.62379478 C0.94192963,5.67398609 0.946633333,5.78459478 0.943003704,5.86562087 C0.893337037,6.97462957 0.830262963,8.08254261 0.7903,9.19222957 C0.760337037,10.0246122 0.758633333,10.8589774 0.744707407,11.6925078 C0.743337037,11.7758296 0.744522222,11.8592557 0.744522222,12.0000209" id="Fill-13" stroke="#F0764B" stroke-width="0.2" fill="#F0764B" mask="url(#mask-6)"></path>
                </g>
            </g>
        </g>
    </g>
</svg>