<?xml version="1.0" encoding="UTF-8"?>
<svg width="65px" height="65px" viewBox="0 0 65 65" version="1.1" xmlns="http://www.w3.org/2000/svg" xmlns:xlink="http://www.w3.org/1999/xlink">
    <!-- Generator: Sketch 55.2 (78181) - https://sketchapp.com -->
    <title>rocket</title>
    <desc>Created with Sketch.</desc>
    <g id="v5" stroke="none" stroke-width="1" fill="none" fill-rule="evenodd">
        <g id="Camping-event-individual-page-motyvatorius" transform="translate(-164.000000, -1986.000000)" fill="#F07B52" fill-rule="nonzero" stroke="#F07B52" stroke-width="0.4">
            <g id="rocket" transform="translate(164.000000, 1986.000000)">
                <g id="Group">
                    <path d="M62.2219166,13.9850679 C65.2301483,6.38360054 64.6769817,2.09201087 64.6521203,1.91396739 C64.5899667,1.46762228 64.2356915,1.11648098 63.788186,1.05466033 C63.7633246,1.05095109 63.6589066,1.03858696 63.4811475,1.02498641 C63.4799044,1.02498641 63.4786613,1.02498641 63.4774182,1.02498641 C63.4326677,1.02127717 63.3817018,1.01880435 63.3270067,1.01633152 C63.3257636,1.01633152 63.3232774,1.01633152 63.3220344,1.01633152 C63.0846078,1.00396739 62.755194,0.9953125 62.3400083,1.0052038 C62.3325499,1.0052038 62.3250915,1.0052038 62.3188761,1.0052038 C62.0739911,1.01014946 61.7980294,1.02251359 61.4947201,1.04353261 C61.4822894,1.04353261 61.4711017,1.04476902 61.4611572,1.04600543 C61.3194471,1.05589674 61.1740078,1.06702446 61.019867,1.08186141 C61.0049501,1.08309783 60.9912763,1.08433424 60.9751164,1.08557065 C60.811031,1.10040761 60.6394873,1.11771739 60.4629712,1.13873641 C60.4492974,1.13997283 60.4368667,1.14244565 60.424436,1.14368207 C60.2653229,1.16222826 60.0999945,1.1844837 59.9309368,1.20673913 C59.8961308,1.21168478 59.8600818,1.21663043 59.8252758,1.22157609 C59.6375721,1.24754076 59.443653,1.27721467 59.2447616,1.30936141 C59.2397894,1.30936141 59.2323309,1.31059783 59.2261156,1.31183424 C59.0396549,1.34274457 58.8444928,1.37736413 58.6456014,1.41445652 C58.5946355,1.42434783 58.5424266,1.43423913 58.4889745,1.44413043 C58.3012708,1.47998641 58.1085948,1.51831522 57.9109465,1.56035326 C57.8860851,1.56529891 57.8624667,1.57024457 57.8376053,1.57519022 C57.621311,1.6209375 57.4000443,1.67163043 57.1750485,1.7247962 C57.1091657,1.74086957 57.043283,1.75570652 56.9761572,1.7730163 C56.7946688,1.81752717 56.6094512,1.86327446 56.4217475,1.91273098 C56.360837,1.92756793 56.3011696,1.94240489 56.2402591,1.95971467 C56.0053187,2.02153533 55.764163,2.08830163 55.519278,2.15877717 C55.4471799,2.17855978 55.3738387,2.20081522 55.3004975,2.22183424 C55.1103076,2.27747283 54.9151455,2.33558424 54.7187403,2.39740489 C54.6342115,2.42336957 54.5521688,2.44809783 54.468883,2.47529891 C54.2115674,2.55690217 53.9492794,2.64097826 53.6820191,2.73247283 C53.6136502,2.75596467 53.5452813,2.78069293 53.4769124,2.80418478 C53.2618611,2.87960598 53.0418376,2.95626359 52.821814,3.03539402 C52.7260976,3.07001359 52.629138,3.10586957 52.5321785,3.14172554 C52.2723767,3.23692935 52.0088456,3.33584239 51.7403423,3.4409375 C51.7117517,3.45206522 51.683161,3.46195652 51.6545704,3.47308424 C51.6533273,3.47308424 51.6520843,3.47432065 51.6495981,3.47432065 C45.4143542,5.92118207 38.8869886,9.91850543 32.1532733,15.4069429 C27.3885823,13.138125 15.9013636,10.3920516 0.977053769,25.2364266 C0.786863914,25.4255978 0.681202882,25.6815353 0.681202882,25.949837 C0.681202882,26.2169022 0.786863914,26.4728397 0.977053769,26.6620109 L6.99600333,32.6474864 C7.17127633,32.8218207 7.4037306,32.9269158 7.65234479,32.9405163 L15.1530349,33.3819158 L19.7387237,37.9430435 C19.7387237,37.9430435 19.7387237,37.9430435 19.7387237,37.9430435 L27.5650984,45.7275 L27.5650984,45.7275 L32.1507871,50.2886277 L32.5945635,57.7479076 C32.6094803,57.9951902 32.7151414,58.2263995 32.8904144,58.4007337 L38.9081208,64.3862092 C39.1057691,64.5827989 39.365571,64.681712 39.6241297,64.681712 C39.8826885,64.681712 40.1424903,64.5827989 40.3401386,64.3862092 C55.2632054,49.5443071 52.5035879,38.1198505 50.2225527,33.3794429 C55.7430308,26.6817935 59.7618792,20.1881522 62.2219166,13.9850679 Z M53.3177993,4.99758152 C53.3787098,4.97532609 53.4396203,4.95430707 53.4992877,4.93205163 C53.7541172,4.84055707 54.0052176,4.75153533 54.2501025,4.66869565 C54.2774501,4.65880435 54.3060407,4.65014946 54.3321452,4.64025815 C58.5001621,3.23445652 61.3579823,3.02055707 62.6768805,3.01684783 C62.6768805,3.27402174 62.6656929,3.5930163 62.6420746,3.96764946 C62.6408315,3.98372283 62.6408315,3.99732337 62.6395884,4.01339674 C62.6333731,4.11725543 62.6234285,4.22853261 62.6134839,4.3410462 C62.6109978,4.37442935 62.6085116,4.40657609 62.6047824,4.43995924 C62.5948379,4.54629076 62.5836502,4.66004076 62.5712195,4.77379076 C62.5674903,4.81953804 62.562518,4.8628125 62.5563027,4.9097962 C62.543872,5.02107337 62.5301982,5.1372962 62.5140382,5.25475543 C62.5065798,5.30915761 62.4991214,5.36355978 62.492906,5.42043478 C62.475503,5.53665761 62.4581001,5.65782609 62.439454,5.78146739 C62.4295094,5.84452446 62.4195649,5.90881793 62.4096203,5.97311141 C62.3897312,6.09675272 62.3685989,6.22286685 62.3462237,6.3514538 C62.333793,6.42316576 62.3201192,6.49487772 62.3076885,6.56782609 C62.2840701,6.69641304 62.2592087,6.82994565 62.2306181,6.96471467 C62.2157012,7.0426087 62.2007844,7.12297554 62.1821383,7.20210598 C62.1560338,7.33811141 62.124957,7.47782609 62.0926372,7.62001359 C62.0739911,7.70408967 62.0553451,7.79063859 62.0354559,7.87595109 C62.001893,8.02061141 61.965844,8.16650815 61.9297949,8.31487772 C61.9061766,8.40513587 61.8838013,8.49786685 61.8601829,8.58936141 C61.8216477,8.74144022 61.7818695,8.89475543 61.738362,9.05177989 C61.7122575,9.1469837 61.6849099,9.24466033 61.6575624,9.34233696 C61.6128118,9.50307065 61.5680613,9.66380435 61.5183384,9.8294837 C61.4909909,9.92839674 61.4574279,10.031019 61.4263512,10.1336413 C61.3766283,10.3017935 61.3244193,10.4699457 61.2672381,10.6442799 C61.2349182,10.7481386 61.1976261,10.8569429 61.1628201,10.962038 C61.1056389,11.1400815 61.0459715,11.3156522 60.9825748,11.4974049 C60.9465258,11.6037364 60.9055044,11.7137772 60.8669692,11.8213451 C60.7998434,12.0092799 60.7352037,12.1959783 60.6631056,12.3888587 C60.6568902,12.4012228 60.651918,12.4148234 60.6481887,12.4284239 C58.8855141,11.9276766 57.2831957,10.9892391 55.9717558,9.68482337 C54.660316,8.38164402 53.7180682,6.7866712 53.2133814,5.03467391 C53.2506735,5.02230978 53.2842364,5.00994565 53.3177993,4.99758152 Z M51.3288858,5.78146739 C51.9392336,7.78569293 53.0356222,9.61063859 54.5422242,11.1104076 C56.0488262,12.6101766 57.8835989,13.7006929 59.89986,14.3065353 C56.2837666,22.8452038 49.6221494,31.9773505 40.0815798,41.4668207 L37.1180987,44.4144293 L21.058865,28.4412092 L24.0223462,25.4936005 C33.5616727,16.0041304 42.7417517,9.37942935 51.3288858,5.78146739 Z M13.210115,31.2491033 L8.15454545,30.9511277 L3.13005266,25.9535462 C15.9523295,13.6042527 25.7477287,14.9618342 30.4216754,16.8486005 C27.8373309,19.0395245 25.2268819,21.4468207 22.5903284,24.0680163 L19.6268473,27.015625 L19.184314,26.575462 C18.6361197,26.0289674 17.905194,25.7272826 17.1270316,25.7272826 C16.3488692,25.7272826 15.6179435,26.0289674 15.0685061,26.5766984 L13.7471217,27.8910054 C12.8334645,28.7972962 12.6557054,30.1622962 13.210115,31.2491033 Z M15.1778963,30.5591848 C14.8335657,30.2166984 14.8335657,29.6578397 15.1791394,29.3153533 L16.5005238,28.0010462 C16.6683384,27.8341304 16.8908481,27.7426359 17.1270316,27.7426359 C17.3632151,27.7426359 17.5857248,27.8341304 17.7510532,27.9998098 L37.561875,47.7020516 C37.9062057,48.044538 37.9062057,48.6033967 37.5606319,48.9471196 L36.2404906,50.2601902 C35.9048614,50.5940217 35.3218611,50.5940217 34.9887181,50.2614266 L15.1778963,30.5591848 Z M39.6179144,62.2459783 L34.5934216,57.2483967 L34.2938415,52.2199049 C34.6978395,52.423913 35.1465881,52.5351902 35.6114967,52.5351902 C36.388416,52.5351902 37.1205848,52.2335054 37.6700222,51.6857745 L38.9914066,50.3714674 C40.1250873,49.2426223 40.1250873,47.4053125 38.9914066,46.2764674 L38.5488733,45.8375408 L41.5123545,42.8899321 C44.148908,40.2675 46.566681,37.6710326 48.7706458,35.1017663 C50.6688151,39.7506793 52.032464,49.4936141 39.6179144,62.2459783 Z" id="Shape"></path>
                    <path d="M46.0097852,24.8593207 C48.9285158,24.8593207 51.3027813,22.4977717 51.3027813,19.5959103 C51.3027813,16.6928125 48.9285158,14.3312636 46.0097852,14.3312636 C43.0910546,14.3312636 40.7167891,16.6928125 40.7167891,19.5959103 C40.7167891,22.4977717 43.0910546,24.8593207 46.0097852,24.8593207 Z M46.0097852,16.3453804 C47.8122381,16.3453804 49.2765757,17.8031114 49.2765757,19.5946739 C49.2765757,21.3862364 47.810995,22.8439674 46.0097852,22.8439674 C44.2085754,22.8439674 42.7429947,21.3862364 42.7429947,19.5946739 C42.7429947,17.8043478 44.2085754,16.3453804 46.0097852,16.3453804 Z" id="Shape"></path>
                    <path d="M20.3005917,43.7430571 L9.92716463,54.0609239 C9.53186807,54.4541033 9.53186807,55.0920924 9.92716463,55.4865082 C10.1248129,55.6830978 10.3846147,55.7807745 10.6431735,55.7807745 C10.9017323,55.7807745 11.1615341,55.6818614 11.3604254,55.4865082 L21.7338525,45.1686413 C22.1291491,44.775462 22.1291491,44.1374728 21.7338525,43.7442935 C21.338556,43.3511141 20.6958883,43.3498777 20.3005917,43.7430571 Z" id="Path"></path>
                    <path d="M10.3050582,62.5464266 C10.5027065,62.7430163 10.7612652,62.8419293 11.0210671,62.8419293 C11.2808689,62.8419293 11.5394277,62.7430163 11.738319,62.5464266 L25.4717669,48.8865353 C25.8670635,48.493356 25.8670635,47.8553668 25.4717669,47.4621875 C25.0752273,47.0690082 24.4350457,47.0690082 24.0385061,47.4621875 L10.3050582,61.1233152 C9.90976164,61.5164946 9.90976164,62.1520109 10.3050582,62.5464266 Z" id="Path"></path>
                    <path d="M29.2109243,51.1800815 C28.8156278,50.7869022 28.1742032,50.7869022 27.7776635,51.1800815 L18.7194055,60.1898234 C18.3241089,60.5830027 18.3241089,61.2209918 18.7194055,61.6129348 C18.9170538,61.8107609 19.1756125,61.9084375 19.4354144,61.9084375 C19.6939731,61.9084375 19.9537749,61.8107609 20.1514232,61.6129348 L29.2109243,52.6031929 C29.6062209,52.21125 29.6062209,51.5732609 29.2109243,51.1800815 Z" id="Path"></path>
                    <path d="M5.19603659,46.7401223 L14.2542946,37.7303804 C14.6495912,37.3372011 14.6495912,36.699212 14.2542946,36.3060326 C13.8589981,35.9116168 13.2175734,35.9116168 12.8210338,36.3060326 L3.76277578,45.3157745 C3.36747921,45.7089538 3.36747921,46.3469429 3.76277578,46.7401223 C3.96042406,46.936712 4.22022589,47.035625 4.48002772,47.035625 C4.73982955,47.035625 4.9983883,46.936712 5.19603659,46.7401223 Z" id="Path"></path>
                    <path d="M2.82798642,55.1106386 C3.0256347,55.3072283 3.28419346,55.4049049 3.54399529,55.4049049 C3.80255405,55.4049049 4.06235588,55.3059918 4.26000416,55.1106386 L17.9934521,41.4507473 C18.3887486,41.0575679 18.3887486,40.4195788 17.9934521,40.025163 C17.5981555,39.6332201 16.9579739,39.6319837 16.5614343,40.025163 L2.82674335,53.6850543 C2.43144678,54.0782337 2.43144678,54.7162228 2.82798642,55.1106386 Z" id="Path"></path>
                </g>
            </g>
        </g>
    </g>
</svg>